<svg xmlns="http://www.w3.org/2000/svg" xmlns:xlink="http://www.w3.org/1999/xlink" width="500" zoomAndPan="magnify" viewBox="0 0 375 374.999991" height="500" preserveAspectRatio="xMidYMid meet" version="1.0"><defs><clipPath id="1bd94304ed"><path d="M 228.570312 57.617188 L 314.820312 57.617188 L 314.820312 105.617188 L 228.570312 105.617188 Z M 228.570312 57.617188 " clip-rule="nonzero"/></clipPath><clipPath id="c3751c2667"><path d="M 205 188 L 298 188 L 298 330 L 205 330 Z M 205 188 " clip-rule="nonzero"/></clipPath><clipPath id="bbabc1b968"><path d="M 306.757812 195.933594 L 280.570312 343.628906 L 197.863281 328.964844 L 224.046875 181.269531 Z M 306.757812 195.933594 " clip-rule="nonzero"/></clipPath><clipPath id="53bfb9a204"><path d="M 265.667969 188.648438 C 242.976562 184.625 221.320312 199.757812 217.300781 222.449219 L 205.683594 287.976562 C 201.660156 310.667969 216.792969 332.324219 239.484375 336.34375 C 262.175781 340.367188 283.832031 325.234375 287.855469 302.542969 L 299.472656 237.019531 C 303.496094 214.328125 288.359375 192.671875 265.667969 188.648438 Z M 265.667969 188.648438 " clip-rule="nonzero"/></clipPath><clipPath id="16f0fa9ab9"><path d="M 306.757812 195.933594 L 280.570312 343.628906 L 198.601562 329.097656 L 224.785156 181.398438 Z M 306.757812 195.933594 " clip-rule="nonzero"/></clipPath><clipPath id="4e175c5bda"><path d="M 306.757812 195.933594 L 280.570312 343.628906 L 198.601562 329.097656 L 224.785156 181.398438 Z M 306.757812 195.933594 " clip-rule="nonzero"/></clipPath><clipPath id="e7d5289b8b"><path d="M 60.34375 139 L 209 139 L 209 181 L 60.34375 181 Z M 60.34375 139 " clip-rule="nonzero"/></clipPath><clipPath id="7dff6cb6ea"><path d="M 128 240 L 207 240 L 207 282 L 128 282 Z M 128 240 " clip-rule="nonzero"/></clipPath><clipPath id="7010d3059b"><path d="M 135.0625 293.792969 L 122.214844 269.199219 L 194.675781 231.351562 L 207.523438 255.949219 Z M 135.0625 293.792969 " clip-rule="nonzero"/></clipPath><clipPath id="2d923f5226"><path d="M 122.058594 268.894531 L 134.90625 293.492188 L 207.367188 255.648438 L 194.519531 231.050781 Z M 122.058594 268.894531 " clip-rule="nonzero"/></clipPath><clipPath id="34d3ad379a"><path d="M 97 52 L 172 52 L 172 95 L 97 95 Z M 97 52 " clip-rule="nonzero"/></clipPath><clipPath id="81f7372fac"><path d="M 123.019531 31.371094 L 173.800781 92.539062 L 147.835938 114.097656 L 97.054688 52.929688 Z M 123.019531 31.371094 " clip-rule="nonzero"/></clipPath><clipPath id="1f52a27451"><path d="M 123.019531 31.371094 L 173.800781 92.539062 L 147.835938 114.097656 L 97.054688 52.929688 Z M 123.019531 31.371094 " clip-rule="nonzero"/></clipPath></defs><g clip-path="url(#1bd94304ed)"><path fill="#bc9c22" d="M 228.707031 89.144531 C 228.855469 88.828125 228.828125 88.46875 228.878906 88.128906 C 229.117188 86.367188 229.53125 84.652344 230.0625 82.964844 C 230.589844 81.273438 231.195312 79.632812 231.871094 77.992188 C 232.402344 76.734375 233.078125 75.578125 233.753906 74.417969 C 235.082031 72.125 236.578125 69.976562 238.390625 68.042969 C 240.101562 66.234375 241.984375 64.617188 244.085938 63.242188 C 245.847656 62.082031 247.683594 61.09375 249.613281 60.296875 C 251.351562 59.59375 253.113281 58.992188 254.949219 58.582031 C 257.144531 58.097656 259.367188 57.761719 261.613281 57.664062 C 261.660156 57.664062 261.734375 57.6875 261.757812 57.617188 C 262.941406 57.617188 264.121094 57.617188 265.304688 57.617188 C 265.667969 57.738281 266.03125 57.710938 266.390625 57.738281 C 269.242188 57.929688 272.015625 58.4375 274.769531 59.234375 C 279.042969 60.441406 283.074219 62.226562 286.863281 64.566406 C 289.300781 66.066406 291.570312 67.804688 293.695312 69.6875 C 297.824219 73.355469 301.300781 77.605469 304.292969 82.238281 C 305.378906 83.929688 306.417969 85.667969 307.382812 87.453125 C 309.289062 91.027344 310.953125 94.71875 312.378906 98.507812 C 313.199219 100.730469 313.949219 102.976562 314.601562 105.246094 C 314.625 105.339844 314.625 105.414062 314.625 105.511719 C 314.261719 104.472656 313.925781 103.410156 313.539062 102.371094 C 312.765625 100.320312 312.042969 98.21875 311.195312 96.191406 C 309.988281 93.296875 308.660156 90.472656 307.164062 87.71875 C 305.714844 85.039062 304.097656 82.457031 302.335938 79.945312 C 301.203125 78.328125 299.945312 76.757812 298.667969 75.261719 C 297.652344 74.078125 296.589844 72.945312 295.480469 71.859375 C 293.644531 70.074219 291.691406 68.40625 289.589844 66.886719 C 287.152344 65.097656 284.570312 63.601562 281.839844 62.347656 C 279.042969 61.066406 276.167969 60.054688 273.152344 59.378906 C 271.703125 59.0625 270.253906 58.796875 268.78125 58.652344 C 267.597656 58.53125 266.441406 58.460938 265.257812 58.386719 C 263.710938 58.316406 262.144531 58.414062 260.621094 58.558594 C 256.542969 58.945312 252.609375 59.980469 248.890625 61.742188 C 245.582031 63.335938 242.613281 65.390625 240.03125 68.019531 C 238.460938 69.613281 237.0625 71.351562 235.902344 73.257812 C 234.648438 75.382812 233.511719 77.605469 232.835938 79.992188 C 232.28125 81.972656 231.824219 83.953125 231.53125 85.980469 C 231.316406 87.453125 231.292969 88.925781 231.316406 90.398438 C 231.316406 90.953125 231.171875 91.507812 231.21875 92.0625 C 231.242188 92.523438 231.242188 92.957031 231.265625 93.417969 C 231.316406 94.1875 231.148438 94.960938 231.21875 95.757812 C 231.265625 96.386719 231.148438 97.035156 231.242188 97.664062 C 231.265625 97.761719 231.242188 97.882812 231.121094 97.90625 C 231.027344 97.929688 230.929688 97.859375 230.855469 97.785156 C 230.589844 97.472656 230.472656 97.0625 230.253906 96.722656 C 229.554688 95.566406 229.214844 94.261719 228.878906 92.957031 C 228.707031 92.234375 228.757812 91.4375 228.707031 90.6875 C 228.683594 90.351562 228.683594 89.988281 228.660156 89.648438 C 228.660156 89.601562 228.683594 89.53125 228.589844 89.503906 C 228.707031 89.382812 228.707031 89.265625 228.707031 89.144531 Z M 228.707031 89.144531 " fill-opacity="1" fill-rule="nonzero"/></g><g clip-path="url(#c3751c2667)"><g clip-path="url(#bbabc1b968)"><g clip-path="url(#53bfb9a204)"><g clip-path="url(#16f0fa9ab9)"><g clip-path="url(#4e175c5bda)"><path fill="#eeba2b" d="M 252.621094 186.597656 C 253.117188 186.941406 253.746094 187.007812 254.3125 187.195312 C 257.261719 188.144531 260.078125 189.371094 262.8125 190.796875 C 265.550781 192.222656 268.183594 193.753906 270.796875 195.414062 C 272.785156 196.707031 274.570312 198.21875 276.351562 199.730469 C 279.882812 202.707031 283.113281 205.929688 285.875 209.621094 C 288.460938 213.113281 290.664062 216.835938 292.382812 220.855469 C 293.835938 224.234375 294.976562 227.679688 295.753906 231.238281 C 296.429688 234.429688 296.925781 237.636719 297.074219 240.910156 C 297.234375 244.828125 297.136719 248.738281 296.621094 252.621094 C 296.605469 252.703125 296.542969 252.820312 296.660156 252.882812 C 296.300781 254.914062 295.941406 256.941406 295.582031 258.972656 C 295.261719 259.554688 295.195312 260.183594 295.042969 260.796875 C 293.84375 265.625 292.132812 270.234375 289.925781 274.714844 C 286.558594 281.679688 282.265625 288.050781 277.097656 293.839844 C 273.785156 297.570312 270.113281 300.933594 266.238281 304.003906 C 258.6875 309.972656 250.339844 314.640625 241.480469 318.367188 C 238.25 319.71875 234.953125 320.96875 231.59375 322.082031 C 224.882812 324.269531 218.039062 326.003906 211.105469 327.292969 C 207.046875 328.027344 202.964844 328.628906 198.875 329.054688 C 198.703125 329.066406 198.578125 329.046875 198.414062 329.015625 C 200.304688 328.710938 202.226562 328.453125 204.125 328.105469 C 207.882812 327.40625 211.707031 326.800781 215.441406 325.96875 C 220.777344 324.777344 226.027344 323.359375 231.203125 321.628906 C 236.242188 319.960938 241.164062 317.96875 246.007812 315.710938 C 249.128906 314.257812 252.203125 312.578125 255.160156 310.839844 C 257.496094 309.460938 259.765625 307.984375 261.96875 306.410156 C 265.589844 303.804688 269.042969 300.957031 272.289062 297.816406 C 276.097656 294.175781 279.449219 290.199219 282.433594 285.902344 C 285.480469 281.488281 288.09375 276.867188 290.171875 271.894531 C 291.148438 269.507812 292.046875 267.101562 292.742188 264.621094 C 293.308594 262.625 293.785156 260.660156 294.269531 258.652344 C 294.863281 256.023438 295.175781 253.304688 295.390625 250.652344 C 295.96875 243.535156 295.382812 236.46875 293.492188 229.554688 C 291.765625 223.394531 289.144531 217.675781 285.417969 212.445312 C 283.160156 209.269531 280.605469 206.335938 277.6875 203.769531 C 274.421875 200.96875 270.957031 198.347656 267.0625 196.460938 C 263.835938 194.90625 260.582031 193.519531 257.1875 192.402344 C 254.730469 191.582031 252.210938 191.09375 249.675781 190.6875 C 248.722656 190.519531 247.816406 190.101562 246.847656 190.015625 C 246.054688 189.917969 245.308594 189.785156 244.515625 189.6875 C 243.175781 189.535156 241.898438 189.011719 240.511719 188.890625 C 239.421875 188.785156 238.339844 188.378906 237.234375 188.355469 C 237.058594 188.367188 236.859375 188.289062 236.855469 188.074219 C 236.84375 187.898438 236.996094 187.757812 237.144531 187.652344 C 237.761719 187.292969 238.503906 187.210938 239.148438 186.941406 C 241.347656 186.09375 243.6875 185.910156 246.027344 185.726562 C 247.320312 185.65625 248.675781 185.980469 249.972656 186.125 C 250.558594 186.1875 251.179688 186.296875 251.769531 186.359375 C 251.851562 186.375 251.96875 186.4375 252.039062 186.28125 C 252.207031 186.523438 252.414062 186.558594 252.621094 186.597656 Z M 252.621094 186.597656 " fill-opacity="1" fill-rule="nonzero"/></g></g></g></g></g><g clip-path="url(#e7d5289b8b)"><path fill="#eeba2b" d="M 203.34375 171.242188 L 200.714844 170.785156 C 197.925781 169.984375 195.695312 169.230469 194.027344 168.523438 L 195.6875 168.851562 C 195.070312 168.550781 195.269531 168.5 196.285156 168.695312 L 200.191406 169.554688 L 198.53125 168.882812 L 207.109375 170.832031 C 206.4375 170.527344 206.464844 170.5 207.191406 170.75 L 205.398438 169.988281 L 206.085938 170.125 L 205.78125 169.941406 C 203.5 169.296875 202.605469 168.996094 203.097656 169.03125 C 203.394531 169.003906 204.132812 169.109375 205.304688 169.347656 L 197.914062 167.050781 L 197.210938 166.664062 C 193.644531 165.636719 191.238281 165.066406 190 164.957031 C 191.445312 165.070312 194.007812 165.625 197.679688 166.617188 C 199.222656 166.964844 199.59375 166.984375 198.796875 166.679688 C 197.375 166.234375 195.074219 165.664062 191.898438 164.976562 C 189.90625 164.761719 188.066406 164.46875 186.382812 164.09375 L 184.484375 163.902344 L 179.445312 164.140625 L 177.066406 164.699219 L 174.109375 166.839844 L 178.691406 170.335938 L 183.234375 169.363281 L 194.839844 165.398438 C 196.824219 164.90625 198.828125 164.464844 200.84375 164.078125 L 203 163.742188 C 203.40625 163.679688 204.726562 163.550781 206.960938 163.355469 L 205.296875 163.867188 L 200.53125 164.710938 L 205.578125 164.082031 C 208.773438 163.128906 208.816406 162.96875 205.707031 163.59375 L 208.828125 162.65625 L 207.144531 157.09375 L 204.894531 155.835938 C 202.894531 154.917969 199.230469 154.054688 193.894531 153.25 L 185.871094 152.972656 C 188.046875 152.882812 189.96875 152.871094 191.632812 152.945312 L 192.4375 153.007812 L 194.847656 153.65625 L 194.847656 152.914062 L 193.757812 152.769531 L 194.003906 152.960938 L 189.90625 152.871094 L 181.355469 152.9375 L 176.410156 153.253906 L 181.738281 153.070312 L 180.742188 153.203125 C 176.792969 153.246094 171.976562 153.601562 166.289062 154.277344 L 171.082031 153.6875 L 169.652344 153.8125 L 158.269531 155.25 L 158.9375 155.210938 L 156.800781 155.683594 C 153.367188 156.160156 149.496094 156.890625 145.179688 157.875 C 137.628906 159.570312 130.375 161.445312 123.417969 163.496094 C 120.269531 164.449219 116.433594 165.78125 111.90625 167.492188 C 111.023438 167.835938 110.871094 167.921875 111.453125 167.75 L 110.082031 168.242188 L 108.507812 169.089844 L 105.832031 169.664062 C 92.847656 173.980469 86.027344 176.113281 85.382812 176.0625 C 82.671875 176.738281 80.160156 177.117188 77.84375 177.199219 L 75.035156 176.820312 L 74.183594 175.875 C 74.582031 174.777344 75.195312 173.644531 76.03125 172.480469 C 79.785156 169.074219 83.464844 166.40625 87.070312 164.476562 C 88.816406 163.351562 94.207031 160.9375 103.238281 157.234375 C 105.695312 156.183594 113.675781 153.59375 127.183594 149.464844 C 130.402344 148.371094 132.386719 147.480469 133.140625 146.792969 L 135.523438 144.328125 L 133.375 140.199219 L 130.328125 139.273438 L 127.066406 139.21875 L 116.433594 139.785156 C 115.855469 140.007812 113.933594 140.300781 110.664062 140.65625 C 121.234375 139.355469 128.210938 139.007812 131.585938 139.621094 L 135.214844 141.625 L 134.429688 145.703125 C 133.699219 146.492188 132.191406 147.394531 129.90625 148.417969 L 109.480469 154.90625 C 106.90625 155.683594 103.328125 157.019531 98.742188 158.917969 C 88.378906 163.40625 82.316406 166.625 80.558594 168.574219 C 84.011719 165.257812 93.207031 160.773438 108.140625 155.128906 L 100.585938 157.839844 C 104.242188 156.246094 113.65625 153.136719 128.828125 148.515625 C 131.183594 147.800781 133.230469 146.511719 134.964844 144.652344 L 133.578125 140.660156 L 130.566406 139.644531 L 127.738281 139.476562 C 112.324219 140.125 97.195312 142.460938 82.359375 146.484375 C 88.082031 145.011719 93.523438 143.796875 98.683594 142.84375 C 101.308594 142.347656 105.027344 141.753906 109.839844 141.058594 C 113.441406 140.601562 116.488281 140.273438 118.976562 140.078125 C 115.453125 140.367188 114.960938 140.394531 117.5 140.160156 C 118.605469 139.960938 122.347656 139.734375 128.726562 139.480469 C 131.351562 139.683594 133.316406 140.332031 134.628906 141.425781 L 134.261719 145.417969 L 131.5625 147.285156 L 128.632812 148.535156 C 113.84375 153.054688 105.082031 155.886719 102.347656 157.023438 C 96.660156 159.148438 90.640625 161.925781 84.292969 165.367188 C 77.472656 170.027344 73.902344 173.476562 73.582031 175.714844 L 74.191406 177.042969 L 75.785156 177.691406 C 76.59375 177.875 77.898438 177.898438 79.699219 177.753906 L 76.9375 177.902344 L 75.035156 177.574219 L 73.484375 176.132812 L 74.574219 173.476562 C 75.292969 172.394531 77.347656 170.359375 80.738281 167.378906 C 84.847656 164.824219 87.261719 163.421875 87.976562 163.171875 C 90.277344 161.992188 94.964844 159.835938 102.039062 156.699219 L 128.808594 148.355469 L 131.917969 146.976562 C 133.332031 146.15625 134.269531 145.414062 134.726562 144.753906 L 135.296875 142.96875 L 133.949219 141.210938 C 133.023438 140.492188 131.808594 140.007812 130.308594 139.757812 L 127.539062 139.648438 L 120.242188 140.019531 C 115.390625 140.453125 111.707031 140.859375 109.191406 141.238281 C 116.5625 140.269531 123.101562 139.742188 128.804688 139.652344 L 132.734375 140.53125 L 133.109375 145.972656 L 129.625 147.917969 C 130.8125 147.519531 132.289062 146.621094 134.0625 145.230469 L 132.464844 140.519531 L 125.777344 139.859375 L 124.503906 139.925781 C 126.113281 139.839844 127.8125 139.796875 129.605469 139.800781 L 132.785156 140.675781 L 134.566406 144.609375 L 131.0625 147.207031 L 126.570312 148.929688 C 121.21875 150.574219 118.664062 151.296875 118.914062 151.101562 L 106.1875 155.257812 L 110.480469 153.792969 L 127.925781 148.339844 L 117.746094 151.378906 C 123.734375 149.671875 128.128906 148.230469 130.9375 147.058594 L 134.820312 143.757812 L 134.738281 143.789062 L 133.570312 141.332031 L 131.027344 140.367188 L 126.351562 140.078125 L 125.457031 140.136719 C 126.527344 140.023438 128.191406 140.074219 130.457031 140.289062 L 133.15625 141.1875 L 134.007812 144.753906 L 131.023438 146.824219 C 130.820312 147.015625 129.191406 147.628906 126.128906 148.660156 L 109.582031 153.671875 L 108.796875 153.855469 L 110.339844 153.296875 L 110.074219 153.328125 L 112.871094 152.359375 L 101.484375 156.167969 C 106.269531 154.316406 114.691406 151.59375 126.753906 148 C 128.484375 147.472656 130.082031 146.792969 131.550781 145.964844 L 133.289062 144.734375 C 132.511719 145.363281 132.636719 145.226562 133.660156 144.332031 L 133.449219 141.984375 L 128.734375 140.59375 L 125.011719 140.679688 L 128.421875 140.640625 L 131.324219 141.125 L 134.148438 142.925781 L 132.222656 145.453125 L 129.191406 147.007812 C 127.960938 147.558594 125.320312 148.378906 121.28125 149.472656 L 122.214844 149.074219 L 121.808594 149.074219 L 119.953125 149.5625 C 123.84375 148.511719 127.292969 147.378906 130.296875 146.164062 C 132.71875 144.75 133.851562 143.910156 133.691406 143.640625 C 133.558594 144.222656 132.203125 145.148438 129.625 146.429688 C 127.371094 147.339844 124.285156 148.328125 120.378906 149.402344 L 128.914062 146.605469 L 133.042969 144.222656 L 127.632812 147.035156 L 114.761719 150.804688 L 127.953125 146.769531 L 130.226562 145.863281 C 131.8125 145.023438 132.824219 144.320312 133.257812 143.761719 L 132.695312 142.289062 L 129.511719 141.277344 L 126.796875 141.433594 L 125.363281 141.214844 C 125.515625 141.160156 126.980469 141.210938 129.757812 141.367188 L 132.835938 142.417969 L 133.445312 143.382812 C 132.457031 144.558594 131.152344 145.464844 129.53125 146.109375 C 129.648438 146.25 126.4375 147.257812 119.894531 149.125 C 124.332031 147.832031 127.605469 146.726562 129.710938 145.800781 C 131.996094 144.625 133.144531 143.726562 133.15625 143.101562 L 131.261719 142.15625 C 130.023438 142.277344 128.421875 142.109375 126.453125 141.648438 C 126.859375 141.554688 124.140625 141.714844 118.296875 142.132812 L 114.21875 142.539062 C 110.636719 142.867188 105.367188 143.722656 98.40625 145.097656 C 107.78125 143.257812 116.136719 142.171875 123.472656 141.84375 L 128.078125 141.714844 L 130.15625 141.960938 C 132.53125 142.679688 133.488281 143.113281 133.027344 143.257812 C 131.351562 141.160156 122.269531 141.359375 105.789062 143.847656 C 101.292969 144.546875 95.300781 145.777344 87.8125 147.539062 L 86.324219 147.914062 L 93.804688 146.191406 C 95.785156 145.75 97.964844 145.304688 100.339844 144.855469 C 105.363281 143.921875 108.71875 143.378906 110.40625 143.230469 C 99.882812 144.734375 89.09375 147.078125 78.039062 150.265625 C 87.320312 147.652344 96.492188 145.566406 105.554688 144.007812 C 109.542969 143.367188 113.132812 142.890625 116.316406 142.570312 L 118.199219 142.40625 L 109.597656 143.4375 C 114.34375 142.644531 120.53125 142.15625 128.160156 141.976562 C 119.710938 142.039062 110.0625 143.117188 99.214844 145.207031 C 90.65625 147.003906 85.554688 148.171875 83.910156 148.714844 C 77.925781 150.300781 70.6875 152.40625 62.199219 155.023438 L 60.351562 155.445312 C 61.6875 155.171875 63.265625 154.761719 65.085938 154.210938 C 70.722656 152.46875 75.375 151.105469 79.042969 150.121094 L 89.804688 147.359375 C 99.132812 145.21875 107.203125 143.789062 114.015625 143.070312 C 118.671875 142.558594 123.480469 142.277344 128.441406 142.226562 C 129.890625 142.410156 131.257812 142.75 132.539062 143.238281 C 131.78125 144.546875 126.875 146.464844 117.820312 149 L 128.21875 145.640625 C 129.398438 145.257812 130.746094 144.464844 132.261719 143.261719 L 132.542969 143.515625 C 132.113281 143.140625 130.941406 142.746094 129.03125 142.335938 L 125.863281 142.3125 C 113.484375 142.65625 99.292969 144.929688 83.292969 149.128906 C 93.621094 146.484375 102.933594 144.625 111.226562 143.554688 L 105.742188 144.390625 C 109.902344 143.734375 113.710938 143.234375 117.167969 142.894531 L 124.714844 142.402344 C 126.648438 142.261719 128.414062 142.328125 130.011719 142.605469 L 132.09375 143.265625 L 132.441406 143.007812 C 131.949219 143.679688 130.648438 144.496094 128.542969 145.453125 L 125.597656 146.542969 C 116.738281 149.203125 109.128906 151.636719 102.769531 153.839844 C 94.367188 157.238281 89.257812 159.457031 87.445312 160.5 C 85.148438 161.472656 82.046875 163.433594 78.144531 166.386719 L 74.238281 169.96875 C 72.257812 172.152344 71.203125 173.757812 71.078125 174.785156 C 72.53125 170.578125 77.65625 165.933594 86.457031 160.855469 C 86.011719 160.796875 91.074219 158.550781 101.640625 154.117188 C 108.644531 151.65625 116.859375 149.003906 126.289062 146.160156 C 127.378906 145.84375 128.851562 145.1875 130.710938 144.191406 L 132.136719 143.125 L 132.3125 142.886719 L 131.183594 143.863281 L 128.46875 145.300781 L 125.929688 146.253906 C 117.195312 148.847656 109.007812 151.484375 101.367188 154.167969 C 91.375 158.195312 84.785156 161.324219 81.601562 163.554688 C 78.363281 165.65625 75.289062 168.410156 72.382812 171.816406 L 70.785156 175.695312 L 73.039062 179.539062 L 75.882812 180.488281 C 77.898438 181.007812 82.171875 180.433594 88.707031 178.765625 L 96.492188 176.300781 L 124.878906 166.828125 C 133.351562 164.359375 139.9375 162.597656 144.636719 161.539062 C 149.753906 160.195312 155.585938 159.042969 162.140625 158.082031 C 162.734375 157.933594 166.40625 157.570312 173.15625 156.996094 C 175.546875 156.75 179.667969 156.617188 185.53125 156.605469 L 190.425781 156.820312 C 191.457031 157.003906 193.351562 157.175781 196.105469 157.328125 C 200.433594 157.714844 203.574219 159.003906 205.527344 161.195312 L 205.492188 160.15625 L 203.949219 160.179688 L 195.839844 161.136719 L 192.199219 161.949219 L 190.113281 162.664062 L 190.933594 162.5 L 186.683594 163.867188 L 189.15625 163.230469 L 181.558594 165.492188 L 181.25 165.539062 L 184.945312 164.324219 C 183.148438 164.921875 181.234375 165.4375 179.207031 165.878906 L 177.546875 166.078125 L 177.824219 169.160156 L 180.238281 168.492188 C 181.707031 168.28125 183.988281 168.28125 187.082031 168.484375 L 185.414062 168.230469 L 180.476562 168.269531 L 177.640625 169.050781 L 177.191406 166.296875 L 177.519531 169.011719 L 178.867188 168.339844 C 180.644531 168.054688 182.535156 167.980469 184.539062 168.113281 C 186.828125 168.171875 189.445312 168.605469 192.386719 169.421875 L 190.527344 168.8125 C 193.578125 169.695312 196.898438 170.511719 200.5 171.261719 C 201.039062 171.304688 200.847656 171.171875 199.917969 170.863281 C 201.660156 170.992188 202.800781 171.117188 203.34375 171.242188 Z M 203.34375 171.242188 " fill-opacity="1" fill-rule="nonzero"/></g><g clip-path="url(#7dff6cb6ea)"><g clip-path="url(#7010d3059b)"><g clip-path="url(#2d923f5226)"><path fill="#eeba2b" d="M 143.925781 262.878906 C 143.976562 262.910156 143.773438 263.1875 144.164062 262.839844 C 144.769531 262.289062 145.28125 261.757812 145.789062 261.222656 C 145.917969 261.085938 146.042969 260.957031 146.179688 260.824219 C 146.3125 260.691406 146.441406 260.558594 146.578125 260.425781 C 146.851562 260.164062 147.136719 259.898438 147.445312 259.628906 C 147.492188 259.625 147.542969 259.621094 147.59375 259.613281 C 147.816406 259.390625 148.054688 259.171875 148.285156 258.949219 L 148.992188 258.269531 C 149.230469 258.046875 149.464844 257.8125 149.710938 257.585938 C 149.957031 257.363281 150.203125 257.132812 150.453125 256.902344 C 151.390625 256.089844 152.355469 255.308594 153.308594 254.527344 C 154.28125 253.761719 155.238281 252.988281 156.226562 252.25 C 156.195312 252.316406 156.191406 252.359375 156.394531 252.21875 C 157.21875 251.609375 158.335938 250.734375 159.53125 249.871094 C 159.714844 249.75 159.894531 249.625 160.074219 249.511719 C 160.222656 249.433594 160.277344 249.433594 160.308594 249.433594 C 160.582031 249.242188 160.839844 249.058594 161.085938 248.890625 C 161.335938 248.71875 161.566406 248.554688 161.796875 248.398438 C 162.5625 247.914062 163.34375 247.453125 164.132812 246.992188 C 164.925781 246.53125 165.71875 246.09375 166.539062 245.671875 C 167.355469 245.25 168.183594 244.839844 169.03125 244.457031 L 169.351562 244.3125 L 169.667969 244.175781 C 169.882812 244.082031 170.097656 243.984375 170.308594 243.898438 C 170.742188 243.71875 171.171875 243.535156 171.613281 243.371094 C 172.058594 243.207031 172.5 243.039062 172.945312 242.875 C 173.394531 242.722656 173.839844 242.566406 174.296875 242.425781 C 174.753906 242.285156 175.210938 242.148438 175.671875 242.015625 C 175.902344 241.953125 176.136719 241.890625 176.371094 241.832031 C 176.488281 241.800781 176.601562 241.769531 176.722656 241.738281 L 177.070312 241.660156 C 177.304688 241.605469 177.542969 241.542969 177.78125 241.496094 C 178.019531 241.449219 178.253906 241.394531 178.496094 241.347656 C 178.734375 241.296875 178.976562 241.257812 179.214844 241.214844 C 179.335938 241.191406 179.457031 241.167969 179.574219 241.152344 C 179.695312 241.132812 179.820312 241.113281 179.941406 241.097656 C 180.425781 241.015625 180.917969 240.960938 181.40625 240.898438 C 181.902344 240.851562 182.394531 240.796875 182.894531 240.769531 L 183.214844 240.757812 L 183.375 240.753906 L 183.527344 240.75 L 184.167969 240.742188 C 184.378906 240.738281 184.589844 240.75 184.800781 240.753906 C 185.011719 240.757812 185.222656 240.761719 185.429688 240.773438 L 186.058594 240.808594 C 186.164062 240.816406 186.265625 240.820312 186.371094 240.828125 L 186.679688 240.855469 L 187.296875 240.90625 L 187.90625 240.976562 C 189.210938 241.113281 190.503906 241.328125 191.789062 241.617188 C 193.058594 241.898438 194.304688 242.273438 195.523438 242.734375 C 195.296875 242.820312 196.503906 243.40625 197.542969 244.070312 C 197.800781 244.242188 198.054688 244.40625 198.277344 244.558594 C 198.5 244.710938 198.6875 244.863281 198.828125 244.980469 C 199.109375 245.21875 199.191406 245.351562 198.910156 245.28125 C 198.992188 245.328125 199.078125 245.378906 199.160156 245.429688 L 199.421875 245.59375 L 199.6875 245.761719 L 199.824219 245.847656 L 199.957031 245.9375 L 200.480469 246.300781 C 200.566406 246.359375 200.652344 246.421875 200.734375 246.484375 L 200.96875 246.664062 C 201.121094 246.78125 201.269531 246.890625 201.394531 247 C 201.523438 247.109375 201.632812 247.207031 201.726562 247.289062 C 201.914062 247.460938 202.035156 247.574219 202.039062 247.613281 C 202.078125 247.777344 202.140625 247.929688 202.230469 248.070312 C 202.289062 248.167969 202.363281 248.28125 202.453125 248.40625 C 202.542969 248.535156 202.640625 248.6875 202.765625 248.855469 C 202.824219 248.9375 202.890625 249.023438 202.964844 249.121094 C 203.035156 249.214844 203.105469 249.316406 203.183594 249.421875 C 203.335938 249.640625 203.523438 249.867188 203.707031 250.140625 L 204.007812 250.566406 C 204.109375 250.714844 204.210938 250.875 204.324219 251.042969 L 204.496094 251.296875 C 204.554688 251.382812 204.605469 251.476562 204.667969 251.570312 L 204.84375 251.859375 L 204.933594 252.003906 C 204.964844 252.054688 204.996094 252.105469 205.023438 252.160156 C 205.414062 252.800781 205.882812 253.621094 206.238281 254.371094 C 206.324219 254.5625 206.398438 254.742188 206.476562 254.914062 L 206.582031 255.160156 C 206.617188 255.242188 206.640625 255.320312 206.667969 255.394531 C 206.773438 255.6875 206.847656 255.917969 206.878906 256.046875 C 206.925781 256.265625 206.898438 256.253906 206.832031 256.128906 C 206.800781 256.0625 206.757812 255.984375 206.710938 255.886719 L 206.566406 255.570312 C 206.515625 255.460938 206.464844 255.351562 206.417969 255.253906 C 206.371094 255.160156 206.320312 255.082031 206.285156 255.027344 C 206.214844 254.917969 206.1875 254.910156 206.246094 255.105469 C 205.730469 253.839844 205.070312 252.652344 204.265625 251.542969 C 203.453125 250.445312 202.53125 249.441406 201.503906 248.539062 L 201.3125 248.367188 L 201.113281 248.207031 L 200.71875 247.878906 C 200.652344 247.824219 200.585938 247.773438 200.515625 247.722656 L 200.308594 247.566406 C 200.171875 247.464844 200.039062 247.359375 199.898438 247.257812 L 199.476562 246.96875 C 199.335938 246.871094 199.195312 246.769531 199.046875 246.679688 C 198.757812 246.5 198.472656 246.308594 198.171875 246.140625 C 196.976562 245.441406 195.734375 244.847656 194.441406 244.359375 C 193.140625 243.871094 191.808594 243.488281 190.445312 243.210938 C 187.679688 242.640625 184.898438 242.539062 182.097656 242.90625 C 180.675781 243.078125 179.273438 243.347656 177.886719 243.710938 C 177.648438 243.765625 177.324219 243.835938 176.925781 243.945312 C 176.726562 244 176.511719 244.054688 176.273438 244.125 C 176.035156 244.195312 175.789062 244.273438 175.523438 244.355469 C 175.257812 244.4375 174.976562 244.535156 174.679688 244.632812 C 174.382812 244.730469 174.074219 244.847656 173.75 244.960938 C 173.433594 245.085938 173.097656 245.207031 172.753906 245.347656 C 172.410156 245.488281 172.050781 245.632812 171.691406 245.792969 C 170.960938 246.105469 170.199219 246.464844 169.40625 246.855469 C 168.617188 247.242188 167.808594 247.679688 166.980469 248.140625 C 166.152344 248.601562 165.316406 249.105469 164.476562 249.632812 C 163.632812 250.15625 162.789062 250.71875 161.945312 251.289062 C 161.101562 251.859375 160.269531 252.460938 159.449219 253.070312 C 158.628906 253.675781 157.816406 254.292969 157.027344 254.914062 C 156.632812 255.222656 156.246094 255.539062 155.859375 255.847656 C 155.667969 256.003906 155.476562 256.15625 155.285156 256.308594 C 155.097656 256.460938 154.90625 256.613281 154.722656 256.769531 L 153.628906 257.679688 C 153.449219 257.832031 153.269531 257.980469 153.09375 258.128906 C 152.917969 258.273438 152.75 258.425781 152.578125 258.574219 C 151.898438 259.164062 151.238281 259.726562 150.632812 260.277344 C 150.03125 260.828125 149.449219 261.332031 148.929688 261.824219 C 148.667969 262.0625 148.421875 262.296875 148.183594 262.519531 C 147.945312 262.742188 147.714844 262.953125 147.507812 263.160156 C 147.085938 263.566406 146.714844 263.925781 146.402344 264.230469 C 146.25 264.378906 146.09375 264.523438 145.941406 264.671875 L 144.902344 265.707031 L 144.371094 266.242188 L 143.835938 266.785156 C 143.480469 267.152344 143.117188 267.519531 142.757812 267.886719 C 142.398438 268.257812 142.046875 268.632812 141.691406 269 C 140.976562 269.734375 140.300781 270.472656 139.644531 271.160156 C 139.316406 271.503906 139.007812 271.847656 138.703125 272.171875 C 138.398438 272.496094 138.109375 272.808594 137.832031 273.101562 C 137.316406 273.644531 136.800781 274.1875 136.285156 274.730469 C 136.019531 275.003906 135.769531 275.285156 135.511719 275.558594 C 135.257812 275.835938 135 276.113281 134.746094 276.390625 C 135.148438 275.816406 135.519531 275.28125 135.835938 274.8125 C 135.351562 275.40625 134.867188 276.003906 134.453125 276.503906 C 134.039062 277 133.707031 277.414062 133.5 277.628906 C 133.230469 277.9375 133.015625 278.1875 132.839844 278.378906 C 132.664062 278.570312 132.535156 278.714844 132.4375 278.808594 C 132.246094 278.996094 132.195312 279 132.222656 278.890625 C 132.304688 278.683594 132.402344 278.480469 132.515625 278.289062 C 132.664062 278.023438 132.84375 277.714844 132.992188 277.433594 C 133.484375 276.664062 132.605469 277.535156 133.414062 276.359375 C 133.09375 276.757812 132.859375 277.066406 132.621094 277.367188 C 132.382812 277.671875 132.140625 277.976562 131.832031 278.386719 C 131.796875 278.398438 131.902344 278.246094 132.070312 278.023438 C 132.238281 277.796875 132.480469 277.507812 132.703125 277.226562 C 133.152344 276.667969 133.546875 276.15625 133.269531 276.394531 C 132.972656 276.792969 132.644531 277.203125 132.308594 277.609375 C 132.226562 277.714844 132.140625 277.816406 132.054688 277.917969 L 131.808594 278.230469 C 131.644531 278.4375 131.484375 278.644531 131.328125 278.851562 C 131.363281 278.761719 131.507812 278.539062 131.710938 278.253906 C 131.8125 278.109375 131.921875 277.953125 132.046875 277.789062 C 132.167969 277.628906 132.296875 277.460938 132.425781 277.296875 C 132.929688 276.640625 133.394531 276.035156 133.296875 276.058594 C 133.113281 276.269531 132.695312 276.863281 132.296875 277.410156 C 132.09375 277.683594 131.898438 277.945312 131.738281 278.148438 C 131.582031 278.351562 131.457031 278.488281 131.398438 278.503906 C 131.351562 278.515625 131.96875 277.691406 132.292969 277.289062 C 132.164062 277.445312 132.042969 277.59375 131.925781 277.738281 C 131.808594 277.882812 131.695312 278.023438 131.585938 278.15625 C 131.371094 278.429688 131.171875 278.671875 130.988281 278.890625 C 130.628906 279.328125 130.34375 279.644531 130.183594 279.820312 C 130.019531 279.992188 129.960938 280.007812 130.046875 279.828125 C 130.132812 279.648438 130.363281 279.28125 130.773438 278.679688 C 130.15625 279.476562 129.371094 280.671875 128.722656 281.515625 C 128.722656 281.511719 128.722656 281.511719 128.722656 281.507812 C 129.035156 281.078125 129.554688 280.320312 129.84375 279.921875 L 128.773438 281.386719 C 128.8125 281.296875 128.859375 281.199219 128.910156 281.09375 C 129.164062 280.722656 129.421875 280.34375 129.699219 279.964844 L 128.988281 280.9375 C 129.125 280.667969 129.292969 280.359375 129.484375 280.027344 C 129.867188 279.417969 130.246094 278.824219 130.585938 278.300781 C 130.921875 277.78125 131.21875 277.324219 131.460938 277.023438 C 133.363281 274.527344 135.359375 272.097656 137.441406 269.730469 C 139.523438 267.359375 141.6875 265.078125 143.925781 262.878906 Z M 143.925781 262.878906 " fill-opacity="1" fill-rule="nonzero"/></g></g></g><g clip-path="url(#34d3ad379a)"><g clip-path="url(#81f7372fac)"><g clip-path="url(#1f52a27451)"><path fill="#eeba2b" d="M 99.652344 55.785156 C 110.71875 54.90625 121.886719 56.699219 132.21875 60.726562 C 142.46875 64.726562 151.902344 70.882812 159.582031 78.769531 C 163.84375 83.144531 167.558594 88.046875 170.496094 93.40625 C 170.613281 93.621094 171.175781 94.75 171.460938 94.410156 C 171.734375 94.089844 170.785156 92.449219 170.652344 92.207031 C 165.117188 82.121094 157.351562 73.390625 147.996094 66.695312 C 138.761719 60.082031 128.085938 55.476562 116.917969 53.398438 C 110.675781 52.238281 104.308594 51.871094 97.980469 52.375 C 97.6875 52.398438 98.441406 54.097656 98.503906 54.230469 C 98.664062 54.554688 99.171875 55.824219 99.652344 55.785156 Z M 99.652344 55.785156 " fill-opacity="1" fill-rule="nonzero"/></g></g></g></svg>