<svg xmlns="http://www.w3.org/2000/svg" xmlns:xlink="http://www.w3.org/1999/xlink" width="500" zoomAndPan="magnify" viewBox="0 0 375 374.999991" height="500" preserveAspectRatio="xMidYMid meet" version="1.0"><defs><g/><clipPath id="2d9e4dc635"><path d="M 143 96.125 L 226.441406 96.125 L 226.441406 215 L 143 215 Z M 143 96.125 " clip-rule="nonzero"/></clipPath><clipPath id="6bbfd16133"><path d="M 43.246094 226.378906 L 88.246094 226.378906 L 88.246094 255.628906 L 43.246094 255.628906 Z M 43.246094 226.378906 " clip-rule="nonzero"/></clipPath></defs><g fill="#ffffff" fill-opacity="1"><g transform="translate(63.20067, 253.911168)"><g/></g></g><g fill="#ffffff" fill-opacity="1"><g transform="translate(80.837551, 253.911168)"><g/></g></g><g fill="#ffffff" fill-opacity="1"><g transform="translate(98.47593, 253.911168)"><g><path d="M 3.140625 -26.203125 L 23 -26.203125 C 23.757812 -26.203125 24.316406 -26.113281 24.671875 -25.9375 C 25.023438 -25.757812 25.257812 -25.476562 25.375 -25.09375 C 25.5 -24.71875 25.5625 -24.21875 25.5625 -23.59375 C 25.5625 -22.976562 25.5 -22.484375 25.375 -22.109375 C 25.257812 -21.742188 25.0625 -21.488281 24.78125 -21.34375 C 24.351562 -21.132812 23.742188 -21.03125 22.953125 -21.03125 L 16.140625 -21.03125 L 16.140625 -3.078125 C 16.140625 -2.523438 16.117188 -2.117188 16.078125 -1.859375 C 16.046875 -1.597656 15.941406 -1.289062 15.765625 -0.9375 C 15.585938 -0.59375 15.269531 -0.347656 14.8125 -0.203125 C 14.363281 -0.0664062 13.769531 0 13.03125 0 C 12.289062 0 11.703125 -0.0664062 11.265625 -0.203125 C 10.828125 -0.347656 10.515625 -0.59375 10.328125 -0.9375 C 10.148438 -1.289062 10.046875 -1.601562 10.015625 -1.875 C 9.984375 -2.144531 9.96875 -2.554688 9.96875 -3.109375 L 9.96875 -21.03125 L 3.109375 -21.03125 C 2.347656 -21.03125 1.785156 -21.117188 1.421875 -21.296875 C 1.066406 -21.472656 0.828125 -21.75 0.703125 -22.125 C 0.585938 -22.507812 0.53125 -23.007812 0.53125 -23.625 C 0.53125 -24.25 0.585938 -24.742188 0.703125 -25.109375 C 0.828125 -25.484375 1.035156 -25.742188 1.328125 -25.890625 C 1.753906 -26.097656 2.359375 -26.203125 3.140625 -26.203125 Z M 3.140625 -26.203125 "/></g></g></g><g fill="#ffffff" fill-opacity="1"><g transform="translate(133.177295, 253.911168)"><g><path d="M 16.53125 -24.3125 L 26.171875 -4.390625 C 26.578125 -3.578125 26.78125 -2.972656 26.78125 -2.578125 C 26.78125 -1.710938 26.085938 -0.9375 24.703125 -0.25 C 23.898438 0.15625 23.265625 0.359375 22.796875 0.359375 C 22.328125 0.359375 21.941406 0.25 21.640625 0.03125 C 21.347656 -0.175781 21.132812 -0.398438 21 -0.640625 C 20.875 -0.878906 20.691406 -1.238281 20.453125 -1.71875 L 18.59375 -5.5625 L 8.71875 -5.5625 L 6.859375 -1.71875 C 6.617188 -1.238281 6.429688 -0.890625 6.296875 -0.671875 C 6.171875 -0.460938 5.957031 -0.242188 5.65625 -0.015625 C 5.363281 0.210938 4.984375 0.328125 4.515625 0.328125 C 4.046875 0.328125 3.410156 0.125 2.609375 -0.28125 C 1.222656 -0.945312 0.53125 -1.710938 0.53125 -2.578125 C 0.53125 -2.972656 0.734375 -3.578125 1.140625 -4.390625 L 10.78125 -24.34375 C 11.039062 -24.894531 11.4375 -25.335938 11.96875 -25.671875 C 12.507812 -26.003906 13.078125 -26.171875 13.671875 -26.171875 C 14.960938 -26.171875 15.914062 -25.550781 16.53125 -24.3125 Z M 13.640625 -15.75 L 11.28125 -10.859375 L 16.03125 -10.859375 Z M 13.640625 -15.75 "/></g></g></g><g fill="#ffffff" fill-opacity="1"><g transform="translate(169.092449, 253.911168)"><g><path d="M 20.0625 -14.03125 C 21.46875 -12.363281 22.171875 -10.492188 22.171875 -8.421875 C 22.117188 -6.046875 21.300781 -4.050781 19.71875 -2.4375 C 18.144531 -0.832031 16.222656 -0.03125 13.953125 -0.03125 L 4.5625 -0.03125 C 2.90625 -0.03125 1.929688 -0.484375 1.640625 -1.390625 C 1.492188 -1.796875 1.421875 -2.414062 1.421875 -3.25 L 1.421875 -23.0625 C 1.421875 -23.632812 1.4375 -24.050781 1.46875 -24.3125 C 1.507812 -24.570312 1.628906 -24.878906 1.828125 -25.234375 C 2.160156 -25.878906 3.085938 -26.203125 4.609375 -26.203125 L 13.609375 -26.203125 C 15.796875 -26.203125 17.625 -25.441406 19.09375 -23.921875 C 20.644531 -22.367188 21.421875 -20.507812 21.421875 -18.34375 C 21.421875 -16.78125 20.96875 -15.34375 20.0625 -14.03125 Z M 15.859375 -8.78125 C 15.859375 -9.351562 15.789062 -9.804688 15.65625 -10.140625 C 15.519531 -10.472656 15.300781 -10.710938 15 -10.859375 C 14.519531 -11.046875 13.847656 -11.140625 12.984375 -11.140625 C 12.128906 -11.140625 11.488281 -11.304688 11.0625 -11.640625 C 10.632812 -11.972656 10.421875 -12.65625 10.421875 -13.6875 C 10.421875 -14.726562 10.640625 -15.414062 11.078125 -15.75 C 11.523438 -16.082031 12.257812 -16.25 13.28125 -16.25 C 14.226562 -16.25 14.800781 -16.5 15 -17 C 15.070312 -17.257812 15.109375 -17.6875 15.109375 -18.28125 C 15.109375 -18.875 14.910156 -19.289062 14.515625 -19.53125 C 14.117188 -19.769531 13.53125 -19.890625 12.75 -19.890625 L 7.75 -19.890625 L 7.75 -6.359375 L 13.609375 -6.359375 C 15.109375 -6.359375 15.859375 -7.164062 15.859375 -8.78125 Z M 15.859375 -8.78125 "/></g></g></g><g fill="#ffffff" fill-opacity="1"><g transform="translate(200.759334, 253.911168)"><g><path d="M 25.3125 -25.78125 C 26.71875 -25.09375 27.421875 -24.332031 27.421875 -23.5 C 27.421875 -23.113281 27.242188 -22.539062 26.890625 -21.78125 L 17.03125 -1.78125 C 16.769531 -1.257812 16.367188 -0.835938 15.828125 -0.515625 C 15.296875 -0.191406 14.742188 -0.03125 14.171875 -0.03125 L 13.8125 -0.03125 C 13.21875 -0.03125 12.648438 -0.191406 12.109375 -0.515625 C 11.578125 -0.835938 11.179688 -1.257812 10.921875 -1.78125 L 1.078125 -21.78125 C 0.710938 -22.539062 0.53125 -23.113281 0.53125 -23.5 C 0.53125 -24.332031 1.234375 -25.09375 2.640625 -25.78125 C 3.421875 -26.1875 4.019531 -26.390625 4.4375 -26.390625 C 4.851562 -26.390625 5.171875 -26.335938 5.390625 -26.234375 C 5.609375 -26.140625 5.8125 -25.972656 6 -25.734375 C 6.207031 -25.453125 6.398438 -25.140625 6.578125 -24.796875 C 6.765625 -24.453125 7.222656 -23.460938 7.953125 -21.828125 C 8.691406 -20.203125 9.484375 -18.472656 10.328125 -16.640625 C 11.179688 -14.804688 11.984375 -13.070312 12.734375 -11.4375 C 13.484375 -9.8125 13.90625 -8.90625 14 -8.71875 L 21.140625 -24.34375 C 21.328125 -24.800781 21.492188 -25.160156 21.640625 -25.421875 C 22.066406 -26.066406 22.585938 -26.390625 23.203125 -26.390625 C 23.828125 -26.390625 24.53125 -26.1875 25.3125 -25.78125 Z M 25.3125 -25.78125 "/></g></g></g><g fill="#ffffff" fill-opacity="1"><g transform="translate(237.317081, 253.911168)"><g><path d="M 1.421875 -23.03125 C 1.421875 -23.570312 1.4375 -23.976562 1.46875 -24.25 C 1.507812 -24.53125 1.628906 -24.847656 1.828125 -25.203125 C 2.160156 -25.847656 3.085938 -26.171875 4.609375 -26.171875 C 6.273438 -26.171875 7.257812 -25.726562 7.5625 -24.84375 C 7.6875 -24.445312 7.75 -23.832031 7.75 -23 L 7.75 -3.140625 C 7.75 -2.566406 7.726562 -2.148438 7.6875 -1.890625 C 7.65625 -1.628906 7.546875 -1.320312 7.359375 -0.96875 C 7.023438 -0.320312 6.09375 0 4.5625 0 C 2.90625 0 1.929688 -0.453125 1.640625 -1.359375 C 1.492188 -1.734375 1.421875 -2.335938 1.421875 -3.171875 Z M 1.421875 -23.03125 "/></g></g></g><g fill="#ffffff" fill-opacity="1"><g transform="translate(255.096772, 253.911168)"><g><path d="M 4.609375 -26.203125 L 11.203125 -26.171875 C 14.660156 -26.171875 17.695312 -24.925781 20.3125 -22.4375 C 22.9375 -19.945312 24.25 -16.882812 24.25 -13.25 C 24.25 -9.625 22.96875 -6.515625 20.40625 -3.921875 C 17.84375 -1.328125 14.742188 -0.03125 11.109375 -0.03125 L 4.5625 -0.03125 C 3.113281 -0.03125 2.210938 -0.328125 1.859375 -0.921875 C 1.566406 -1.421875 1.421875 -2.1875 1.421875 -3.21875 L 1.421875 -23.0625 C 1.421875 -23.632812 1.4375 -24.050781 1.46875 -24.3125 C 1.507812 -24.570312 1.628906 -24.878906 1.828125 -25.234375 C 2.160156 -25.878906 3.085938 -26.203125 4.609375 -26.203125 Z M 11.203125 -6.359375 C 12.921875 -6.359375 14.46875 -6.992188 15.84375 -8.265625 C 17.226562 -9.535156 17.921875 -11.132812 17.921875 -13.0625 C 17.921875 -14.988281 17.25 -16.597656 15.90625 -17.890625 C 14.5625 -19.191406 12.984375 -19.84375 11.171875 -19.84375 L 7.75 -19.84375 L 7.75 -6.359375 Z M 11.203125 -6.359375 "/></g></g></g><g fill="#ffffff" fill-opacity="1"><g transform="translate(288.834241, 253.911168)"><g><path d="M 18.953125 -6.109375 C 19.878906 -6.109375 20.550781 -5.992188 20.96875 -5.765625 C 21.382812 -5.535156 21.671875 -5.207031 21.828125 -4.78125 C 21.984375 -4.351562 22.0625 -3.804688 22.0625 -3.140625 C 22.0625 -2.472656 22 -1.9375 21.875 -1.53125 C 21.757812 -1.125 21.617188 -0.8125 21.453125 -0.59375 C 21.285156 -0.382812 21.035156 -0.234375 20.703125 -0.140625 C 20.328125 0.00390625 19.722656 0.078125 18.890625 0.078125 L 4.03125 0.078125 C 3.488281 0.078125 2.96875 -0.0664062 2.46875 -0.359375 C 1.414062 -0.953125 0.890625 -1.890625 0.890625 -3.171875 C 0.890625 -3.796875 1.035156 -4.296875 1.328125 -4.671875 L 12.390625 -20 L 4.171875 -20 C 3.609375 -20 3.1875 -20.015625 2.90625 -20.046875 C 2.632812 -20.078125 2.304688 -20.175781 1.921875 -20.34375 C 1.234375 -20.675781 0.890625 -21.570312 0.890625 -23.03125 C 0.890625 -24.550781 1.210938 -25.476562 1.859375 -25.8125 C 2.210938 -26 2.523438 -26.109375 2.796875 -26.140625 C 3.078125 -26.179688 3.5 -26.203125 4.0625 -26.203125 L 18.421875 -26.203125 C 18.972656 -26.203125 19.5 -26.054688 20 -25.765625 C 20.5 -25.484375 20.882812 -25.101562 21.15625 -24.625 C 21.425781 -24.15625 21.5625 -23.597656 21.5625 -22.953125 C 21.5625 -22.316406 21.421875 -21.804688 21.140625 -21.421875 L 10.0625 -6.109375 Z M 18.953125 -6.109375 "/></g></g></g><g clip-path="url(#2d9e4dc635)"><path fill="#0098da" d="M 181.1875 167.085938 C 177.628906 171.488281 176.96875 177.566406 179.496094 182.628906 C 177.15625 180.574219 175.964844 177.511719 176.304688 174.417969 C 176.640625 171.324219 178.460938 168.589844 181.1875 167.085938 M 163.933594 191.8125 C 157.015625 182.015625 156.828125 168.070312 165.449219 157.839844 L 157.148438 149.539062 C 143.59375 164.824219 143.703125 189.65625 158.648438 204.007812 C 186.851562 231.101562 217.699219 201.570312 208.894531 177.019531 C 205.015625 166.203125 190.613281 156.425781 182.441406 148.253906 C 183.847656 148.035156 185.289062 147.921875 186.761719 147.921875 C 213.917969 147.921875 225.175781 182.457031 214.042969 204.417969 C 221.605469 197.214844 226.316406 187.042969 226.316406 175.773438 C 226.316406 153.925781 208.605469 136.210938 186.757812 136.210938 C 181.882812 136.210938 177.210938 137.09375 172.894531 138.710938 L 172.71875 138.535156 C 158.476562 120.867188 211.988281 135.183594 216.613281 96.179688 C 204.335938 120.117188 122.191406 100.417969 148.351562 126.578125 L 164.699219 142.929688 L 181.207031 159.4375 C 174.402344 161.746094 169.507812 168.1875 169.507812 175.773438 C 169.507812 195.640625 201.492188 200.773438 196.867188 178.554688 C 208.460938 198.304688 179.441406 213.769531 163.933594 191.8125 Z M 163.933594 191.8125 " fill-opacity="1" fill-rule="evenodd"/></g><g clip-path="url(#6bbfd16133)"><path fill="#0098da" d="M 50.894531 226.378906 C 46.660156 226.378906 43.253906 229.566406 43.253906 233.523438 L 43.253906 248.257812 C 43.253906 252.21875 46.660156 255.40625 50.894531 255.40625 L 80.527344 255.40625 C 84.757812 255.40625 88.164062 252.21875 88.164062 248.257812 L 88.164062 233.523438 C 88.164062 229.566406 84.757812 226.378906 80.527344 226.378906 Z M 60.007812 232.105469 L 75.074219 240.75 L 75.234375 240.882812 L 60.214844 249.605469 L 60.019531 249.679688 L 59.972656 232.308594 Z M 60.007812 232.105469 " fill-opacity="1" fill-rule="nonzero"/></g><g fill="#0098da" fill-opacity="1"><g transform="translate(108.517453, 275.986396)"><g><path d="M 4.53125 -4.75 L 6.421875 -4.75 C 6.804688 -4.726562 7.039062 -4.625 7.125 -4.4375 C 7.195312 -4.300781 7.234375 -4.101562 7.234375 -3.84375 L 7.234375 -1.484375 C 7.234375 -1.253906 7.132812 -1.035156 6.9375 -0.828125 C 6.332031 -0.203125 5.429688 0.109375 4.234375 0.109375 C 3.160156 0.109375 2.226562 -0.289062 1.4375 -1.09375 C 0.65625 -1.90625 0.265625 -2.878906 0.265625 -4.015625 C 0.265625 -5.148438 0.664062 -6.097656 1.46875 -6.859375 C 2.269531 -7.617188 3.210938 -8 4.296875 -8 C 5.148438 -8 5.953125 -7.722656 6.703125 -7.171875 C 6.890625 -7.023438 6.984375 -6.863281 6.984375 -6.6875 C 6.984375 -6.519531 6.898438 -6.320312 6.734375 -6.09375 C 6.460938 -5.707031 6.210938 -5.515625 5.984375 -5.515625 C 5.847656 -5.515625 5.628906 -5.613281 5.328125 -5.8125 C 5.023438 -6.007812 4.664062 -6.109375 4.25 -6.109375 C 3.707031 -6.109375 3.222656 -5.914062 2.796875 -5.53125 C 2.378906 -5.144531 2.171875 -4.644531 2.171875 -4.03125 C 2.171875 -3.414062 2.382812 -2.890625 2.8125 -2.453125 C 3.238281 -2.015625 3.722656 -1.796875 4.265625 -1.796875 C 4.660156 -1.796875 5.015625 -1.863281 5.328125 -2 L 5.328125 -3.171875 L 4.484375 -3.171875 C 4.265625 -3.171875 4.109375 -3.195312 4.015625 -3.25 C 3.921875 -3.3125 3.859375 -3.394531 3.828125 -3.5 C 3.804688 -3.613281 3.796875 -3.765625 3.796875 -3.953125 C 3.796875 -4.140625 3.8125 -4.289062 3.84375 -4.40625 C 3.875 -4.519531 3.929688 -4.597656 4.015625 -4.640625 C 4.140625 -4.710938 4.3125 -4.75 4.53125 -4.75 Z M 4.53125 -4.75 "/></g></g></g><g fill="#0098da" fill-opacity="1"><g transform="translate(119.942902, 275.986396)"><g><path d="M 0.421875 -6.921875 C 0.421875 -7.085938 0.425781 -7.210938 0.4375 -7.296875 C 0.457031 -7.378906 0.492188 -7.472656 0.546875 -7.578125 C 0.648438 -7.773438 0.929688 -7.875 1.390625 -7.875 C 1.890625 -7.875 2.1875 -7.738281 2.28125 -7.46875 C 2.3125 -7.34375 2.328125 -7.15625 2.328125 -6.90625 L 2.328125 -0.9375 C 2.328125 -0.769531 2.320312 -0.644531 2.3125 -0.5625 C 2.300781 -0.488281 2.269531 -0.398438 2.21875 -0.296875 C 2.113281 -0.0976562 1.832031 0 1.375 0 C 0.875 0 0.582031 -0.132812 0.5 -0.40625 C 0.445312 -0.519531 0.421875 -0.703125 0.421875 -0.953125 Z M 0.421875 -6.921875 "/></g></g></g><g fill="#0098da" fill-opacity="1"><g transform="translate(126.462181, 275.986396)"><g><path d="M 7.609375 -7.75 C 8.035156 -7.539062 8.25 -7.3125 8.25 -7.0625 C 8.25 -6.945312 8.191406 -6.773438 8.078125 -6.546875 L 5.125 -0.53125 C 5.039062 -0.375 4.914062 -0.25 4.75 -0.15625 C 4.59375 -0.0625 4.429688 -0.015625 4.265625 -0.015625 L 4.15625 -0.015625 C 3.976562 -0.015625 3.804688 -0.0625 3.640625 -0.15625 C 3.484375 -0.25 3.363281 -0.375 3.28125 -0.53125 L 0.328125 -6.546875 C 0.210938 -6.773438 0.15625 -6.945312 0.15625 -7.0625 C 0.15625 -7.3125 0.367188 -7.539062 0.796875 -7.75 C 1.035156 -7.875 1.21875 -7.9375 1.34375 -7.9375 C 1.46875 -7.9375 1.5625 -7.921875 1.625 -7.890625 C 1.6875 -7.859375 1.742188 -7.804688 1.796875 -7.734375 C 1.867188 -7.648438 1.929688 -7.554688 1.984375 -7.453125 C 2.035156 -7.347656 2.171875 -7.050781 2.390625 -6.5625 C 2.609375 -6.070312 2.84375 -5.550781 3.09375 -5 C 3.351562 -4.445312 3.597656 -3.925781 3.828125 -3.4375 C 4.054688 -2.945312 4.179688 -2.675781 4.203125 -2.625 L 6.359375 -7.328125 C 6.410156 -7.460938 6.457031 -7.566406 6.5 -7.640625 C 6.632812 -7.835938 6.789062 -7.9375 6.96875 -7.9375 C 7.15625 -7.9375 7.367188 -7.875 7.609375 -7.75 Z M 7.609375 -7.75 "/></g></g></g><g fill="#0098da" fill-opacity="1"><g transform="translate(138.628388, 275.986396)"><g><path d="M 2.328125 -1.90625 L 5.640625 -1.90625 C 5.796875 -1.90625 5.914062 -1.898438 6 -1.890625 C 6.082031 -1.878906 6.179688 -1.84375 6.296875 -1.78125 C 6.484375 -1.675781 6.578125 -1.394531 6.578125 -0.9375 C 6.578125 -0.4375 6.445312 -0.144531 6.1875 -0.0625 C 6.0625 -0.0195312 5.875 0 5.625 0 L 1.375 0 C 0.875 0 0.582031 -0.132812 0.5 -0.40625 C 0.445312 -0.519531 0.421875 -0.703125 0.421875 -0.953125 L 0.421875 -6.921875 C 0.421875 -7.285156 0.488281 -7.535156 0.625 -7.671875 C 0.769531 -7.804688 1.03125 -7.875 1.40625 -7.875 L 5.640625 -7.875 C 5.796875 -7.875 5.914062 -7.867188 6 -7.859375 C 6.082031 -7.847656 6.179688 -7.8125 6.296875 -7.75 C 6.484375 -7.644531 6.578125 -7.363281 6.578125 -6.90625 C 6.578125 -6.40625 6.445312 -6.113281 6.1875 -6.03125 C 6.0625 -5.988281 5.875 -5.96875 5.625 -5.96875 L 2.328125 -5.96875 L 2.328125 -4.890625 L 4.453125 -4.890625 C 4.617188 -4.890625 4.742188 -4.882812 4.828125 -4.875 C 4.910156 -4.863281 5.003906 -4.828125 5.109375 -4.765625 C 5.304688 -4.660156 5.40625 -4.378906 5.40625 -3.921875 C 5.40625 -3.421875 5.265625 -3.128906 4.984375 -3.046875 C 4.867188 -3.003906 4.6875 -2.984375 4.4375 -2.984375 L 2.328125 -2.984375 Z M 2.328125 -1.90625 "/></g></g></g><g fill="#0098da" fill-opacity="1"><g transform="translate(149.237938, 275.986396)"><g/></g></g><g fill="#0098da" fill-opacity="1"><g transform="translate(155.714281, 275.986396)"><g><path d="M 6.671875 -7.71875 C 7.023438 -7.476562 7.203125 -7.242188 7.203125 -7.015625 C 7.203125 -6.878906 7.117188 -6.6875 6.953125 -6.4375 L 4.640625 -2.96875 L 4.640625 -0.921875 C 4.640625 -0.753906 4.632812 -0.628906 4.625 -0.546875 C 4.613281 -0.460938 4.578125 -0.367188 4.515625 -0.265625 C 4.460938 -0.160156 4.367188 -0.0859375 4.234375 -0.046875 C 4.097656 -0.00390625 3.914062 0.015625 3.6875 0.015625 C 3.457031 0.015625 3.273438 -0.00390625 3.140625 -0.046875 C 3.003906 -0.0859375 2.90625 -0.160156 2.84375 -0.265625 C 2.789062 -0.378906 2.753906 -0.476562 2.734375 -0.5625 C 2.722656 -0.644531 2.71875 -0.769531 2.71875 -0.9375 L 2.71875 -2.96875 L 0.40625 -6.4375 C 0.238281 -6.6875 0.15625 -6.878906 0.15625 -7.015625 C 0.15625 -7.242188 0.3125 -7.460938 0.625 -7.671875 C 0.945312 -7.878906 1.175781 -7.984375 1.3125 -7.984375 C 1.445312 -7.984375 1.550781 -7.957031 1.625 -7.90625 C 1.75 -7.820312 1.878906 -7.671875 2.015625 -7.453125 L 3.6875 -4.796875 L 5.34375 -7.453125 C 5.476562 -7.671875 5.59375 -7.8125 5.6875 -7.875 C 5.789062 -7.945312 5.910156 -7.984375 6.046875 -7.984375 C 6.179688 -7.984375 6.390625 -7.894531 6.671875 -7.71875 Z M 6.671875 -7.71875 "/></g></g></g><g fill="#0098da" fill-opacity="1"><g transform="translate(166.839133, 275.986396)"><g><path d="M 4.125 -7.96875 C 5.175781 -7.96875 6.09375 -7.582031 6.875 -6.8125 C 7.65625 -6.050781 8.046875 -5.101562 8.046875 -3.96875 C 8.046875 -2.832031 7.671875 -1.863281 6.921875 -1.0625 C 6.179688 -0.269531 5.269531 0.125 4.1875 0.125 C 3.101562 0.125 2.175781 -0.265625 1.40625 -1.046875 C 0.644531 -1.835938 0.265625 -2.773438 0.265625 -3.859375 C 0.265625 -4.453125 0.367188 -5.007812 0.578125 -5.53125 C 0.796875 -6.050781 1.082031 -6.484375 1.4375 -6.828125 C 1.800781 -7.179688 2.210938 -7.457031 2.671875 -7.65625 C 3.140625 -7.863281 3.625 -7.96875 4.125 -7.96875 Z M 2.171875 -3.921875 C 2.171875 -3.285156 2.375 -2.765625 2.78125 -2.359375 C 3.195312 -1.960938 3.65625 -1.765625 4.15625 -1.765625 C 4.664062 -1.765625 5.125 -1.957031 5.53125 -2.34375 C 5.945312 -2.738281 6.15625 -3.257812 6.15625 -3.90625 C 6.15625 -4.5625 5.945312 -5.082031 5.53125 -5.46875 C 5.125 -5.863281 4.664062 -6.0625 4.15625 -6.0625 C 3.644531 -6.0625 3.1875 -5.863281 2.78125 -5.46875 C 2.375 -5.070312 2.171875 -4.554688 2.171875 -3.921875 Z M 2.171875 -3.921875 "/></g></g></g><g fill="#0098da" fill-opacity="1"><g transform="translate(178.919458, 275.986396)"><g><path d="M 5.5625 -7.578125 C 5.632812 -7.691406 5.738281 -7.769531 5.875 -7.8125 C 6.019531 -7.851562 6.191406 -7.875 6.390625 -7.875 C 6.597656 -7.875 6.757812 -7.851562 6.875 -7.8125 C 7 -7.78125 7.09375 -7.738281 7.15625 -7.6875 C 7.21875 -7.644531 7.265625 -7.570312 7.296875 -7.46875 C 7.335938 -7.34375 7.359375 -7.15625 7.359375 -6.90625 L 7.359375 -3.671875 C 7.359375 -2.722656 7.066406 -1.863281 6.484375 -1.09375 C 6.191406 -0.726562 5.820312 -0.429688 5.375 -0.203125 C 4.925781 0.015625 4.425781 0.125 3.875 0.125 C 3.332031 0.125 2.835938 0.0078125 2.390625 -0.21875 C 1.941406 -0.445312 1.578125 -0.742188 1.296875 -1.109375 C 0.710938 -1.867188 0.421875 -2.726562 0.421875 -3.6875 L 0.421875 -6.921875 C 0.421875 -7.097656 0.425781 -7.222656 0.4375 -7.296875 C 0.457031 -7.378906 0.492188 -7.472656 0.546875 -7.578125 C 0.609375 -7.691406 0.707031 -7.769531 0.84375 -7.8125 C 0.976562 -7.851562 1.160156 -7.875 1.390625 -7.875 C 1.617188 -7.875 1.800781 -7.851562 1.9375 -7.8125 C 2.070312 -7.769531 2.164062 -7.695312 2.21875 -7.59375 C 2.300781 -7.425781 2.34375 -7.195312 2.34375 -6.90625 L 2.34375 -3.6875 C 2.34375 -3.25 2.445312 -2.835938 2.65625 -2.453125 C 2.769531 -2.242188 2.929688 -2.078125 3.140625 -1.953125 C 3.359375 -1.835938 3.613281 -1.78125 3.90625 -1.78125 C 4.425781 -1.78125 4.816406 -1.972656 5.078125 -2.359375 C 5.335938 -2.742188 5.46875 -3.191406 5.46875 -3.703125 L 5.46875 -6.984375 C 5.46875 -7.265625 5.5 -7.460938 5.5625 -7.578125 Z M 5.5625 -7.578125 "/></g></g></g><g fill="#0098da" fill-opacity="1"><g transform="translate(190.473733, 275.986396)"><g><path d="M 6.453125 -1.328125 C 6.554688 -1.066406 6.609375 -0.878906 6.609375 -0.765625 C 6.609375 -0.492188 6.390625 -0.265625 5.953125 -0.078125 C 5.722656 0.015625 5.535156 0.0625 5.390625 0.0625 C 5.253906 0.0625 5.140625 0.03125 5.046875 -0.03125 C 4.960938 -0.101562 4.898438 -0.175781 4.859375 -0.25 C 4.785156 -0.382812 4.503906 -1.03125 4.015625 -2.1875 L 3.6875 -2.171875 L 2.328125 -2.171875 L 2.328125 -0.953125 C 2.328125 -0.785156 2.320312 -0.660156 2.3125 -0.578125 C 2.300781 -0.503906 2.269531 -0.410156 2.21875 -0.296875 C 2.113281 -0.109375 1.832031 -0.015625 1.375 -0.015625 C 0.875 -0.015625 0.582031 -0.144531 0.5 -0.40625 C 0.445312 -0.53125 0.421875 -0.71875 0.421875 -0.96875 L 0.421875 -6.921875 C 0.421875 -7.085938 0.425781 -7.210938 0.4375 -7.296875 C 0.457031 -7.378906 0.492188 -7.472656 0.546875 -7.578125 C 0.648438 -7.773438 0.929688 -7.875 1.390625 -7.875 L 3.703125 -7.875 C 4.328125 -7.875 4.9375 -7.644531 5.53125 -7.1875 C 5.820312 -6.957031 6.0625 -6.648438 6.25 -6.265625 C 6.4375 -5.890625 6.53125 -5.472656 6.53125 -5.015625 C 6.53125 -4.203125 6.257812 -3.535156 5.71875 -3.015625 C 5.875 -2.640625 6.117188 -2.078125 6.453125 -1.328125 Z M 2.328125 -4.0625 L 3.703125 -4.0625 C 3.910156 -4.0625 4.117188 -4.140625 4.328125 -4.296875 C 4.535156 -4.460938 4.640625 -4.703125 4.640625 -5.015625 C 4.640625 -5.328125 4.535156 -5.5625 4.328125 -5.71875 C 4.117188 -5.882812 3.90625 -5.96875 3.6875 -5.96875 L 2.328125 -5.96875 Z M 2.328125 -4.0625 "/></g></g></g><g fill="#0098da" fill-opacity="1"><g transform="translate(201.008133, 275.986396)"><g/></g></g><g fill="#0098da" fill-opacity="1"><g transform="translate(207.484476, 275.986396)"><g><path d="M 0.9375 -7.875 L 6.90625 -7.875 C 7.132812 -7.875 7.300781 -7.847656 7.40625 -7.796875 C 7.519531 -7.742188 7.59375 -7.660156 7.625 -7.546875 C 7.664062 -7.429688 7.6875 -7.28125 7.6875 -7.09375 C 7.6875 -6.90625 7.664062 -6.753906 7.625 -6.640625 C 7.59375 -6.535156 7.535156 -6.460938 7.453125 -6.421875 C 7.316406 -6.359375 7.132812 -6.328125 6.90625 -6.328125 L 4.859375 -6.328125 L 4.859375 -0.921875 C 4.859375 -0.753906 4.847656 -0.628906 4.828125 -0.546875 C 4.816406 -0.472656 4.785156 -0.382812 4.734375 -0.28125 C 4.679688 -0.175781 4.585938 -0.101562 4.453125 -0.0625 C 4.316406 -0.0195312 4.132812 0 3.90625 0 C 3.6875 0 3.507812 -0.0195312 3.375 -0.0625 C 3.25 -0.101562 3.160156 -0.175781 3.109375 -0.28125 C 3.054688 -0.382812 3.023438 -0.476562 3.015625 -0.5625 C 3.003906 -0.644531 3 -0.769531 3 -0.9375 L 3 -6.328125 L 0.9375 -6.328125 C 0.707031 -6.328125 0.535156 -6.351562 0.421875 -6.40625 C 0.316406 -6.457031 0.242188 -6.539062 0.203125 -6.65625 C 0.171875 -6.769531 0.15625 -6.921875 0.15625 -7.109375 C 0.15625 -7.296875 0.171875 -7.441406 0.203125 -7.546875 C 0.242188 -7.660156 0.304688 -7.738281 0.390625 -7.78125 C 0.523438 -7.84375 0.707031 -7.875 0.9375 -7.875 Z M 0.9375 -7.875 "/></g></g></g><g fill="#0098da" fill-opacity="1"><g transform="translate(219.092437, 275.986396)"><g><path d="M 4.96875 -7.3125 L 7.875 -1.328125 C 7.988281 -1.078125 8.046875 -0.890625 8.046875 -0.765625 C 8.046875 -0.515625 7.835938 -0.285156 7.421875 -0.078125 C 7.179688 0.046875 6.988281 0.109375 6.84375 0.109375 C 6.707031 0.109375 6.59375 0.078125 6.5 0.015625 C 6.414062 -0.046875 6.351562 -0.113281 6.3125 -0.1875 C 6.28125 -0.257812 6.226562 -0.367188 6.15625 -0.515625 L 5.59375 -1.671875 L 2.625 -1.671875 L 2.0625 -0.515625 C 1.988281 -0.367188 1.929688 -0.265625 1.890625 -0.203125 C 1.847656 -0.140625 1.78125 -0.0703125 1.6875 0 C 1.601562 0.0625 1.492188 0.09375 1.359375 0.09375 C 1.222656 0.09375 1.03125 0.0351562 0.78125 -0.078125 C 0.363281 -0.285156 0.15625 -0.515625 0.15625 -0.765625 C 0.15625 -0.890625 0.21875 -1.078125 0.34375 -1.328125 L 3.234375 -7.328125 C 3.316406 -7.484375 3.4375 -7.613281 3.59375 -7.71875 C 3.757812 -7.820312 3.929688 -7.875 4.109375 -7.875 C 4.492188 -7.875 4.78125 -7.6875 4.96875 -7.3125 Z M 4.09375 -4.734375 L 3.390625 -3.265625 L 4.8125 -3.265625 Z M 4.09375 -4.734375 "/></g></g></g><g fill="#0098da" fill-opacity="1"><g transform="translate(231.065409, 275.986396)"><g><path d="M 6.03125 -4.21875 C 6.457031 -3.71875 6.671875 -3.15625 6.671875 -2.53125 C 6.648438 -1.8125 6.398438 -1.210938 5.921875 -0.734375 C 5.453125 -0.253906 4.878906 -0.015625 4.203125 -0.015625 L 1.375 -0.015625 C 0.875 -0.015625 0.582031 -0.148438 0.5 -0.421875 C 0.445312 -0.535156 0.421875 -0.722656 0.421875 -0.984375 L 0.421875 -6.9375 C 0.421875 -7.101562 0.425781 -7.222656 0.4375 -7.296875 C 0.457031 -7.378906 0.492188 -7.476562 0.546875 -7.59375 C 0.648438 -7.78125 0.929688 -7.875 1.390625 -7.875 L 4.09375 -7.875 C 4.75 -7.875 5.300781 -7.644531 5.75 -7.1875 C 6.207031 -6.726562 6.4375 -6.171875 6.4375 -5.515625 C 6.4375 -5.046875 6.300781 -4.613281 6.03125 -4.21875 Z M 4.765625 -2.640625 C 4.765625 -2.804688 4.742188 -2.941406 4.703125 -3.046875 C 4.660156 -3.148438 4.597656 -3.222656 4.515625 -3.265625 C 4.367188 -3.316406 4.164062 -3.34375 3.90625 -3.34375 C 3.644531 -3.34375 3.453125 -3.394531 3.328125 -3.5 C 3.203125 -3.601562 3.140625 -3.804688 3.140625 -4.109375 C 3.140625 -4.421875 3.203125 -4.628906 3.328125 -4.734375 C 3.460938 -4.835938 3.6875 -4.890625 4 -4.890625 C 4.28125 -4.890625 4.453125 -4.960938 4.515625 -5.109375 C 4.535156 -5.191406 4.546875 -5.320312 4.546875 -5.5 C 4.546875 -5.675781 4.484375 -5.800781 4.359375 -5.875 C 4.242188 -5.945312 4.066406 -5.984375 3.828125 -5.984375 L 2.328125 -5.984375 L 2.328125 -1.90625 L 4.09375 -1.90625 C 4.539062 -1.90625 4.765625 -2.148438 4.765625 -2.640625 Z M 4.765625 -2.640625 "/></g></g></g><g fill="#0098da" fill-opacity="1"><g transform="translate(241.760842, 275.986396)"><g><path d="M 0.546875 -1.109375 C 0.359375 -1.335938 0.265625 -1.539062 0.265625 -1.71875 C 0.265625 -1.90625 0.421875 -2.148438 0.734375 -2.453125 C 0.910156 -2.617188 1.097656 -2.703125 1.296875 -2.703125 C 1.492188 -2.703125 1.773438 -2.523438 2.140625 -2.171875 C 2.234375 -2.046875 2.375 -1.925781 2.5625 -1.8125 C 2.75 -1.707031 2.921875 -1.65625 3.078125 -1.65625 C 3.742188 -1.65625 4.078125 -1.925781 4.078125 -2.46875 C 4.078125 -2.632812 3.984375 -2.769531 3.796875 -2.875 C 3.617188 -2.988281 3.394531 -3.070312 3.125 -3.125 C 2.851562 -3.175781 2.554688 -3.253906 2.234375 -3.359375 C 1.921875 -3.472656 1.628906 -3.601562 1.359375 -3.75 C 1.085938 -3.90625 0.859375 -4.144531 0.671875 -4.46875 C 0.492188 -4.789062 0.40625 -5.179688 0.40625 -5.640625 C 0.40625 -6.273438 0.640625 -6.828125 1.109375 -7.296875 C 1.578125 -7.765625 2.21875 -8 3.03125 -8 C 3.457031 -8 3.847656 -7.941406 4.203125 -7.828125 C 4.554688 -7.722656 4.800781 -7.613281 4.9375 -7.5 L 5.203125 -7.28125 C 5.421875 -7.082031 5.53125 -6.910156 5.53125 -6.765625 C 5.53125 -6.617188 5.445312 -6.421875 5.28125 -6.171875 C 5.039062 -5.816406 4.789062 -5.640625 4.53125 -5.640625 C 4.375 -5.640625 4.1875 -5.707031 3.96875 -5.84375 C 3.945312 -5.863281 3.90625 -5.898438 3.84375 -5.953125 C 3.78125 -6.015625 3.726562 -6.0625 3.6875 -6.09375 C 3.53125 -6.1875 3.335938 -6.234375 3.109375 -6.234375 C 2.878906 -6.234375 2.6875 -6.175781 2.53125 -6.0625 C 2.375 -5.957031 2.296875 -5.804688 2.296875 -5.609375 C 2.296875 -5.410156 2.382812 -5.25 2.5625 -5.125 C 2.75 -5.007812 2.976562 -4.925781 3.25 -4.875 C 3.519531 -4.832031 3.816406 -4.765625 4.140625 -4.671875 C 4.460938 -4.585938 4.757812 -4.484375 5.03125 -4.359375 C 5.300781 -4.234375 5.523438 -4.007812 5.703125 -3.6875 C 5.890625 -3.363281 5.984375 -2.96875 5.984375 -2.5 C 5.984375 -2.039062 5.890625 -1.632812 5.703125 -1.28125 C 5.523438 -0.925781 5.285156 -0.65625 4.984375 -0.46875 C 4.398438 -0.0820312 3.78125 0.109375 3.125 0.109375 C 2.789062 0.109375 2.472656 0.0664062 2.171875 -0.015625 C 1.867188 -0.0976562 1.625 -0.203125 1.4375 -0.328125 C 1.0625 -0.554688 0.796875 -0.773438 0.640625 -0.984375 Z M 0.546875 -1.109375 "/></g></g></g><g fill="#0098da" fill-opacity="1"><g transform="translate(251.779931, 275.986396)"><g/></g></g><g fill="#0098da" fill-opacity="1"><g transform="translate(258.256266, 275.986396)"><g><path d="M 4.96875 -7.3125 L 7.875 -1.328125 C 7.988281 -1.078125 8.046875 -0.890625 8.046875 -0.765625 C 8.046875 -0.515625 7.835938 -0.285156 7.421875 -0.078125 C 7.179688 0.046875 6.988281 0.109375 6.84375 0.109375 C 6.707031 0.109375 6.59375 0.078125 6.5 0.015625 C 6.414062 -0.046875 6.351562 -0.113281 6.3125 -0.1875 C 6.28125 -0.257812 6.226562 -0.367188 6.15625 -0.515625 L 5.59375 -1.671875 L 2.625 -1.671875 L 2.0625 -0.515625 C 1.988281 -0.367188 1.929688 -0.265625 1.890625 -0.203125 C 1.847656 -0.140625 1.78125 -0.0703125 1.6875 0 C 1.601562 0.0625 1.492188 0.09375 1.359375 0.09375 C 1.222656 0.09375 1.03125 0.0351562 0.78125 -0.078125 C 0.363281 -0.285156 0.15625 -0.515625 0.15625 -0.765625 C 0.15625 -0.890625 0.21875 -1.078125 0.34375 -1.328125 L 3.234375 -7.328125 C 3.316406 -7.484375 3.4375 -7.613281 3.59375 -7.71875 C 3.757812 -7.820312 3.929688 -7.875 4.109375 -7.875 C 4.492188 -7.875 4.78125 -7.6875 4.96875 -7.3125 Z M 4.09375 -4.734375 L 3.390625 -3.265625 L 4.8125 -3.265625 Z M 4.09375 -4.734375 "/></g></g></g><g fill="#0098da" fill-opacity="1"><g transform="translate(161.558568, 290.70137)"><g><path d="M 0.546875 -1.109375 C 0.359375 -1.335938 0.265625 -1.539062 0.265625 -1.71875 C 0.265625 -1.90625 0.421875 -2.148438 0.734375 -2.453125 C 0.910156 -2.617188 1.097656 -2.703125 1.296875 -2.703125 C 1.492188 -2.703125 1.773438 -2.523438 2.140625 -2.171875 C 2.234375 -2.046875 2.375 -1.925781 2.5625 -1.8125 C 2.75 -1.707031 2.921875 -1.65625 3.078125 -1.65625 C 3.742188 -1.65625 4.078125 -1.925781 4.078125 -2.46875 C 4.078125 -2.632812 3.984375 -2.769531 3.796875 -2.875 C 3.617188 -2.988281 3.394531 -3.070312 3.125 -3.125 C 2.851562 -3.175781 2.554688 -3.253906 2.234375 -3.359375 C 1.921875 -3.472656 1.628906 -3.601562 1.359375 -3.75 C 1.085938 -3.90625 0.859375 -4.144531 0.671875 -4.46875 C 0.492188 -4.789062 0.40625 -5.179688 0.40625 -5.640625 C 0.40625 -6.273438 0.640625 -6.828125 1.109375 -7.296875 C 1.578125 -7.765625 2.21875 -8 3.03125 -8 C 3.457031 -8 3.847656 -7.941406 4.203125 -7.828125 C 4.554688 -7.722656 4.800781 -7.613281 4.9375 -7.5 L 5.203125 -7.28125 C 5.421875 -7.082031 5.53125 -6.910156 5.53125 -6.765625 C 5.53125 -6.617188 5.445312 -6.421875 5.28125 -6.171875 C 5.039062 -5.816406 4.789062 -5.640625 4.53125 -5.640625 C 4.375 -5.640625 4.1875 -5.707031 3.96875 -5.84375 C 3.945312 -5.863281 3.90625 -5.898438 3.84375 -5.953125 C 3.78125 -6.015625 3.726562 -6.0625 3.6875 -6.09375 C 3.53125 -6.1875 3.335938 -6.234375 3.109375 -6.234375 C 2.878906 -6.234375 2.6875 -6.175781 2.53125 -6.0625 C 2.375 -5.957031 2.296875 -5.804688 2.296875 -5.609375 C 2.296875 -5.410156 2.382812 -5.25 2.5625 -5.125 C 2.75 -5.007812 2.976562 -4.925781 3.25 -4.875 C 3.519531 -4.832031 3.816406 -4.765625 4.140625 -4.671875 C 4.460938 -4.585938 4.757812 -4.484375 5.03125 -4.359375 C 5.300781 -4.234375 5.523438 -4.007812 5.703125 -3.6875 C 5.890625 -3.363281 5.984375 -2.96875 5.984375 -2.5 C 5.984375 -2.039062 5.890625 -1.632812 5.703125 -1.28125 C 5.523438 -0.925781 5.285156 -0.65625 4.984375 -0.46875 C 4.398438 -0.0820312 3.78125 0.109375 3.125 0.109375 C 2.789062 0.109375 2.472656 0.0664062 2.171875 -0.015625 C 1.867188 -0.0976562 1.625 -0.203125 1.4375 -0.328125 C 1.0625 -0.554688 0.796875 -0.773438 0.640625 -0.984375 Z M 0.546875 -1.109375 "/></g></g></g><g fill="#0098da" fill-opacity="1"><g transform="translate(171.577656, 290.70137)"><g><path d="M 0.9375 -7.875 L 6.90625 -7.875 C 7.132812 -7.875 7.300781 -7.847656 7.40625 -7.796875 C 7.519531 -7.742188 7.59375 -7.660156 7.625 -7.546875 C 7.664062 -7.429688 7.6875 -7.28125 7.6875 -7.09375 C 7.6875 -6.90625 7.664062 -6.753906 7.625 -6.640625 C 7.59375 -6.535156 7.535156 -6.460938 7.453125 -6.421875 C 7.316406 -6.359375 7.132812 -6.328125 6.90625 -6.328125 L 4.859375 -6.328125 L 4.859375 -0.921875 C 4.859375 -0.753906 4.847656 -0.628906 4.828125 -0.546875 C 4.816406 -0.472656 4.785156 -0.382812 4.734375 -0.28125 C 4.679688 -0.175781 4.585938 -0.101562 4.453125 -0.0625 C 4.316406 -0.0195312 4.132812 0 3.90625 0 C 3.6875 0 3.507812 -0.0195312 3.375 -0.0625 C 3.25 -0.101562 3.160156 -0.175781 3.109375 -0.28125 C 3.054688 -0.382812 3.023438 -0.476562 3.015625 -0.5625 C 3.003906 -0.644531 3 -0.769531 3 -0.9375 L 3 -6.328125 L 0.9375 -6.328125 C 0.707031 -6.328125 0.535156 -6.351562 0.421875 -6.40625 C 0.316406 -6.457031 0.242188 -6.539062 0.203125 -6.65625 C 0.171875 -6.769531 0.15625 -6.921875 0.15625 -7.109375 C 0.15625 -7.296875 0.171875 -7.441406 0.203125 -7.546875 C 0.242188 -7.660156 0.304688 -7.738281 0.390625 -7.78125 C 0.523438 -7.84375 0.707031 -7.875 0.9375 -7.875 Z M 0.9375 -7.875 "/></g></g></g><g fill="#0098da" fill-opacity="1"><g transform="translate(183.185615, 290.70137)"><g><path d="M 4.96875 -7.3125 L 7.875 -1.328125 C 7.988281 -1.078125 8.046875 -0.890625 8.046875 -0.765625 C 8.046875 -0.515625 7.835938 -0.285156 7.421875 -0.078125 C 7.179688 0.046875 6.988281 0.109375 6.84375 0.109375 C 6.707031 0.109375 6.59375 0.078125 6.5 0.015625 C 6.414062 -0.046875 6.351562 -0.113281 6.3125 -0.1875 C 6.28125 -0.257812 6.226562 -0.367188 6.15625 -0.515625 L 5.59375 -1.671875 L 2.625 -1.671875 L 2.0625 -0.515625 C 1.988281 -0.367188 1.929688 -0.265625 1.890625 -0.203125 C 1.847656 -0.140625 1.78125 -0.0703125 1.6875 0 C 1.601562 0.0625 1.492188 0.09375 1.359375 0.09375 C 1.222656 0.09375 1.03125 0.0351562 0.78125 -0.078125 C 0.363281 -0.285156 0.15625 -0.515625 0.15625 -0.765625 C 0.15625 -0.890625 0.21875 -1.078125 0.34375 -1.328125 L 3.234375 -7.328125 C 3.316406 -7.484375 3.4375 -7.613281 3.59375 -7.71875 C 3.757812 -7.820312 3.929688 -7.875 4.109375 -7.875 C 4.492188 -7.875 4.78125 -7.6875 4.96875 -7.3125 Z M 4.09375 -4.734375 L 3.390625 -3.265625 L 4.8125 -3.265625 Z M 4.09375 -4.734375 "/></g></g></g><g fill="#0098da" fill-opacity="1"><g transform="translate(195.158585, 290.70137)"><g><path d="M 4.53125 -4.75 L 6.421875 -4.75 C 6.804688 -4.726562 7.039062 -4.625 7.125 -4.4375 C 7.195312 -4.300781 7.234375 -4.101562 7.234375 -3.84375 L 7.234375 -1.484375 C 7.234375 -1.253906 7.132812 -1.035156 6.9375 -0.828125 C 6.332031 -0.203125 5.429688 0.109375 4.234375 0.109375 C 3.160156 0.109375 2.226562 -0.289062 1.4375 -1.09375 C 0.65625 -1.90625 0.265625 -2.878906 0.265625 -4.015625 C 0.265625 -5.148438 0.664062 -6.097656 1.46875 -6.859375 C 2.269531 -7.617188 3.210938 -8 4.296875 -8 C 5.148438 -8 5.953125 -7.722656 6.703125 -7.171875 C 6.890625 -7.023438 6.984375 -6.863281 6.984375 -6.6875 C 6.984375 -6.519531 6.898438 -6.320312 6.734375 -6.09375 C 6.460938 -5.707031 6.210938 -5.515625 5.984375 -5.515625 C 5.847656 -5.515625 5.628906 -5.613281 5.328125 -5.8125 C 5.023438 -6.007812 4.664062 -6.109375 4.25 -6.109375 C 3.707031 -6.109375 3.222656 -5.914062 2.796875 -5.53125 C 2.378906 -5.144531 2.171875 -4.644531 2.171875 -4.03125 C 2.171875 -3.414062 2.382812 -2.890625 2.8125 -2.453125 C 3.238281 -2.015625 3.722656 -1.796875 4.265625 -1.796875 C 4.660156 -1.796875 5.015625 -1.863281 5.328125 -2 L 5.328125 -3.171875 L 4.484375 -3.171875 C 4.265625 -3.171875 4.109375 -3.195312 4.015625 -3.25 C 3.921875 -3.3125 3.859375 -3.394531 3.828125 -3.5 C 3.804688 -3.613281 3.796875 -3.765625 3.796875 -3.953125 C 3.796875 -4.140625 3.8125 -4.289062 3.84375 -4.40625 C 3.875 -4.519531 3.929688 -4.597656 4.015625 -4.640625 C 4.140625 -4.710938 4.3125 -4.75 4.53125 -4.75 Z M 4.53125 -4.75 "/></g></g></g><g fill="#0098da" fill-opacity="1"><g transform="translate(206.584035, 290.70137)"><g><path d="M 2.328125 -1.90625 L 5.640625 -1.90625 C 5.796875 -1.90625 5.914062 -1.898438 6 -1.890625 C 6.082031 -1.878906 6.179688 -1.84375 6.296875 -1.78125 C 6.484375 -1.675781 6.578125 -1.394531 6.578125 -0.9375 C 6.578125 -0.4375 6.445312 -0.144531 6.1875 -0.0625 C 6.0625 -0.0195312 5.875 0 5.625 0 L 1.375 0 C 0.875 0 0.582031 -0.132812 0.5 -0.40625 C 0.445312 -0.519531 0.421875 -0.703125 0.421875 -0.953125 L 0.421875 -6.921875 C 0.421875 -7.285156 0.488281 -7.535156 0.625 -7.671875 C 0.769531 -7.804688 1.03125 -7.875 1.40625 -7.875 L 5.640625 -7.875 C 5.796875 -7.875 5.914062 -7.867188 6 -7.859375 C 6.082031 -7.847656 6.179688 -7.8125 6.296875 -7.75 C 6.484375 -7.644531 6.578125 -7.363281 6.578125 -6.90625 C 6.578125 -6.40625 6.445312 -6.113281 6.1875 -6.03125 C 6.0625 -5.988281 5.875 -5.96875 5.625 -5.96875 L 2.328125 -5.96875 L 2.328125 -4.890625 L 4.453125 -4.890625 C 4.617188 -4.890625 4.742188 -4.882812 4.828125 -4.875 C 4.910156 -4.863281 5.003906 -4.828125 5.109375 -4.765625 C 5.304688 -4.660156 5.40625 -4.378906 5.40625 -3.921875 C 5.40625 -3.421875 5.265625 -3.128906 4.984375 -3.046875 C 4.867188 -3.003906 4.6875 -2.984375 4.4375 -2.984375 L 2.328125 -2.984375 Z M 2.328125 -1.90625 "/></g></g></g></svg>