<svg xmlns="http://www.w3.org/2000/svg" xmlns:xlink="http://www.w3.org/1999/xlink" width="500" zoomAndPan="magnify" viewBox="0 0 375 374.999991" height="500" preserveAspectRatio="xMidYMid meet" version="1.0"><defs><g/></defs><g fill="#100a09" fill-opacity="1"><g transform="translate(49.467178, 221.10407)"><g><path d="M 57 -58.796875 C 56.863281 -58.398438 56.734375 -58.066406 56.609375 -57.796875 C 56.535156 -56.929688 56.363281 -56.066406 56.09375 -55.203125 C 55.832031 -54.335938 55.300781 -53.640625 54.5 -53.109375 C 54.164062 -52.835938 53.671875 -52.640625 53.015625 -52.515625 C 52.742188 -52.242188 52.507812 -52.109375 52.3125 -52.109375 C 49.78125 -51.640625 47.25 -51.171875 44.71875 -50.703125 C 42.1875 -50.242188 39.660156 -49.847656 37.140625 -49.515625 C 37.140625 -47.316406 37.117188 -45.117188 37.078125 -42.921875 C 37.046875 -40.722656 37.03125 -38.53125 37.03125 -36.34375 C 37.03125 -33.28125 37.046875 -30.234375 37.078125 -27.203125 C 37.117188 -24.171875 37.140625 -21.125 37.140625 -18.0625 C 37.203125 -16.332031 37.265625 -14.585938 37.328125 -12.828125 C 37.398438 -11.066406 37.46875 -9.320312 37.53125 -7.59375 C 37.46875 -6.394531 37.285156 -5.242188 36.984375 -4.140625 C 36.679688 -3.046875 36.066406 -2.128906 35.140625 -1.390625 L 35.140625 -1.59375 C 35.203125 -2.332031 35.234375 -3.050781 35.234375 -3.75 C 35.234375 -4.445312 35.269531 -5.128906 35.34375 -5.796875 L 35.34375 -9.578125 C 35.144531 -8.710938 34.976562 -7.648438 34.84375 -6.390625 C 34.707031 -5.128906 34.472656 -4 34.140625 -3 C 33.804688 -1.925781 33.109375 -1.125 32.046875 -0.59375 C 30.984375 -0.0625 29.914062 0.0664062 28.84375 -0.203125 C 26.78125 -0.867188 25.414062 -2.179688 24.75 -4.140625 C 24.09375 -6.109375 23.695312 -8.054688 23.5625 -9.984375 C 23.425781 -12.515625 23.375 -15.078125 23.40625 -17.671875 C 23.4375 -20.265625 23.488281 -22.828125 23.5625 -25.359375 C 23.695312 -27.890625 23.847656 -30.453125 24.015625 -33.046875 C 24.179688 -35.640625 24.296875 -38.234375 24.359375 -40.828125 L 24.5625 -45.21875 L 24.5625 -48.421875 C 23.894531 -48.421875 23.242188 -48.421875 22.609375 -48.421875 C 21.972656 -48.421875 21.328125 -48.421875 20.671875 -48.421875 C 17.941406 -48.421875 15.273438 -48.519531 12.671875 -48.71875 C 11.609375 -48.851562 10.5625 -49.035156 9.53125 -49.265625 C 8.5 -49.492188 7.519531 -49.875 6.59375 -50.40625 C 5.925781 -50.875 5.304688 -51.441406 4.734375 -52.109375 C 4.171875 -52.773438 3.722656 -53.507812 3.390625 -54.3125 C 2.390625 -54.84375 1.640625 -55.65625 1.140625 -56.75 C 0.648438 -57.851562 0.535156 -59.003906 0.796875 -60.203125 C 1.128906 -61.191406 1.742188 -62.085938 2.640625 -62.890625 C 3.546875 -63.691406 4.53125 -64.023438 5.59375 -63.890625 C 8.320312 -63.617188 11.050781 -63.398438 13.78125 -63.234375 C 16.507812 -63.066406 19.238281 -62.984375 21.96875 -62.984375 C 21.96875 -63.054688 21.984375 -63.109375 22.015625 -63.140625 C 22.046875 -63.171875 22.0625 -63.222656 22.0625 -63.296875 C 16.664062 -63.628906 11.273438 -64.226562 5.890625 -65.09375 C 5.753906 -65.09375 5.703125 -65.191406 5.734375 -65.390625 C 5.773438 -65.585938 5.859375 -65.65625 5.984375 -65.59375 C 12.972656 -65.1875 19.960938 -65.050781 26.953125 -65.1875 C 33.941406 -65.320312 40.894531 -65.6875 47.8125 -66.28125 C 48.34375 -66.414062 48.875 -66.5 49.40625 -66.53125 C 49.945312 -66.5625 50.445312 -66.613281 50.90625 -66.6875 C 51.175781 -66.6875 51.457031 -66.703125 51.75 -66.734375 C 52.050781 -66.765625 52.335938 -66.75 52.609375 -66.6875 C 53.335938 -66.820312 54.082031 -66.921875 54.84375 -66.984375 C 55.613281 -67.046875 56.367188 -67.113281 57.109375 -67.1875 C 57.566406 -67.25 57.84375 -67 57.9375 -66.4375 C 58.039062 -65.875 57.828125 -65.523438 57.296875 -65.390625 C 56.960938 -65.390625 56.734375 -65.351562 56.609375 -65.28125 C 56.867188 -65.15625 57.066406 -65.023438 57.203125 -64.890625 C 58.335938 -64.222656 58.882812 -63.171875 58.84375 -61.734375 C 58.8125 -60.304688 58.195312 -59.328125 57 -58.796875 Z M 12.671875 -51.109375 C 14.410156 -50.972656 16.175781 -50.972656 17.96875 -51.109375 C 15.96875 -51.304688 13.96875 -51.585938 11.96875 -51.953125 C 9.976562 -52.328125 8.019531 -52.8125 6.09375 -53.40625 C 6.882812 -52.675781 7.878906 -52.128906 9.078125 -51.765625 C 10.273438 -51.398438 11.472656 -51.179688 12.671875 -51.109375 Z M 12.671875 -51.109375 "/></g></g></g><g fill="#100a09" fill-opacity="1"><g transform="translate(103.071923, 221.10407)"><g><path d="M 36.53125 -3 C 36.132812 -3.125 35.6875 -3.816406 35.1875 -5.078125 C 34.6875 -6.347656 34.15625 -7.914062 33.59375 -9.78125 C 33.03125 -11.644531 32.5 -13.570312 32 -15.5625 C 31.5 -17.5625 31.046875 -19.359375 30.640625 -20.953125 C 30.242188 -22.554688 29.976562 -23.722656 29.84375 -24.453125 L 22.0625 -24.359375 C 21.332031 -21.359375 20.695312 -18.378906 20.15625 -15.421875 C 19.625 -12.460938 19.226562 -9.453125 18.96875 -6.390625 C 18.96875 -5.785156 18.679688 -5.484375 18.109375 -5.484375 C 17.546875 -5.484375 17.300781 -5.785156 17.375 -6.390625 C 17.632812 -9.378906 18.015625 -12.390625 18.515625 -15.421875 C 19.015625 -18.453125 19.734375 -21.429688 20.671875 -24.359375 L 19.765625 -24.359375 C 19.429688 -23.160156 19.097656 -21.710938 18.765625 -20.015625 C 18.429688 -18.316406 18.113281 -16.648438 17.8125 -15.015625 C 17.519531 -13.390625 17.269531 -12.023438 17.0625 -10.921875 C 16.863281 -9.828125 16.765625 -9.28125 16.765625 -9.28125 L 16.171875 -4.796875 C 15.972656 -2.523438 15.207031 -0.894531 13.875 0.09375 C 12.539062 1.09375 11.078125 1.492188 9.484375 1.296875 C 7.890625 1.097656 6.539062 0.332031 5.4375 -1 C 4.34375 -2.332031 3.960938 -4.160156 4.296875 -6.484375 C 4.691406 -9.410156 5.15625 -12.335938 5.6875 -15.265625 C 6.21875 -18.203125 6.851562 -21.097656 7.59375 -23.953125 C 7.125 -23.890625 6.65625 -23.84375 6.1875 -23.8125 C 5.71875 -23.78125 5.285156 -23.765625 4.890625 -23.765625 C 5.023438 -24.097656 5.054688 -24.394531 4.984375 -24.65625 C 3.390625 -25.050781 2.226562 -25.914062 1.5 -27.25 C 0.769531 -28.582031 0.566406 -30.0625 0.890625 -31.6875 C 1.222656 -33.320312 2.15625 -34.820312 3.6875 -36.1875 C 5.21875 -37.550781 7.484375 -38.46875 10.484375 -38.9375 C 11.210938 -42.257812 12.007812 -45.535156 12.875 -48.765625 C 13.738281 -51.992188 14.804688 -55.140625 16.078125 -58.203125 C 16.671875 -59.535156 17.332031 -60.984375 18.0625 -62.546875 C 18.800781 -64.109375 19.71875 -65.46875 20.8125 -66.625 C 21.914062 -67.789062 23.296875 -68.375 24.953125 -68.375 C 25.816406 -68.445312 26.679688 -68.21875 27.546875 -67.6875 C 28.410156 -67.15625 29.046875 -66.488281 29.453125 -65.6875 C 30.910156 -65.625 32.125 -65.109375 33.09375 -64.140625 C 34.0625 -63.171875 34.609375 -61.890625 34.734375 -60.296875 C 34.867188 -58.296875 35.035156 -56.28125 35.234375 -54.25 C 35.429688 -52.226562 35.632812 -50.25 35.84375 -48.3125 C 35.90625 -48.25 35.96875 -48.21875 36.03125 -48.21875 C 36.101562 -49.945312 36.1875 -51.660156 36.28125 -53.359375 C 36.382812 -55.054688 36.535156 -56.738281 36.734375 -58.40625 C 36.734375 -58.664062 36.78125 -58.0625 36.875 -56.59375 C 36.976562 -55.132812 37.097656 -53.253906 37.234375 -50.953125 C 37.367188 -48.660156 37.5 -46.363281 37.625 -44.0625 C 37.757812 -41.769531 37.929688 -39.859375 38.140625 -38.328125 C 40.066406 -38.128906 41.5625 -37.476562 42.625 -36.375 C 43.6875 -35.28125 44.347656 -34.019531 44.609375 -32.59375 C 44.878906 -31.164062 44.75 -29.75 44.21875 -28.34375 C 43.6875 -26.945312 42.722656 -25.816406 41.328125 -24.953125 C 41.992188 -22.023438 42.691406 -18.710938 43.421875 -15.015625 C 44.148438 -11.328125 44.71875 -7.984375 45.125 -4.984375 C 45.382812 -2.722656 45.195312 -1.015625 44.5625 0.140625 C 43.9375 1.304688 43.109375 1.957031 42.078125 2.09375 C 41.046875 2.226562 40.015625 1.863281 38.984375 1 C 37.953125 0.132812 37.132812 -1.195312 36.53125 -3 Z M 21.765625 -37.328125 C 22.492188 -37.460938 23.441406 -37.546875 24.609375 -37.578125 C 25.773438 -37.617188 26.691406 -37.671875 27.359375 -37.734375 C 27.222656 -38.597656 27.070312 -39.828125 26.90625 -41.421875 C 26.738281 -43.023438 26.535156 -44.738281 26.296875 -46.5625 C 26.066406 -48.394531 25.785156 -50.078125 25.453125 -51.609375 C 24.660156 -48.816406 23.960938 -46.320312 23.359375 -44.125 C 22.765625 -41.925781 22.234375 -39.660156 21.765625 -37.328125 Z M 21.765625 -37.328125 "/></g></g></g><g fill="#100a09" fill-opacity="1"><g transform="translate(145.5962, 221.10407)"><g><path d="M 56.203125 -4.984375 C 55.804688 -3.585938 55.007812 -2.570312 53.8125 -1.9375 C 52.613281 -1.3125 51.28125 -0.929688 49.8125 -0.796875 C 48.351562 -0.660156 46.988281 -0.5625 45.71875 -0.5 C 43.65625 -0.4375 41.59375 -0.519531 39.53125 -0.75 C 37.46875 -0.976562 35.40625 -1.128906 33.34375 -1.203125 C 30.476562 -1.328125 27.628906 -1.304688 24.796875 -1.140625 C 21.972656 -0.984375 19.164062 -0.738281 16.375 -0.40625 C 15.644531 0.0625 14.742188 0.296875 13.671875 0.296875 C 13.140625 0.296875 12.773438 0.265625 12.578125 0.203125 C 11.910156 0.265625 11.257812 0.363281 10.625 0.5 C 10 0.632812 9.382812 0.769531 8.78125 0.90625 C 7.851562 1.03125 6.988281 0.894531 6.1875 0.5 C 5.382812 0.101562 4.851562 -0.5625 4.59375 -1.5 C 4.53125 -1.632812 4.5 -1.800781 4.5 -2 C 4.09375 -2.59375 3.890625 -3.257812 3.890625 -4 C 3.890625 -5.125 4.253906 -6.019531 4.984375 -6.6875 C 5.722656 -7.351562 6.625 -7.71875 7.6875 -7.78125 C 7.820312 -7.78125 7.921875 -7.816406 7.984375 -7.890625 C 7.921875 -10.878906 7.769531 -13.867188 7.53125 -16.859375 C 7.300781 -19.859375 7.050781 -22.859375 6.78125 -25.859375 C 5.71875 -26.191406 4.835938 -26.722656 4.140625 -27.453125 C 3.441406 -28.179688 3.09375 -29.179688 3.09375 -30.453125 C 3.09375 -31.441406 3.359375 -32.300781 3.890625 -33.03125 C 4.421875 -33.769531 5.117188 -34.335938 5.984375 -34.734375 C 5.984375 -34.804688 5.96875 -34.859375 5.9375 -34.890625 C 5.90625 -34.921875 5.890625 -34.9375 5.890625 -34.9375 C 5.691406 -37.46875 5.488281 -39.976562 5.28125 -42.46875 C 5.082031 -44.96875 4.851562 -47.453125 4.59375 -49.921875 C 4.125 -50.179688 3.671875 -50.476562 3.234375 -50.8125 C 2.804688 -51.144531 2.394531 -51.445312 2 -51.71875 C 1.332031 -52.375 0.664062 -53.132812 0 -54 C -0.664062 -54.875 -1.097656 -55.804688 -1.296875 -56.796875 C -1.492188 -57.796875 -1.257812 -58.765625 -0.59375 -59.703125 C 0.40625 -61.023438 1.6875 -61.882812 3.25 -62.28125 C 4.8125 -62.6875 6.359375 -62.921875 7.890625 -62.984375 C 11.015625 -62.984375 13.972656 -62.488281 16.765625 -61.5 C 19.765625 -60.5 22.695312 -59.234375 25.5625 -57.703125 C 26.425781 -57.234375 27.820312 -56.398438 29.75 -55.203125 C 31.675781 -54.003906 33.820312 -52.539062 36.1875 -50.8125 C 38.550781 -49.082031 40.847656 -47.234375 43.078125 -45.265625 C 45.304688 -43.304688 47.164062 -41.34375 48.65625 -39.375 C 50.15625 -37.414062 51.019531 -35.550781 51.25 -33.78125 C 51.488281 -32.019531 50.773438 -30.507812 49.109375 -29.25 C 48.453125 -28.71875 47.753906 -28.269531 47.015625 -27.90625 C 46.285156 -27.539062 45.488281 -27.390625 44.625 -27.453125 C 43.488281 -27.585938 42.390625 -27.71875 41.328125 -27.84375 C 40.265625 -27.976562 39.066406 -28.113281 37.734375 -28.25 L 32.9375 -28.546875 C 33.269531 -28.410156 33.550781 -28.257812 33.78125 -28.09375 C 34.019531 -27.9375 34.273438 -27.789062 34.546875 -27.65625 C 35.742188 -26.914062 36.90625 -26.164062 38.03125 -25.40625 C 39.164062 -24.644531 40.265625 -23.828125 41.328125 -22.953125 C 45.921875 -19.359375 50.015625 -15.4375 53.609375 -11.1875 C 54.535156 -10.320312 55.28125 -9.390625 55.84375 -8.390625 C 56.414062 -7.390625 56.535156 -6.253906 56.203125 -4.984375 Z M 34.9375 -38.53125 C 34.34375 -39.195312 33.726562 -39.828125 33.09375 -40.421875 C 32.457031 -41.023438 31.804688 -41.628906 31.140625 -42.234375 C 30.472656 -42.765625 29.890625 -43.257812 29.390625 -43.71875 C 28.898438 -44.1875 28.390625 -44.585938 27.859375 -44.921875 C 26.453125 -45.847656 25 -46.726562 23.5 -47.5625 C 22.007812 -48.394531 20.597656 -49.046875 19.265625 -49.515625 C 18.796875 -49.648438 18.34375 -49.800781 17.90625 -49.96875 C 17.476562 -50.132812 17.035156 -50.25 16.578125 -50.3125 L 14.96875 -50.609375 C 14.90625 -50.609375 14.859375 -50.609375 14.828125 -50.609375 C 14.796875 -50.609375 14.742188 -50.609375 14.671875 -50.609375 C 15.140625 -48.484375 15.519531 -46.335938 15.8125 -44.171875 C 16.113281 -42.003906 16.398438 -39.828125 16.671875 -37.640625 C 19.929688 -38.097656 23.191406 -38.394531 26.453125 -38.53125 C 29.316406 -38.601562 32.144531 -38.601562 34.9375 -38.53125 Z M 40.328125 -12.28125 C 38.796875 -13.613281 37.195312 -14.878906 35.53125 -16.078125 C 33.875 -17.273438 32.144531 -18.367188 30.34375 -19.359375 C 28.613281 -20.296875 26.800781 -21.210938 24.90625 -22.109375 C 23.007812 -23.003906 21.097656 -23.722656 19.171875 -24.265625 C 18.898438 -24.390625 18.632812 -24.453125 18.375 -24.453125 L 19.5625 -15.578125 C 19.695312 -14.578125 19.832031 -13.578125 19.96875 -12.578125 C 20.101562 -11.578125 20.203125 -10.578125 20.265625 -9.578125 C 22.523438 -9.847656 24.785156 -10.050781 27.046875 -10.1875 C 29.046875 -10.25 31.039062 -10.226562 33.03125 -10.125 C 35.03125 -10.03125 37.03125 -9.816406 39.03125 -9.484375 C 40.757812 -9.285156 42.488281 -8.984375 44.21875 -8.578125 C 43.625 -9.242188 43.007812 -9.894531 42.375 -10.53125 C 41.738281 -11.164062 41.054688 -11.75 40.328125 -12.28125 Z M 40.328125 -12.28125 "/></g></g></g><g fill="#100a09" fill-opacity="1"><g transform="translate(195.207991, 221.10407)"><g><path d="M 57 -58.796875 C 56.863281 -58.398438 56.734375 -58.066406 56.609375 -57.796875 C 56.535156 -56.929688 56.363281 -56.066406 56.09375 -55.203125 C 55.832031 -54.335938 55.300781 -53.640625 54.5 -53.109375 C 54.164062 -52.835938 53.671875 -52.640625 53.015625 -52.515625 C 52.742188 -52.242188 52.507812 -52.109375 52.3125 -52.109375 C 49.78125 -51.640625 47.25 -51.171875 44.71875 -50.703125 C 42.1875 -50.242188 39.660156 -49.847656 37.140625 -49.515625 C 37.140625 -47.316406 37.117188 -45.117188 37.078125 -42.921875 C 37.046875 -40.722656 37.03125 -38.53125 37.03125 -36.34375 C 37.03125 -33.28125 37.046875 -30.234375 37.078125 -27.203125 C 37.117188 -24.171875 37.140625 -21.125 37.140625 -18.0625 C 37.203125 -16.332031 37.265625 -14.585938 37.328125 -12.828125 C 37.398438 -11.066406 37.46875 -9.320312 37.53125 -7.59375 C 37.46875 -6.394531 37.285156 -5.242188 36.984375 -4.140625 C 36.679688 -3.046875 36.066406 -2.128906 35.140625 -1.390625 L 35.140625 -1.59375 C 35.203125 -2.332031 35.234375 -3.050781 35.234375 -3.75 C 35.234375 -4.445312 35.269531 -5.128906 35.34375 -5.796875 L 35.34375 -9.578125 C 35.144531 -8.710938 34.976562 -7.648438 34.84375 -6.390625 C 34.707031 -5.128906 34.472656 -4 34.140625 -3 C 33.804688 -1.925781 33.109375 -1.125 32.046875 -0.59375 C 30.984375 -0.0625 29.914062 0.0664062 28.84375 -0.203125 C 26.78125 -0.867188 25.414062 -2.179688 24.75 -4.140625 C 24.09375 -6.109375 23.695312 -8.054688 23.5625 -9.984375 C 23.425781 -12.515625 23.375 -15.078125 23.40625 -17.671875 C 23.4375 -20.265625 23.488281 -22.828125 23.5625 -25.359375 C 23.695312 -27.890625 23.847656 -30.453125 24.015625 -33.046875 C 24.179688 -35.640625 24.296875 -38.234375 24.359375 -40.828125 L 24.5625 -45.21875 L 24.5625 -48.421875 C 23.894531 -48.421875 23.242188 -48.421875 22.609375 -48.421875 C 21.972656 -48.421875 21.328125 -48.421875 20.671875 -48.421875 C 17.941406 -48.421875 15.273438 -48.519531 12.671875 -48.71875 C 11.609375 -48.851562 10.5625 -49.035156 9.53125 -49.265625 C 8.5 -49.492188 7.519531 -49.875 6.59375 -50.40625 C 5.925781 -50.875 5.304688 -51.441406 4.734375 -52.109375 C 4.171875 -52.773438 3.722656 -53.507812 3.390625 -54.3125 C 2.390625 -54.84375 1.640625 -55.65625 1.140625 -56.75 C 0.648438 -57.851562 0.535156 -59.003906 0.796875 -60.203125 C 1.128906 -61.191406 1.742188 -62.085938 2.640625 -62.890625 C 3.546875 -63.691406 4.53125 -64.023438 5.59375 -63.890625 C 8.320312 -63.617188 11.050781 -63.398438 13.78125 -63.234375 C 16.507812 -63.066406 19.238281 -62.984375 21.96875 -62.984375 C 21.96875 -63.054688 21.984375 -63.109375 22.015625 -63.140625 C 22.046875 -63.171875 22.0625 -63.222656 22.0625 -63.296875 C 16.664062 -63.628906 11.273438 -64.226562 5.890625 -65.09375 C 5.753906 -65.09375 5.703125 -65.191406 5.734375 -65.390625 C 5.773438 -65.585938 5.859375 -65.65625 5.984375 -65.59375 C 12.972656 -65.1875 19.960938 -65.050781 26.953125 -65.1875 C 33.941406 -65.320312 40.894531 -65.6875 47.8125 -66.28125 C 48.34375 -66.414062 48.875 -66.5 49.40625 -66.53125 C 49.945312 -66.5625 50.445312 -66.613281 50.90625 -66.6875 C 51.175781 -66.6875 51.457031 -66.703125 51.75 -66.734375 C 52.050781 -66.765625 52.335938 -66.75 52.609375 -66.6875 C 53.335938 -66.820312 54.082031 -66.921875 54.84375 -66.984375 C 55.613281 -67.046875 56.367188 -67.113281 57.109375 -67.1875 C 57.566406 -67.25 57.84375 -67 57.9375 -66.4375 C 58.039062 -65.875 57.828125 -65.523438 57.296875 -65.390625 C 56.960938 -65.390625 56.734375 -65.351562 56.609375 -65.28125 C 56.867188 -65.15625 57.066406 -65.023438 57.203125 -64.890625 C 58.335938 -64.222656 58.882812 -63.171875 58.84375 -61.734375 C 58.8125 -60.304688 58.195312 -59.328125 57 -58.796875 Z M 12.671875 -51.109375 C 14.410156 -50.972656 16.175781 -50.972656 17.96875 -51.109375 C 15.96875 -51.304688 13.96875 -51.585938 11.96875 -51.953125 C 9.976562 -52.328125 8.019531 -52.8125 6.09375 -53.40625 C 6.882812 -52.675781 7.878906 -52.128906 9.078125 -51.765625 C 10.273438 -51.398438 11.472656 -51.179688 12.671875 -51.109375 Z M 12.671875 -51.109375 "/></g></g></g><g fill="#100a09" fill-opacity="1"><g transform="translate(248.812739, 221.10407)"><g><path d="M 37.734375 -42.828125 C 38.265625 -39.765625 38.597656 -36.664062 38.734375 -33.53125 C 38.867188 -30.40625 38.769531 -27.28125 38.4375 -24.15625 C 38.164062 -21.425781 37.726562 -18.613281 37.125 -15.71875 C 36.53125 -12.820312 35.398438 -10.210938 33.734375 -7.890625 C 33.203125 -7.148438 32.632812 -6.429688 32.03125 -5.734375 C 31.4375 -5.035156 30.773438 -4.390625 30.046875 -3.796875 C 29.117188 -2.859375 28.070312 -2.070312 26.90625 -1.4375 C 25.738281 -0.8125 24.457031 -0.398438 23.0625 -0.203125 C 22 -0.128906 20.898438 -0.128906 19.765625 -0.203125 C 18.097656 0.0664062 16.398438 -0.0625 14.671875 -0.59375 C 12.941406 -1.125 11.410156 -1.925781 10.078125 -3 C 7.753906 -4.988281 6.023438 -7.394531 4.890625 -10.21875 C 3.753906 -13.050781 2.921875 -15.9375 2.390625 -18.875 C 1.398438 -25.257812 1.398438 -31.644531 2.390625 -38.03125 C 3.390625 -44.425781 5.554688 -50.414062 8.890625 -56 C 8.890625 -56 8.953125 -56.066406 9.078125 -56.203125 C 10.078125 -58.867188 11.410156 -61.265625 13.078125 -63.390625 C 13.140625 -63.523438 13.203125 -63.570312 13.265625 -63.53125 C 13.335938 -63.5 13.34375 -63.421875 13.28125 -63.296875 C 13.007812 -62.828125 12.722656 -62.34375 12.421875 -61.84375 C 12.128906 -61.34375 11.882812 -60.828125 11.6875 -60.296875 C 11.414062 -59.765625 11.179688 -59.210938 10.984375 -58.640625 C 10.785156 -58.078125 10.582031 -57.53125 10.375 -57 C 10.507812 -57.070312 10.660156 -57.085938 10.828125 -57.046875 C 10.992188 -57.015625 11.113281 -57 11.1875 -57 C 12.050781 -58.863281 13.082031 -60.492188 14.28125 -61.890625 C 15.476562 -63.285156 16.875 -64.148438 18.46875 -64.484375 C 19.132812 -64.753906 19.78125 -64.972656 20.40625 -65.140625 C 21.039062 -65.304688 21.691406 -65.351562 22.359375 -65.28125 C 23.085938 -65.414062 23.832031 -65.46875 24.59375 -65.4375 C 25.363281 -65.40625 26.050781 -65.222656 26.65625 -64.890625 C 27.320312 -64.492188 27.90625 -63.925781 28.40625 -63.1875 C 28.90625 -62.457031 29.320312 -61.757812 29.65625 -61.09375 C 30.050781 -61.226562 30.460938 -61.242188 30.890625 -61.140625 C 31.328125 -61.046875 31.675781 -60.765625 31.9375 -60.296875 C 32.675781 -58.960938 33.378906 -57.597656 34.046875 -56.203125 C 34.710938 -54.804688 35.273438 -53.375 35.734375 -51.90625 C 36.203125 -50.445312 36.582031 -48.953125 36.875 -47.421875 C 37.175781 -45.890625 37.460938 -44.359375 37.734375 -42.828125 Z M 25.25 -13.78125 C 26.113281 -16.101562 26.710938 -18.492188 27.046875 -20.953125 C 27.378906 -23.421875 27.546875 -25.882812 27.546875 -28.34375 C 27.347656 -30.875 27.148438 -33.382812 26.953125 -35.875 C 26.753906 -38.375 26.457031 -40.859375 26.0625 -43.328125 C 25.925781 -44.054688 25.789062 -44.800781 25.65625 -45.5625 C 25.519531 -46.332031 25.382812 -47.050781 25.25 -47.71875 C 24.988281 -48.644531 24.691406 -49.539062 24.359375 -50.40625 C 24.023438 -51.28125 23.691406 -52.148438 23.359375 -53.015625 C 23.222656 -53.347656 23.070312 -53.710938 22.90625 -54.109375 C 22.738281 -54.503906 22.554688 -54.867188 22.359375 -55.203125 C 22.222656 -55.335938 22.09375 -55.40625 21.96875 -55.40625 L 21.46875 -55.40625 C 21.195312 -54.875 20.941406 -54.304688 20.703125 -53.703125 C 20.472656 -53.109375 20.296875 -52.546875 20.171875 -52.015625 C 19.628906 -50.210938 19.140625 -48.394531 18.703125 -46.5625 C 18.273438 -44.738281 17.929688 -42.859375 17.671875 -40.921875 C 17.203125 -37.265625 17 -33.539062 17.0625 -29.75 C 17.132812 -25.957031 17.46875 -22.195312 18.0625 -18.46875 C 18.269531 -17.332031 18.140625 -16.332031 17.671875 -15.46875 C 16.273438 -21.988281 15.722656 -28.726562 16.015625 -35.6875 C 16.316406 -42.644531 17.898438 -49.117188 20.765625 -55.109375 C 20.492188 -54.910156 20.242188 -54.625 20.015625 -54.25 C 19.785156 -53.882812 19.566406 -53.535156 19.359375 -53.203125 C 18.429688 -51.335938 17.632812 -49.40625 16.96875 -47.40625 C 16.300781 -45.414062 15.769531 -43.390625 15.375 -41.328125 C 15.238281 -41.054688 15.171875 -40.921875 15.171875 -40.921875 C 14.972656 -39.796875 14.820312 -38.648438 14.71875 -37.484375 C 14.625 -36.316406 14.507812 -35.171875 14.375 -34.046875 C 14.238281 -30.648438 14.351562 -27.269531 14.71875 -23.90625 C 15.09375 -20.550781 15.644531 -17.238281 16.375 -13.96875 C 16.039062 -13.707031 15.675781 -13.546875 15.28125 -13.484375 C 14.082031 -13.210938 12.914062 -13.410156 11.78125 -14.078125 C 12.3125 -13.015625 13.039062 -11.914062 13.96875 -10.78125 C 14.90625 -9.644531 15.988281 -8.796875 17.21875 -8.234375 C 18.445312 -7.671875 19.757812 -7.585938 21.15625 -7.984375 C 22.289062 -8.378906 23.191406 -9.175781 23.859375 -10.375 C 24.191406 -10.914062 24.472656 -11.46875 24.703125 -12.03125 C 24.941406 -12.59375 25.125 -13.175781 25.25 -13.78125 Z M 25.25 -13.78125 "/></g></g></g><g fill="#100a09" fill-opacity="1"><g transform="translate(286.445644, 221.10407)"><g><path d="M 50.90625 -3.890625 C 50.84375 -3.828125 50.796875 -3.859375 50.765625 -3.984375 C 50.734375 -4.117188 50.75 -4.222656 50.8125 -4.296875 C 51.613281 -4.628906 52.078125 -5.226562 52.203125 -6.09375 C 52.335938 -6.957031 52.269531 -7.921875 52 -8.984375 C 51.738281 -10.046875 51.425781 -11.0625 51.0625 -12.03125 C 50.695312 -13 50.414062 -13.710938 50.21875 -14.171875 C 48.75 -18.234375 46.914062 -22.046875 44.71875 -25.609375 C 42.519531 -29.171875 39.957031 -32.546875 37.03125 -35.734375 C 37.769531 -34.804688 38.71875 -33.425781 39.875 -31.59375 C 41.039062 -29.757812 42.253906 -27.726562 43.515625 -25.5 C 44.785156 -23.269531 45.984375 -21.007812 47.109375 -18.71875 C 48.242188 -16.425781 49.191406 -14.296875 49.953125 -12.328125 C 50.722656 -10.367188 51.144531 -8.820312 51.21875 -7.6875 C 51.34375 -6.351562 50.972656 -5.132812 50.109375 -4.03125 C 49.242188 -2.9375 48.046875 -2.390625 46.515625 -2.390625 C 44.390625 -2.390625 42.894531 -3.320312 42.03125 -5.1875 C 41.5625 -6.050781 41.328125 -6.984375 41.328125 -7.984375 C 39.460938 -11.710938 37.265625 -15.273438 34.734375 -18.671875 C 32.210938 -22.066406 29.585938 -25.257812 26.859375 -28.25 C 25.660156 -29.582031 24.441406 -30.894531 23.203125 -32.1875 C 21.972656 -33.488281 20.628906 -34.671875 19.171875 -35.734375 L 17.5625 -35.140625 C 17.101562 -34.941406 16.671875 -34.757812 16.265625 -34.59375 C 15.867188 -34.425781 15.503906 -34.273438 15.171875 -34.140625 C 15.703125 -28.546875 16.300781 -22.988281 16.96875 -17.46875 C 17.101562 -16.40625 17.285156 -15.320312 17.515625 -14.21875 C 17.753906 -13.125 17.972656 -12.007812 18.171875 -10.875 C 18.429688 -9.945312 18.742188 -8.929688 19.109375 -7.828125 C 19.484375 -6.734375 19.769531 -5.625 19.96875 -4.5 C 20.101562 -4.09375 20.117188 -3.671875 20.015625 -3.234375 C 19.910156 -2.804688 19.691406 -2.425781 19.359375 -2.09375 C 16.835938 0.03125 14.113281 0.5625 11.1875 -0.5 C 10.050781 -0.363281 8.953125 -0.613281 7.890625 -1.25 C 6.828125 -1.882812 6.023438 -2.734375 5.484375 -3.796875 C 4.890625 -5.191406 4.523438 -6.632812 4.390625 -8.125 C 4.253906 -9.625 4.125 -11.109375 4 -12.578125 C 3.59375 -15.972656 3.207031 -19.367188 2.84375 -22.765625 C 2.476562 -26.160156 2.160156 -29.550781 1.890625 -32.9375 C 1.628906 -36.332031 1.414062 -39.726562 1.25 -43.125 C 1.082031 -46.519531 0.929688 -49.945312 0.796875 -53.40625 C 0.796875 -54.34375 0.78125 -55.257812 0.75 -56.15625 C 0.71875 -57.050781 0.703125 -57.929688 0.703125 -58.796875 C 0.628906 -59.734375 0.707031 -60.679688 0.9375 -61.640625 C 1.175781 -62.609375 1.828125 -63.222656 2.890625 -63.484375 C 2.960938 -63.691406 3.046875 -63.878906 3.140625 -64.046875 C 3.242188 -64.210938 3.328125 -64.394531 3.390625 -64.59375 C 4.054688 -65.789062 4.972656 -66.535156 6.140625 -66.828125 C 7.304688 -67.128906 8.453125 -67.046875 9.578125 -66.578125 C 10.710938 -66.117188 11.578125 -65.375 12.171875 -64.34375 C 12.773438 -63.3125 12.84375 -62.128906 12.375 -60.796875 C 12.113281 -59.796875 11.960938 -58.710938 11.921875 -57.546875 C 11.890625 -56.378906 11.84375 -55.234375 11.78125 -54.109375 L 11.484375 -45.125 C 11.816406 -45.457031 12.082031 -45.65625 12.28125 -45.71875 C 12.476562 -47.851562 12.707031 -49.984375 12.96875 -52.109375 C 13.238281 -54.242188 13.539062 -56.34375 13.875 -58.40625 C 13.875 -58.46875 13.890625 -58.484375 13.921875 -58.453125 C 13.953125 -58.421875 13.96875 -58.40625 13.96875 -58.40625 L 13.96875 -57.703125 C 14.039062 -55.835938 14.109375 -54.003906 14.171875 -52.203125 C 14.242188 -50.410156 14.3125 -48.582031 14.375 -46.71875 C 18.5 -48.519531 22.875 -50.550781 27.5 -52.8125 C 32.125 -55.070312 36.367188 -57.332031 40.234375 -59.59375 C 41.023438 -60.0625 41.9375 -60.609375 42.96875 -61.234375 C 44 -61.867188 45.015625 -62.019531 46.015625 -61.6875 C 46.816406 -61.488281 47.414062 -61.054688 47.8125 -60.390625 C 48.21875 -59.722656 48.421875 -58.992188 48.421875 -58.203125 L 48.71875 -58.5 C 49.25 -58.894531 49.765625 -58.894531 50.265625 -58.5 C 50.765625 -58.101562 50.847656 -57.601562 50.515625 -57 C 48.785156 -53.738281 46.40625 -51.007812 43.375 -48.8125 C 40.34375 -46.613281 37.234375 -44.617188 34.046875 -42.828125 L 31.453125 -41.421875 C 31.710938 -41.222656 31.941406 -41.023438 32.140625 -40.828125 C 32.335938 -40.628906 32.570312 -40.429688 32.84375 -40.234375 C 32.78125 -40.566406 32.945312 -40.863281 33.34375 -41.125 C 33.738281 -41.394531 34.070312 -41.363281 34.34375 -41.03125 C 37.40625 -38.164062 40.132812 -35.050781 42.53125 -31.6875 C 44.925781 -28.332031 46.953125 -24.757812 48.609375 -20.96875 C 49.484375 -19.101562 50.25 -17.222656 50.90625 -15.328125 C 51.570312 -13.429688 52.140625 -11.515625 52.609375 -9.578125 C 52.804688 -8.585938 52.867188 -7.472656 52.796875 -6.234375 C 52.734375 -5.003906 52.101562 -4.222656 50.90625 -3.890625 Z M 50.90625 -3.890625 "/></g></g></g><path stroke-linecap="butt" transform="matrix(0.966818, 0, 0, 0.966818, 35.353413, 114.256341)" fill="none" stroke-linejoin="miter" d="M 62.356298 42.170283 C 62.222967 42.590475 62.077516 42.933902 61.928024 43.200563 C 61.859339 44.109633 61.693686 45.010624 61.422985 45.899493 C 61.156324 46.788362 60.598761 47.511578 59.758376 48.069142 C 59.42303 48.335802 58.90991 48.545899 58.223056 48.699431 C 57.952355 48.966091 57.709936 49.099422 57.491759 49.099422 C 54.885757 49.5883 52.271673 50.077178 49.649509 50.562015 C 47.027345 51.034732 44.417302 51.438764 41.811299 51.77411 C 41.811299 54.060928 41.795138 56.335625 41.758775 58.606281 C 41.726453 60.872898 41.710291 63.143554 41.710291 65.410171 C 41.710291 68.569697 41.726453 71.721142 41.758775 74.864506 C 41.795138 77.99171 41.811299 81.143155 41.811299 84.318842 C 41.875944 86.100621 41.94463 87.906641 42.013315 89.740944 C 42.07796 91.555045 42.146645 93.361065 42.215331 95.159005 C 42.146645 96.387261 41.95271 97.571073 41.633525 98.714482 C 41.330502 99.857891 40.700213 100.807365 39.742658 101.562904 L 39.742658 101.336646 C 39.811344 100.581107 39.843666 99.84173 39.843666 99.118513 C 39.843666 98.395297 39.875989 97.688242 39.944674 97.001389 L 39.944674 93.094405 C 39.742658 93.983274 39.568925 95.082239 39.415393 96.395341 C 39.282063 97.704403 39.047724 98.872054 38.708338 99.898294 C 38.356831 101.00938 37.625534 101.841685 36.518488 102.395208 C 35.423562 102.93257 34.332677 103.0659 33.237752 102.79924 C 31.104466 102.108346 29.694397 100.74676 29.003503 98.714482 C 28.316649 96.682204 27.904537 94.662047 27.767167 92.662091 C 27.617675 90.060129 27.55707 87.413723 27.593433 84.722873 C 27.641917 82.032024 27.702522 79.385618 27.767167 76.783656 C 27.904537 74.161492 28.054029 71.502965 28.223722 68.816156 C 28.389375 66.125306 28.506544 63.446578 28.57523 60.77189 L 28.801487 56.234617 L 28.801487 52.909438 C 28.114634 52.909438 27.439901 52.909438 26.78537 52.909438 C 26.130839 52.909438 25.456107 52.909438 24.769253 52.909438 C 21.945074 52.909438 19.189579 52.80843 16.49873 52.606415 C 15.407845 52.469044 14.325041 52.28723 13.246277 52.048851 C 12.187714 51.798352 11.173596 51.402401 10.19584 50.865039 C 9.508986 50.380201 8.870616 49.790315 8.280731 49.099422 C 7.711046 48.412568 7.24641 47.657029 6.894903 46.832805 C 5.868663 46.279282 5.096963 45.438897 4.575762 44.311649 C 4.054562 43.16824 3.937393 41.976347 4.224255 40.731931 C 4.559601 39.705691 5.18989 38.780459 6.115122 37.960275 C 7.052475 37.11989 8.070634 36.772423 9.165559 36.925955 C 11.985699 37.192615 14.809879 37.410792 17.634058 37.580485 C 20.458238 37.750179 23.282418 37.830985 26.106597 37.830985 C 26.106597 37.76634 26.122759 37.713816 26.155081 37.681493 C 26.187404 37.649171 26.207605 37.596647 26.207605 37.527961 C 20.623891 37.192615 15.056338 36.570407 9.492825 35.665376 C 9.339293 35.665376 9.282728 35.564369 9.315051 35.362353 C 9.363535 35.160337 9.456462 35.091652 9.593833 35.160337 C 16.817915 35.58053 24.046037 35.721941 31.274159 35.588611 C 38.498242 35.439119 45.694041 35.051249 52.853478 34.42904 C 53.407002 34.29571 53.952444 34.210863 54.489806 34.178541 C 55.047369 34.142178 55.56857 34.093694 56.053407 34.025009 C 56.324108 34.025009 56.60693 34.008848 56.909954 33.976525 C 57.229139 33.940162 57.532162 33.956324 57.819025 34.025009 C 58.574564 33.891678 59.350304 33.790671 60.138165 33.721985 C 60.930067 33.637139 61.701767 33.564413 62.457306 33.495728 C 62.946184 33.427042 63.237086 33.689663 63.338094 34.279549 C 63.439102 34.865394 63.212844 35.229023 62.659321 35.362353 C 62.323975 35.362353 62.077516 35.394675 61.928024 35.463361 C 62.214887 35.596691 62.424983 35.738102 62.558314 35.891634 C 63.734045 36.578488 64.30777 37.665332 64.271407 39.144087 C 64.239084 40.622842 63.600715 41.62888 62.356298 42.170283 Z M 16.49873 50.133742 C 18.29667 50.271113 20.122892 50.271113 21.969316 50.133742 C 19.904715 49.931726 17.836074 49.648904 15.767433 49.277196 C 13.718994 48.889325 11.694796 48.388326 9.694841 47.766118 C 10.515024 48.521657 11.541264 49.091341 12.76952 49.479211 C 14.013937 49.85092 15.254313 50.069097 16.49873 50.133742 Z M 96.626244 99.898294 C 96.222213 99.764964 95.757577 99.041747 95.236376 97.732686 C 94.719216 96.419583 94.161652 94.807498 93.575807 92.892389 C 92.985921 90.957078 92.432398 88.957123 91.911197 86.892522 C 91.406158 84.823881 90.945562 82.965337 90.525369 81.320929 C 90.121338 79.67248 89.850637 78.460386 89.717307 77.688686 L 81.648799 77.813936 C 80.89326 80.908817 80.238729 83.983496 79.685206 87.042014 C 79.147844 90.100532 78.735732 93.219654 78.44887 96.395341 C 78.44887 97.01755 78.153927 97.328654 77.568081 97.328654 C 76.994357 97.328654 76.743857 97.01755 76.808502 96.395341 C 77.079203 93.304501 77.475154 90.193459 77.996355 87.066256 C 78.517555 83.922891 79.256933 80.840131 80.214487 77.813936 L 79.281175 77.813936 C 78.945829 79.042191 78.598361 80.537108 78.246854 82.302725 C 77.911508 84.052181 77.584243 85.773355 77.265058 87.470287 C 76.962034 89.151058 76.699414 90.561128 76.481237 91.704537 C 76.279221 92.831784 76.178213 93.393388 76.178213 93.393388 L 75.576206 98.031669 C 75.358029 100.387172 74.558047 102.076023 73.1803 103.102263 C 71.802553 104.144664 70.287435 104.552736 68.643027 104.334559 C 66.994579 104.132543 65.60067 103.344682 64.457261 101.966935 C 63.330014 100.589188 62.934063 98.698321 63.273449 96.294334 C 63.693642 93.268138 64.170399 90.241943 64.707761 87.219788 C 65.265324 84.177431 65.919855 81.175477 66.675394 78.217967 C 66.206717 78.286653 65.72592 78.335136 65.237042 78.371499 C 64.752204 78.403822 64.303729 78.419983 63.903738 78.419983 C 64.037069 78.084637 64.069391 77.773533 64.004746 77.48667 C 62.340137 77.082639 61.128042 76.19377 60.372503 74.816023 C 59.616965 73.438275 59.406868 71.906996 59.742214 70.226225 C 60.093722 68.529293 61.063397 66.973772 62.64316 65.563703 C 64.239084 64.149593 66.582467 63.21224 69.677347 62.739523 C 70.432886 59.293135 71.25711 55.899271 72.145979 52.55389 C 73.05505 49.20851 74.154016 45.960097 75.446916 42.800572 C 76.069125 41.418784 76.760018 39.923868 77.515557 38.311782 C 78.271096 36.699697 79.22057 35.285587 80.363979 34.077533 C 81.507388 32.865439 82.937659 32.259391 84.650752 32.259391 C 85.539622 32.194746 86.432531 32.437165 87.3214 32.990688 C 88.230471 33.548252 88.885002 34.235105 89.289033 35.059329 C 90.800111 35.128015 92.052608 35.665376 93.046526 36.671415 C 94.052564 37.665332 94.626289 38.982475 94.759619 40.630923 C 94.909111 42.699564 95.086884 44.780326 95.2889 46.881289 C 95.490916 48.982253 95.692932 51.034732 95.894947 53.034688 C 95.979794 53.099333 96.052519 53.135696 96.121205 53.135696 C 96.18585 51.337756 96.270696 49.564058 96.371704 47.814602 C 96.472712 46.048984 96.626244 44.311649 96.82826 42.598556 C 96.82826 42.311694 96.876744 42.933902 96.977751 44.461141 C 97.094921 45.976259 97.22017 47.91561 97.357541 50.287274 C 97.490871 52.654898 97.624202 55.034643 97.757532 57.418429 C 97.894903 59.790093 98.068636 61.765807 98.286813 63.34557 C 100.270608 63.547586 101.818048 64.218278 102.929135 65.361687 C 104.036181 66.505096 104.727074 67.814158 104.993735 69.292913 C 105.264436 70.771668 105.118985 72.234262 104.565462 73.680694 C 104.0281 75.127127 103.038223 76.294778 101.59179 77.183647 C 102.278644 80.209842 103.00186 83.640069 103.757399 87.470287 C 104.516978 91.284344 105.094743 94.738813 105.498774 97.833693 C 105.785637 100.168995 105.599782 101.942693 104.945251 103.150747 C 104.28668 104.362841 103.422053 105.033534 102.347329 105.166864 C 101.288767 105.304235 100.222124 104.924445 99.1474 104.035576 C 98.088838 103.142666 97.248453 101.764919 96.626244 99.898294 Z M 81.345775 64.379891 C 82.105354 64.24252 83.07907 64.161714 84.270963 64.125351 C 85.483057 64.093028 86.432531 64.040504 87.119384 63.975859 C 86.986054 63.066788 86.836562 61.790049 86.666869 60.141601 C 86.497176 58.497193 86.28708 56.731576 86.03658 54.848789 C 85.802242 52.949841 85.507299 51.200385 85.155792 49.604461 C 84.331568 52.497326 83.608351 55.083127 82.986143 57.369945 C 82.380096 59.640602 81.834653 61.975904 81.345775 64.379891 Z M 160.952089 97.833693 C 160.531896 99.276086 159.699591 100.326567 158.459215 100.985139 C 157.230959 101.63967 155.861293 102.03562 154.346175 102.168951 C 152.835097 102.302281 151.425028 102.41137 150.111925 102.496216 C 147.97864 102.564902 145.845354 102.480055 143.708027 102.245717 C 141.574741 101.991177 139.441455 101.833605 137.304129 101.764919 C 134.346619 101.631589 131.40527 101.64775 128.484123 101.813403 C 125.558935 101.983096 122.649909 102.245717 119.761084 102.597224 C 119.005545 103.0659 118.072233 103.304279 116.961146 103.304279 C 116.407623 103.304279 116.027834 103.267916 115.825818 103.203271 C 115.138964 103.267916 114.464232 103.368924 113.809701 103.502254 C 113.15517 103.655786 112.5168 103.797197 111.894592 103.934568 C 110.937038 104.067898 110.044128 103.922447 109.223944 103.502254 C 108.39972 103.102263 107.842157 102.41945 107.559335 101.461896 C 107.490649 101.312404 107.458327 101.13463 107.458327 100.932615 C 107.054295 100.310406 106.85228 99.623553 106.85228 98.863974 C 106.85228 97.704403 107.232069 96.783212 107.987608 96.092318 C 108.743147 95.401424 109.668379 95.025675 110.759264 94.95699 C 110.912796 94.95699 111.021884 94.916586 111.086529 94.83174 C 111.021884 91.740899 110.860272 88.646019 110.609772 85.555178 C 110.375434 82.444136 110.120894 79.345215 109.854233 76.250334 C 108.743147 75.914988 107.825995 75.369546 107.102779 74.614007 C 106.383603 73.858468 106.019975 72.824148 106.019975 71.511045 C 106.019975 70.472685 106.298757 69.571695 106.85228 68.816156 C 107.405803 68.060617 108.129019 67.478812 109.021929 67.07478 C 109.021929 66.989934 109.001727 66.933369 108.969404 66.901047 C 108.937082 66.864684 108.920921 66.848523 108.920921 66.848523 C 108.702744 64.24252 108.492647 61.656719 108.290632 59.083038 C 108.088616 56.497237 107.842157 53.923557 107.559335 51.370078 C 107.086618 51.099377 106.626022 50.800394 106.173507 50.461008 C 105.716951 50.1095 105.288678 49.790315 104.884647 49.503453 C 104.197793 48.8166 103.506899 48.024698 102.820046 47.135829 C 102.129152 46.242919 101.684718 45.285365 101.482702 44.259125 C 101.264525 43.220764 101.498863 42.218766 102.189757 41.261212 C 103.232158 39.883465 104.557381 38.990555 106.173507 38.590564 C 107.785592 38.170371 109.389597 37.915832 110.985521 37.830985 C 114.213732 37.830985 117.27225 38.352186 120.165116 39.394587 C 123.255956 40.420826 126.290232 41.729888 129.263903 43.329853 C 130.156813 43.798529 131.591125 44.655076 133.574919 45.899493 C 135.574874 47.14391 137.793007 48.663068 140.229317 50.461008 C 142.685828 52.242786 145.061533 54.149815 147.364512 56.186133 C 149.683652 58.20225 151.614922 60.226447 153.162363 62.258726 C 154.709803 64.295044 155.598672 66.226314 155.837051 68.060617 C 156.08755 69.874718 155.348173 71.43832 153.618918 72.747382 C 152.928025 73.300905 152.204808 73.773621 151.44927 74.161492 C 150.693731 74.52916 149.869507 74.682692 148.976597 74.614007 C 147.800866 74.460475 146.657457 74.319064 145.550411 74.185733 C 144.455485 74.052403 143.22319 73.915032 141.845442 73.781702 L 136.904138 73.478678 C 137.239484 73.612009 137.526346 73.765541 137.760685 73.931194 C 138.011184 74.100887 138.273804 74.250379 138.540465 74.387749 C 139.784882 75.143288 140.984855 75.923069 142.144426 76.731132 C 143.324197 77.523033 144.467606 78.363419 145.574652 79.252288 C 150.313941 82.965337 154.548191 87.025853 158.281441 91.429795 C 159.238996 92.318664 160.010696 93.284299 160.600582 94.326701 C 161.186427 95.35294 161.307637 96.520591 160.952089 97.833693 Z M 138.968739 63.143554 C 138.34653 62.452661 137.70816 61.79813 137.05363 61.175921 C 136.399099 60.553713 135.724366 59.931504 135.037513 59.309296 C 134.346619 58.771934 133.744612 58.258814 133.223412 57.773977 C 132.718372 57.285099 132.189091 56.872987 131.635568 56.53764 C 130.189135 55.563925 128.686138 54.646773 127.122537 53.790227 C 125.575096 52.93368 124.120583 52.258948 122.758997 51.77411 C 122.27416 51.640779 121.801443 51.487247 121.348928 51.321595 C 120.912574 51.151901 120.447938 51.034732 119.9631 50.966047 L 118.29849 50.638781 C 118.229805 50.638781 118.181321 50.638781 118.144958 50.638781 C 118.112636 50.638781 118.064152 50.638781 117.995467 50.638781 C 118.484345 52.840753 118.876255 55.066966 119.179279 57.321461 C 119.498464 59.555755 119.793407 61.80621 120.064108 64.076867 C 123.44181 63.587989 126.811433 63.276885 130.172974 63.143554 C 133.146646 63.074869 136.079914 63.074869 138.968739 63.143554 Z M 144.540332 90.294467 C 142.960569 88.91672 141.30404 87.611698 139.574786 86.387483 C 137.861692 85.143066 136.071833 83.999657 134.205208 82.957256 C 132.423429 81.999701 130.548723 81.058308 128.585131 80.133076 C 126.617498 79.191683 124.633703 78.452305 122.633748 77.914944 C 122.363047 77.765452 122.096386 77.688686 121.825685 77.688686 L 123.062021 86.892522 C 123.195351 87.914722 123.332722 88.949042 123.466052 89.991443 C 123.599383 91.017683 123.700391 92.052004 123.769076 93.094405 C 126.120539 92.807542 128.463921 92.597446 130.803263 92.464116 C 132.867864 92.39543 134.936505 92.411592 137.005146 92.512599 C 139.069746 92.613607 141.138387 92.839865 143.207028 93.191372 C 144.984767 93.393388 146.774626 93.704492 148.576606 94.124685 C 147.954398 93.437831 147.316028 92.763099 146.657457 92.108568 C 146.002926 91.454037 145.295871 90.84799 144.540332 90.294467 Z M 213.100426 42.170283 C 212.963056 42.590475 212.821645 42.933902 212.672153 43.200563 C 212.603468 44.109633 212.433774 45.010624 212.167114 45.899493 C 211.896413 46.788362 211.342889 47.511578 210.502504 48.069142 C 210.167158 48.335802 209.654038 48.545899 208.963144 48.699431 C 208.696484 48.966091 208.454065 49.099422 208.235888 49.099422 C 205.629885 49.5883 203.015802 50.077178 200.393638 50.562015 C 197.771474 51.034732 195.15739 51.438764 192.551387 51.77411 C 192.551387 54.060928 192.535226 56.335625 192.502904 58.606281 C 192.470581 60.872898 192.45442 63.143554 192.45442 65.410171 C 192.45442 68.569697 192.470581 71.721142 192.502904 74.864506 C 192.535226 77.99171 192.551387 81.143155 192.551387 84.318842 C 192.620073 86.100621 192.688758 87.906641 192.753403 89.740944 C 192.822089 91.555045 192.890774 93.361065 192.955419 95.159005 C 192.890774 96.387261 192.696839 97.571073 192.377654 98.714482 C 192.07463 99.857891 191.444341 100.807365 190.486787 101.562904 L 190.486787 101.336646 C 190.551432 100.581107 190.587795 99.84173 190.587795 99.118513 C 190.587795 98.395297 190.620117 97.688242 190.688803 97.001389 L 190.688803 93.094405 C 190.486787 93.983274 190.309013 95.082239 190.159521 96.395341 C 190.022151 97.704403 189.787812 98.872054 189.452466 99.898294 C 189.100959 101.00938 188.369662 101.841685 187.258576 102.395208 C 186.167691 102.93257 185.072766 103.0659 183.981881 102.79924 C 181.848595 102.108346 180.434485 100.74676 179.747631 98.714482 C 179.056738 96.682204 178.644625 94.662047 178.511295 92.662091 C 178.361803 90.060129 178.301199 87.413723 178.333521 84.722873 C 178.386045 82.032024 178.44261 79.385618 178.511295 76.783656 C 178.644625 74.161492 178.798157 71.502965 178.96381 68.816156 C 179.133503 66.125306 179.250673 63.446578 179.319358 60.77189 L 179.545616 56.234617 L 179.545616 52.909438 C 178.854722 52.909438 178.18403 52.909438 177.529499 52.909438 C 176.870927 52.909438 176.200235 52.909438 175.513382 52.909438 C 172.689202 52.909438 169.929667 52.80843 167.242858 52.606415 C 166.151973 52.469044 165.065129 52.28723 163.990405 52.048851 C 162.931843 51.798352 161.913684 51.402401 160.939968 50.865039 C 160.249074 50.380201 159.610705 49.790315 159.024859 49.099422 C 158.451134 48.412568 157.990538 47.657029 157.639031 46.832805 C 156.612791 46.279282 155.841091 45.438897 155.319891 44.311649 C 154.79869 43.16824 154.681521 41.976347 154.964343 40.731931 C 155.299689 39.705691 155.929978 38.780459 156.85521 37.960275 C 157.796603 37.11989 158.814763 36.772423 159.905647 36.925955 C 162.729827 37.192615 165.554007 37.410792 168.378187 37.580485 C 171.202366 37.750179 174.022506 37.830985 176.846686 37.830985 C 176.846686 37.76634 176.862847 37.713816 176.89921 37.681493 C 176.931532 37.649171 176.947693 37.596647 176.947693 37.527961 C 171.368019 37.192615 165.796426 36.570407 160.232913 35.665376 C 160.083421 35.665376 160.022817 35.564369 160.059179 35.362353 C 160.107663 35.160337 160.20059 35.091652 160.333921 35.160337 C 167.562043 35.58053 174.790166 35.721941 182.014248 35.588611 C 189.24237 35.439119 196.43413 35.051249 203.593567 34.42904 C 204.15113 34.29571 204.696572 34.210863 205.233934 34.178541 C 205.787457 34.142178 206.308658 34.093694 206.797536 34.025009 C 207.064197 34.025009 207.351059 34.008848 207.654082 33.976525 C 207.973267 33.940162 208.276291 33.956324 208.563153 34.025009 C 209.318692 33.891678 210.090392 33.790671 210.882294 33.721985 C 211.670155 33.637139 212.445895 33.564413 213.201434 33.495728 C 213.686272 33.427042 213.981215 33.689663 214.082223 34.279549 C 214.18323 34.865394 213.956973 35.229023 213.40345 35.362353 C 213.064063 35.362353 212.821645 35.394675 212.672153 35.463361 C 212.954975 35.596691 213.165071 35.738102 213.302442 35.891634 C 214.478173 36.578488 215.047858 37.665332 215.015535 39.144087 C 214.983213 40.622842 214.344843 41.62888 213.100426 42.170283 Z M 167.242858 50.133742 C 169.040798 50.271113 170.86298 50.271113 172.713444 50.133742 C 170.644803 49.931726 168.580202 49.648904 166.511561 49.277196 C 164.459082 48.889325 162.434884 48.388326 160.434929 47.766118 C 161.259153 48.521657 162.285393 49.091341 163.509608 49.479211 C 164.754025 49.85092 165.998442 50.069097 167.242858 50.133742 Z M 248.602668 58.707289 C 249.156192 61.866815 249.503659 65.066744 249.636989 68.311116 C 249.770319 71.539328 249.669311 74.771579 249.333965 78.015952 C 249.063264 80.840131 248.61883 83.749158 247.996621 86.73899 C 247.374413 89.732863 246.198681 92.427753 244.469427 94.83174 C 243.932065 95.587279 243.35026 96.326656 242.728051 97.049872 C 242.105843 97.773089 241.41899 98.443781 240.663451 99.065989 C 239.701856 100.043745 238.619052 100.855849 237.410998 101.51442 C 236.198903 102.168951 234.87368 102.597224 233.427248 102.79924 C 232.332323 102.863885 231.201035 102.863885 230.021263 102.79924 C 228.308169 103.0659 226.550633 102.93257 224.752693 102.395208 C 222.970914 101.841685 221.391151 101.00938 220.013404 99.898294 C 217.593256 97.833693 215.795316 95.336779 214.619584 92.411592 C 213.460014 89.486404 212.603468 86.512733 212.049945 83.486537 C 211.023705 76.880623 211.023705 70.27875 212.049945 63.672836 C 213.092346 57.05076 215.33472 50.848878 218.781108 45.067188 C 218.781108 45.067188 218.845753 44.998503 218.983124 44.865172 C 220.005323 42.109678 221.383071 39.628925 223.116366 37.426954 C 223.181011 37.293623 223.249696 37.245139 223.318381 37.277462 C 223.383026 37.309784 223.383026 37.394631 223.318381 37.527961 C 223.031519 38.016839 222.736576 38.521879 222.433552 39.043079 C 222.130529 39.548119 221.871949 40.0774 221.653772 40.630923 C 221.383071 41.184446 221.140652 41.758171 220.922475 42.344016 C 220.720459 42.917741 220.518443 43.479344 220.316428 44.032867 C 220.449758 43.968222 220.60329 43.948021 220.772983 43.984384 C 220.954797 44.016706 221.080047 44.032867 221.148732 44.032867 C 222.041642 42.117758 223.100204 40.436988 224.32442 38.990555 C 225.568836 37.527961 227.023349 36.631012 228.687959 36.295666 C 229.374812 36.024964 230.049545 35.806787 230.704076 35.637094 C 231.358607 35.45528 232.033339 35.394675 232.720193 35.463361 C 233.475732 35.33003 234.251472 35.277506 235.039333 35.309829 C 235.831235 35.346192 236.534249 35.540127 237.156458 35.891634 C 237.847352 36.295666 238.441278 36.87343 238.946317 37.628969 C 239.467518 38.388548 239.903872 39.107724 240.259419 39.798618 C 240.663451 39.665288 241.083643 39.649126 241.519997 39.750134 C 241.972513 39.847102 242.344222 40.142045 242.627044 40.630923 C 243.382582 42.00867 244.105799 43.41874 244.796692 44.865172 C 245.483546 46.311605 246.065351 47.79036 246.534027 49.301437 C 247.022906 50.816555 247.418856 52.368036 247.72188 53.968 C 248.041065 55.547763 248.331967 57.127526 248.602668 58.707289 Z M 235.693864 88.755107 C 236.602935 86.334959 237.225143 83.858246 237.560489 81.320929 C 237.895835 78.76341 238.065529 76.218012 238.065529 73.680694 C 237.863513 71.05853 237.661497 68.460608 237.459481 65.890968 C 237.257466 63.301127 236.946362 60.731487 236.526169 58.178008 C 236.392838 57.418429 236.251427 56.646729 236.097896 55.858868 C 235.964565 55.066966 235.831235 54.327588 235.693864 53.640735 C 235.427203 52.67914 235.116099 51.757949 234.760551 50.865039 C 234.425205 49.960009 234.081779 49.059019 233.730271 48.170149 C 233.592901 47.830763 233.443409 47.455014 233.273716 47.034821 C 233.108063 46.614628 232.922208 46.234839 232.720193 45.899493 C 232.570701 45.766162 232.42525 45.697477 232.291919 45.697477 L 231.78688 45.697477 C 231.504058 46.234839 231.241438 46.816644 231.007099 47.438852 C 230.772761 48.061061 230.578826 48.646906 230.425294 49.20043 C 229.887932 51.067055 229.390974 52.949841 228.938458 54.848789 C 228.485943 56.731576 228.122315 58.670926 227.855654 60.670882 C 227.366776 64.452616 227.15668 68.311116 227.225365 72.242342 C 227.310212 76.161447 227.653639 80.040149 228.259686 83.890569 C 228.477863 85.0663 228.340492 86.100621 227.855654 86.99353 C 226.409222 80.250245 225.839537 73.284743 226.142561 66.092984 C 226.461746 58.901224 228.098073 52.202383 231.055583 46.000501 C 230.788922 46.202516 230.526302 46.497459 230.275803 46.881289 C 230.041464 47.252998 229.823287 47.612586 229.621272 47.968134 C 228.643516 49.899404 227.811211 51.89936 227.124357 53.968 C 226.433464 56.01644 225.888021 58.109323 225.48399 60.242609 C 225.350659 60.529471 225.281974 60.670882 225.281974 60.670882 C 225.063797 61.830452 224.906225 63.018305 224.805217 64.226359 C 224.704209 65.438453 224.58704 66.622265 224.45371 67.781835 C 224.316339 71.292868 224.433508 74.791781 224.805217 78.270491 C 225.193087 81.749202 225.762771 85.175389 226.51831 88.553091 C 226.166803 88.823792 225.787013 88.993486 225.382982 89.058131 C 224.142605 89.328832 222.930511 89.118735 221.75478 88.427842 C 222.308303 89.538928 223.063841 90.682337 224.021396 91.858068 C 224.999152 93.017639 226.114279 93.890347 227.374857 94.480232 C 228.651596 95.066078 230.013182 95.150925 231.459615 94.730732 C 232.635346 94.326701 233.568659 93.502476 234.259552 92.2621 C 234.594899 91.704537 234.881761 91.142933 235.116099 90.573249 C 235.366599 89.983363 235.560534 89.377315 235.693864 88.755107 Z M 301.167158 98.964981 C 301.098473 99.033667 301.049989 99.001344 301.013626 98.863974 C 300.981304 98.730643 300.997465 98.629635 301.06615 98.56499 C 301.890374 98.209443 302.367132 97.587234 302.500462 96.698365 C 302.637833 95.805456 302.569147 94.815579 302.298446 93.724694 C 302.031785 92.613607 301.70452 91.563126 301.31665 90.573249 C 300.948981 89.56317 300.654038 88.815712 300.435861 88.326834 C 298.920743 84.141068 297.029876 80.209842 294.76326 76.529116 C 292.492603 72.832228 289.846197 69.337356 286.820002 66.04046 C 287.579581 67.002055 288.553297 68.428286 289.745189 70.327233 C 290.957284 72.21002 292.217862 74.310983 293.526924 76.630124 C 294.840026 78.933103 296.072322 81.268405 297.231892 83.640069 C 298.407623 86.007693 299.39346 88.209665 300.181321 90.241943 C 300.973223 92.278261 301.401496 93.882266 301.470182 95.057997 C 301.603512 96.435745 301.223723 97.696323 300.334853 98.839732 C 299.441944 99.966979 298.209648 100.528583 296.629885 100.528583 C 294.427914 100.528583 292.872393 99.562948 291.963322 97.631678 C 291.494646 96.738768 291.260307 95.773133 291.260307 94.730732 C 289.324997 90.884353 287.0503 87.203626 284.428136 83.688553 C 281.822133 80.17752 279.107042 76.872543 276.282862 73.781702 C 275.038445 72.403955 273.777867 71.042369 272.501128 69.696944 C 271.24055 68.35152 269.846641 67.135385 268.315362 66.04046 L 266.679035 66.646507 C 266.190157 66.848523 265.737642 67.042458 265.317449 67.228312 C 264.913417 67.393965 264.545749 67.547497 264.206362 67.680827 C 264.747765 73.462517 265.357852 79.211885 266.048746 84.924889 C 266.198237 86.031935 266.392173 87.159183 266.626511 88.302592 C 266.864889 89.42984 267.083066 90.581329 267.285082 91.757061 C 267.567904 92.714615 267.895169 93.765097 268.266878 94.908506 C 268.654749 96.031713 268.945651 97.183203 269.147667 98.362975 C 269.285038 98.762966 269.301199 99.195279 269.200191 99.647795 C 269.099183 100.10031 268.881006 100.496261 268.54566 100.831607 C 265.923496 103.033578 263.099316 103.587101 260.073121 102.496216 C 258.897389 102.629547 257.75398 102.370966 256.646934 101.712395 C 255.552009 101.057864 254.727785 100.177076 254.174262 99.065989 C 253.552054 97.623597 253.176304 96.12464 253.038934 94.58124 C 252.905603 93.0338 252.772273 91.502521 252.634902 89.991443 C 252.214709 86.48041 251.814718 82.965337 251.426848 79.454303 C 251.055139 75.94327 250.735954 72.428197 250.469294 68.917164 C 250.182431 65.40209 249.956174 61.899138 249.786481 58.404266 C 249.620828 54.889192 249.467296 51.345836 249.333965 47.766118 C 249.333965 46.788362 249.317804 45.838888 249.285482 44.917696 C 249.249119 43.992464 249.232957 43.075313 249.232957 42.170283 C 249.164272 41.208688 249.249119 40.234972 249.487497 39.245095 C 249.721836 38.235016 250.392528 37.596647 251.503614 37.329986 C 251.568259 37.12797 251.653106 36.942116 251.754114 36.772423 C 251.855121 36.586568 251.939968 36.396673 252.004613 36.194658 C 252.695507 34.950241 253.644981 34.178541 254.857075 33.875517 C 256.065129 33.556332 257.248941 33.637139 258.408511 34.126017 C 259.588283 34.614895 260.485233 35.394675 261.107441 36.469399 C 261.72965 37.527961 261.798335 38.748136 261.309457 40.125884 C 261.038756 41.152123 260.881184 42.26725 260.82866 43.479344 C 260.796337 44.671237 260.747853 45.85909 260.679168 47.034821 L 260.376144 56.335625 C 260.727652 55.984117 261.006433 55.774021 261.208449 55.705336 C 261.410465 53.503364 261.644803 51.301393 261.915504 49.099422 C 262.198326 46.89745 262.50943 44.731842 262.844777 42.598556 C 262.844777 42.529871 262.864978 42.513709 262.897301 42.546032 C 262.929623 42.578354 262.945784 42.598556 262.945784 42.598556 L 262.945784 43.329853 C 263.030631 45.244962 263.107397 47.135829 263.176082 48.998414 C 263.240727 50.848878 263.309413 52.739745 263.378098 54.671015 C 267.64467 52.80843 272.165782 50.707467 276.937393 48.368125 C 281.729206 46.032823 286.125068 43.697521 290.124979 41.36222 C 290.949203 40.873342 291.890596 40.303657 292.949159 39.649126 C 294.023882 38.990555 295.074364 38.841064 296.100604 39.192571 C 296.920788 39.394587 297.542996 39.839021 297.963189 40.529915 C 298.383382 41.216768 298.593478 41.976347 298.593478 42.800572 L 298.896501 42.497548 C 299.450025 42.077355 299.979306 42.077355 300.484345 42.497548 C 301.005546 42.897539 301.098473 43.410659 300.763127 44.032867 C 298.965187 47.41057 296.492514 50.23475 293.34915 52.505407 C 290.225987 54.772023 287.013937 56.840664 283.721081 58.707289 L 281.022151 60.141601 C 281.309013 60.343617 281.551432 60.553713 281.753448 60.77189 C 281.955463 60.973906 282.197882 61.175921 282.484745 61.377937 C 282.399898 61.042591 282.569591 60.739567 282.989784 60.468866 C 283.409977 60.186044 283.753403 60.218367 284.024104 60.569874 C 287.18363 63.531425 289.999729 66.747515 292.468361 70.226225 C 294.957195 73.688775 297.066239 77.385662 298.795494 81.320929 C 299.688403 83.252199 300.476264 85.203671 301.167158 87.167264 C 301.854012 89.118735 302.443897 91.094449 302.928735 93.094405 C 303.130751 94.116604 303.199436 95.268094 303.130751 96.544833 C 303.066106 97.821572 302.411575 98.629635 301.167158 98.964981 Z M 301.167158 98.964981 " stroke="#303030" stroke-width="8.26144" stroke-opacity="1" stroke-miterlimit="4"/><g fill="#ffffff" fill-opacity="1"><g transform="translate(38.631531, 213.83863)"><g><path d="M 57 -58.796875 C 56.863281 -58.398438 56.734375 -58.066406 56.609375 -57.796875 C 56.535156 -56.929688 56.363281 -56.066406 56.09375 -55.203125 C 55.832031 -54.335938 55.300781 -53.640625 54.5 -53.109375 C 54.164062 -52.835938 53.671875 -52.640625 53.015625 -52.515625 C 52.742188 -52.242188 52.507812 -52.109375 52.3125 -52.109375 C 49.78125 -51.640625 47.25 -51.171875 44.71875 -50.703125 C 42.1875 -50.242188 39.660156 -49.847656 37.140625 -49.515625 C 37.140625 -47.316406 37.117188 -45.117188 37.078125 -42.921875 C 37.046875 -40.722656 37.03125 -38.53125 37.03125 -36.34375 C 37.03125 -33.28125 37.046875 -30.234375 37.078125 -27.203125 C 37.117188 -24.171875 37.140625 -21.125 37.140625 -18.0625 C 37.203125 -16.332031 37.265625 -14.585938 37.328125 -12.828125 C 37.398438 -11.066406 37.46875 -9.320312 37.53125 -7.59375 C 37.46875 -6.394531 37.285156 -5.242188 36.984375 -4.140625 C 36.679688 -3.046875 36.066406 -2.128906 35.140625 -1.390625 L 35.140625 -1.59375 C 35.203125 -2.332031 35.234375 -3.050781 35.234375 -3.75 C 35.234375 -4.445312 35.269531 -5.128906 35.34375 -5.796875 L 35.34375 -9.578125 C 35.144531 -8.710938 34.976562 -7.648438 34.84375 -6.390625 C 34.707031 -5.128906 34.472656 -4 34.140625 -3 C 33.804688 -1.925781 33.109375 -1.125 32.046875 -0.59375 C 30.984375 -0.0625 29.914062 0.0664062 28.84375 -0.203125 C 26.78125 -0.867188 25.414062 -2.179688 24.75 -4.140625 C 24.09375 -6.109375 23.695312 -8.054688 23.5625 -9.984375 C 23.425781 -12.515625 23.375 -15.078125 23.40625 -17.671875 C 23.4375 -20.265625 23.488281 -22.828125 23.5625 -25.359375 C 23.695312 -27.890625 23.847656 -30.453125 24.015625 -33.046875 C 24.179688 -35.640625 24.296875 -38.234375 24.359375 -40.828125 L 24.5625 -45.21875 L 24.5625 -48.421875 C 23.894531 -48.421875 23.242188 -48.421875 22.609375 -48.421875 C 21.972656 -48.421875 21.328125 -48.421875 20.671875 -48.421875 C 17.941406 -48.421875 15.273438 -48.519531 12.671875 -48.71875 C 11.609375 -48.851562 10.5625 -49.035156 9.53125 -49.265625 C 8.5 -49.492188 7.519531 -49.875 6.59375 -50.40625 C 5.925781 -50.875 5.304688 -51.441406 4.734375 -52.109375 C 4.171875 -52.773438 3.722656 -53.507812 3.390625 -54.3125 C 2.390625 -54.84375 1.640625 -55.65625 1.140625 -56.75 C 0.648438 -57.851562 0.535156 -59.003906 0.796875 -60.203125 C 1.128906 -61.191406 1.742188 -62.085938 2.640625 -62.890625 C 3.546875 -63.691406 4.53125 -64.023438 5.59375 -63.890625 C 8.320312 -63.617188 11.050781 -63.398438 13.78125 -63.234375 C 16.507812 -63.066406 19.238281 -62.984375 21.96875 -62.984375 C 21.96875 -63.054688 21.984375 -63.109375 22.015625 -63.140625 C 22.046875 -63.171875 22.0625 -63.222656 22.0625 -63.296875 C 16.664062 -63.628906 11.273438 -64.226562 5.890625 -65.09375 C 5.753906 -65.09375 5.703125 -65.191406 5.734375 -65.390625 C 5.773438 -65.585938 5.859375 -65.65625 5.984375 -65.59375 C 12.972656 -65.1875 19.960938 -65.050781 26.953125 -65.1875 C 33.941406 -65.320312 40.894531 -65.6875 47.8125 -66.28125 C 48.34375 -66.414062 48.875 -66.5 49.40625 -66.53125 C 49.945312 -66.5625 50.445312 -66.613281 50.90625 -66.6875 C 51.175781 -66.6875 51.457031 -66.703125 51.75 -66.734375 C 52.050781 -66.765625 52.335938 -66.75 52.609375 -66.6875 C 53.335938 -66.820312 54.082031 -66.921875 54.84375 -66.984375 C 55.613281 -67.046875 56.367188 -67.113281 57.109375 -67.1875 C 57.566406 -67.25 57.84375 -67 57.9375 -66.4375 C 58.039062 -65.875 57.828125 -65.523438 57.296875 -65.390625 C 56.960938 -65.390625 56.734375 -65.351562 56.609375 -65.28125 C 56.867188 -65.15625 57.066406 -65.023438 57.203125 -64.890625 C 58.335938 -64.222656 58.882812 -63.171875 58.84375 -61.734375 C 58.8125 -60.304688 58.195312 -59.328125 57 -58.796875 Z M 12.671875 -51.109375 C 14.410156 -50.972656 16.175781 -50.972656 17.96875 -51.109375 C 15.96875 -51.304688 13.96875 -51.585938 11.96875 -51.953125 C 9.976562 -52.328125 8.019531 -52.8125 6.09375 -53.40625 C 6.882812 -52.675781 7.878906 -52.128906 9.078125 -51.765625 C 10.273438 -51.398438 11.472656 -51.179688 12.671875 -51.109375 Z M 12.671875 -51.109375 "/></g></g></g><g fill="#ffffff" fill-opacity="1"><g transform="translate(92.236276, 213.83863)"><g><path d="M 36.53125 -3 C 36.132812 -3.125 35.6875 -3.816406 35.1875 -5.078125 C 34.6875 -6.347656 34.15625 -7.914062 33.59375 -9.78125 C 33.03125 -11.644531 32.5 -13.570312 32 -15.5625 C 31.5 -17.5625 31.046875 -19.359375 30.640625 -20.953125 C 30.242188 -22.554688 29.976562 -23.722656 29.84375 -24.453125 L 22.0625 -24.359375 C 21.332031 -21.359375 20.695312 -18.378906 20.15625 -15.421875 C 19.625 -12.460938 19.226562 -9.453125 18.96875 -6.390625 C 18.96875 -5.785156 18.679688 -5.484375 18.109375 -5.484375 C 17.546875 -5.484375 17.300781 -5.785156 17.375 -6.390625 C 17.632812 -9.378906 18.015625 -12.390625 18.515625 -15.421875 C 19.015625 -18.453125 19.734375 -21.429688 20.671875 -24.359375 L 19.765625 -24.359375 C 19.429688 -23.160156 19.097656 -21.710938 18.765625 -20.015625 C 18.429688 -18.316406 18.113281 -16.648438 17.8125 -15.015625 C 17.519531 -13.390625 17.269531 -12.023438 17.0625 -10.921875 C 16.863281 -9.828125 16.765625 -9.28125 16.765625 -9.28125 L 16.171875 -4.796875 C 15.972656 -2.523438 15.207031 -0.894531 13.875 0.09375 C 12.539062 1.09375 11.078125 1.492188 9.484375 1.296875 C 7.890625 1.097656 6.539062 0.332031 5.4375 -1 C 4.34375 -2.332031 3.960938 -4.160156 4.296875 -6.484375 C 4.691406 -9.410156 5.15625 -12.335938 5.6875 -15.265625 C 6.21875 -18.203125 6.851562 -21.097656 7.59375 -23.953125 C 7.125 -23.890625 6.65625 -23.84375 6.1875 -23.8125 C 5.71875 -23.78125 5.285156 -23.765625 4.890625 -23.765625 C 5.023438 -24.097656 5.054688 -24.394531 4.984375 -24.65625 C 3.390625 -25.050781 2.226562 -25.914062 1.5 -27.25 C 0.769531 -28.582031 0.566406 -30.0625 0.890625 -31.6875 C 1.222656 -33.320312 2.15625 -34.820312 3.6875 -36.1875 C 5.21875 -37.550781 7.484375 -38.46875 10.484375 -38.9375 C 11.210938 -42.257812 12.007812 -45.535156 12.875 -48.765625 C 13.738281 -51.992188 14.804688 -55.140625 16.078125 -58.203125 C 16.671875 -59.535156 17.332031 -60.984375 18.0625 -62.546875 C 18.800781 -64.109375 19.71875 -65.46875 20.8125 -66.625 C 21.914062 -67.789062 23.296875 -68.375 24.953125 -68.375 C 25.816406 -68.445312 26.679688 -68.21875 27.546875 -67.6875 C 28.410156 -67.15625 29.046875 -66.488281 29.453125 -65.6875 C 30.910156 -65.625 32.125 -65.109375 33.09375 -64.140625 C 34.0625 -63.171875 34.609375 -61.890625 34.734375 -60.296875 C 34.867188 -58.296875 35.035156 -56.28125 35.234375 -54.25 C 35.429688 -52.226562 35.632812 -50.25 35.84375 -48.3125 C 35.90625 -48.25 35.96875 -48.21875 36.03125 -48.21875 C 36.101562 -49.945312 36.1875 -51.660156 36.28125 -53.359375 C 36.382812 -55.054688 36.535156 -56.738281 36.734375 -58.40625 C 36.734375 -58.664062 36.78125 -58.0625 36.875 -56.59375 C 36.976562 -55.132812 37.097656 -53.253906 37.234375 -50.953125 C 37.367188 -48.660156 37.5 -46.363281 37.625 -44.0625 C 37.757812 -41.769531 37.929688 -39.859375 38.140625 -38.328125 C 40.066406 -38.128906 41.5625 -37.476562 42.625 -36.375 C 43.6875 -35.28125 44.347656 -34.019531 44.609375 -32.59375 C 44.878906 -31.164062 44.75 -29.75 44.21875 -28.34375 C 43.6875 -26.945312 42.722656 -25.816406 41.328125 -24.953125 C 41.992188 -22.023438 42.691406 -18.710938 43.421875 -15.015625 C 44.148438 -11.328125 44.71875 -7.984375 45.125 -4.984375 C 45.382812 -2.722656 45.195312 -1.015625 44.5625 0.140625 C 43.9375 1.304688 43.109375 1.957031 42.078125 2.09375 C 41.046875 2.226562 40.015625 1.863281 38.984375 1 C 37.953125 0.132812 37.132812 -1.195312 36.53125 -3 Z M 21.765625 -37.328125 C 22.492188 -37.460938 23.441406 -37.546875 24.609375 -37.578125 C 25.773438 -37.617188 26.691406 -37.671875 27.359375 -37.734375 C 27.222656 -38.597656 27.070312 -39.828125 26.90625 -41.421875 C 26.738281 -43.023438 26.535156 -44.738281 26.296875 -46.5625 C 26.066406 -48.394531 25.785156 -50.078125 25.453125 -51.609375 C 24.660156 -48.816406 23.960938 -46.320312 23.359375 -44.125 C 22.765625 -41.925781 22.234375 -39.660156 21.765625 -37.328125 Z M 21.765625 -37.328125 "/></g></g></g><g fill="#ffffff" fill-opacity="1"><g transform="translate(134.760553, 213.83863)"><g><path d="M 56.203125 -4.984375 C 55.804688 -3.585938 55.007812 -2.570312 53.8125 -1.9375 C 52.613281 -1.3125 51.28125 -0.929688 49.8125 -0.796875 C 48.351562 -0.660156 46.988281 -0.5625 45.71875 -0.5 C 43.65625 -0.4375 41.59375 -0.519531 39.53125 -0.75 C 37.46875 -0.976562 35.40625 -1.128906 33.34375 -1.203125 C 30.476562 -1.328125 27.628906 -1.304688 24.796875 -1.140625 C 21.972656 -0.984375 19.164062 -0.738281 16.375 -0.40625 C 15.644531 0.0625 14.742188 0.296875 13.671875 0.296875 C 13.140625 0.296875 12.773438 0.265625 12.578125 0.203125 C 11.910156 0.265625 11.257812 0.363281 10.625 0.5 C 10 0.632812 9.382812 0.769531 8.78125 0.90625 C 7.851562 1.03125 6.988281 0.894531 6.1875 0.5 C 5.382812 0.101562 4.851562 -0.5625 4.59375 -1.5 C 4.53125 -1.632812 4.5 -1.800781 4.5 -2 C 4.09375 -2.59375 3.890625 -3.257812 3.890625 -4 C 3.890625 -5.125 4.253906 -6.019531 4.984375 -6.6875 C 5.722656 -7.351562 6.625 -7.71875 7.6875 -7.78125 C 7.820312 -7.78125 7.921875 -7.816406 7.984375 -7.890625 C 7.921875 -10.878906 7.769531 -13.867188 7.53125 -16.859375 C 7.300781 -19.859375 7.050781 -22.859375 6.78125 -25.859375 C 5.71875 -26.191406 4.835938 -26.722656 4.140625 -27.453125 C 3.441406 -28.179688 3.09375 -29.179688 3.09375 -30.453125 C 3.09375 -31.441406 3.359375 -32.300781 3.890625 -33.03125 C 4.421875 -33.769531 5.117188 -34.335938 5.984375 -34.734375 C 5.984375 -34.804688 5.96875 -34.859375 5.9375 -34.890625 C 5.90625 -34.921875 5.890625 -34.9375 5.890625 -34.9375 C 5.691406 -37.46875 5.488281 -39.976562 5.28125 -42.46875 C 5.082031 -44.96875 4.851562 -47.453125 4.59375 -49.921875 C 4.125 -50.179688 3.671875 -50.476562 3.234375 -50.8125 C 2.804688 -51.144531 2.394531 -51.445312 2 -51.71875 C 1.332031 -52.375 0.664062 -53.132812 0 -54 C -0.664062 -54.875 -1.097656 -55.804688 -1.296875 -56.796875 C -1.492188 -57.796875 -1.257812 -58.765625 -0.59375 -59.703125 C 0.40625 -61.023438 1.6875 -61.882812 3.25 -62.28125 C 4.8125 -62.6875 6.359375 -62.921875 7.890625 -62.984375 C 11.015625 -62.984375 13.972656 -62.488281 16.765625 -61.5 C 19.765625 -60.5 22.695312 -59.234375 25.5625 -57.703125 C 26.425781 -57.234375 27.820312 -56.398438 29.75 -55.203125 C 31.675781 -54.003906 33.820312 -52.539062 36.1875 -50.8125 C 38.550781 -49.082031 40.847656 -47.234375 43.078125 -45.265625 C 45.304688 -43.304688 47.164062 -41.34375 48.65625 -39.375 C 50.15625 -37.414062 51.019531 -35.550781 51.25 -33.78125 C 51.488281 -32.019531 50.773438 -30.507812 49.109375 -29.25 C 48.453125 -28.71875 47.753906 -28.269531 47.015625 -27.90625 C 46.285156 -27.539062 45.488281 -27.390625 44.625 -27.453125 C 43.488281 -27.585938 42.390625 -27.71875 41.328125 -27.84375 C 40.265625 -27.976562 39.066406 -28.113281 37.734375 -28.25 L 32.9375 -28.546875 C 33.269531 -28.410156 33.550781 -28.257812 33.78125 -28.09375 C 34.019531 -27.9375 34.273438 -27.789062 34.546875 -27.65625 C 35.742188 -26.914062 36.90625 -26.164062 38.03125 -25.40625 C 39.164062 -24.644531 40.265625 -23.828125 41.328125 -22.953125 C 45.921875 -19.359375 50.015625 -15.4375 53.609375 -11.1875 C 54.535156 -10.320312 55.28125 -9.390625 55.84375 -8.390625 C 56.414062 -7.390625 56.535156 -6.253906 56.203125 -4.984375 Z M 34.9375 -38.53125 C 34.34375 -39.195312 33.726562 -39.828125 33.09375 -40.421875 C 32.457031 -41.023438 31.804688 -41.628906 31.140625 -42.234375 C 30.472656 -42.765625 29.890625 -43.257812 29.390625 -43.71875 C 28.898438 -44.1875 28.390625 -44.585938 27.859375 -44.921875 C 26.453125 -45.847656 25 -46.726562 23.5 -47.5625 C 22.007812 -48.394531 20.597656 -49.046875 19.265625 -49.515625 C 18.796875 -49.648438 18.34375 -49.800781 17.90625 -49.96875 C 17.476562 -50.132812 17.035156 -50.25 16.578125 -50.3125 L 14.96875 -50.609375 C 14.90625 -50.609375 14.859375 -50.609375 14.828125 -50.609375 C 14.796875 -50.609375 14.742188 -50.609375 14.671875 -50.609375 C 15.140625 -48.484375 15.519531 -46.335938 15.8125 -44.171875 C 16.113281 -42.003906 16.398438 -39.828125 16.671875 -37.640625 C 19.929688 -38.097656 23.191406 -38.394531 26.453125 -38.53125 C 29.316406 -38.601562 32.144531 -38.601562 34.9375 -38.53125 Z M 40.328125 -12.28125 C 38.796875 -13.613281 37.195312 -14.878906 35.53125 -16.078125 C 33.875 -17.273438 32.144531 -18.367188 30.34375 -19.359375 C 28.613281 -20.296875 26.800781 -21.210938 24.90625 -22.109375 C 23.007812 -23.003906 21.097656 -23.722656 19.171875 -24.265625 C 18.898438 -24.390625 18.632812 -24.453125 18.375 -24.453125 L 19.5625 -15.578125 C 19.695312 -14.578125 19.832031 -13.578125 19.96875 -12.578125 C 20.101562 -11.578125 20.203125 -10.578125 20.265625 -9.578125 C 22.523438 -9.847656 24.785156 -10.050781 27.046875 -10.1875 C 29.046875 -10.25 31.039062 -10.226562 33.03125 -10.125 C 35.03125 -10.03125 37.03125 -9.816406 39.03125 -9.484375 C 40.757812 -9.285156 42.488281 -8.984375 44.21875 -8.578125 C 43.625 -9.242188 43.007812 -9.894531 42.375 -10.53125 C 41.738281 -11.164062 41.054688 -11.75 40.328125 -12.28125 Z M 40.328125 -12.28125 "/></g></g></g><g fill="#ffffff" fill-opacity="1"><g transform="translate(184.372344, 213.83863)"><g><path d="M 57 -58.796875 C 56.863281 -58.398438 56.734375 -58.066406 56.609375 -57.796875 C 56.535156 -56.929688 56.363281 -56.066406 56.09375 -55.203125 C 55.832031 -54.335938 55.300781 -53.640625 54.5 -53.109375 C 54.164062 -52.835938 53.671875 -52.640625 53.015625 -52.515625 C 52.742188 -52.242188 52.507812 -52.109375 52.3125 -52.109375 C 49.78125 -51.640625 47.25 -51.171875 44.71875 -50.703125 C 42.1875 -50.242188 39.660156 -49.847656 37.140625 -49.515625 C 37.140625 -47.316406 37.117188 -45.117188 37.078125 -42.921875 C 37.046875 -40.722656 37.03125 -38.53125 37.03125 -36.34375 C 37.03125 -33.28125 37.046875 -30.234375 37.078125 -27.203125 C 37.117188 -24.171875 37.140625 -21.125 37.140625 -18.0625 C 37.203125 -16.332031 37.265625 -14.585938 37.328125 -12.828125 C 37.398438 -11.066406 37.46875 -9.320312 37.53125 -7.59375 C 37.46875 -6.394531 37.285156 -5.242188 36.984375 -4.140625 C 36.679688 -3.046875 36.066406 -2.128906 35.140625 -1.390625 L 35.140625 -1.59375 C 35.203125 -2.332031 35.234375 -3.050781 35.234375 -3.75 C 35.234375 -4.445312 35.269531 -5.128906 35.34375 -5.796875 L 35.34375 -9.578125 C 35.144531 -8.710938 34.976562 -7.648438 34.84375 -6.390625 C 34.707031 -5.128906 34.472656 -4 34.140625 -3 C 33.804688 -1.925781 33.109375 -1.125 32.046875 -0.59375 C 30.984375 -0.0625 29.914062 0.0664062 28.84375 -0.203125 C 26.78125 -0.867188 25.414062 -2.179688 24.75 -4.140625 C 24.09375 -6.109375 23.695312 -8.054688 23.5625 -9.984375 C 23.425781 -12.515625 23.375 -15.078125 23.40625 -17.671875 C 23.4375 -20.265625 23.488281 -22.828125 23.5625 -25.359375 C 23.695312 -27.890625 23.847656 -30.453125 24.015625 -33.046875 C 24.179688 -35.640625 24.296875 -38.234375 24.359375 -40.828125 L 24.5625 -45.21875 L 24.5625 -48.421875 C 23.894531 -48.421875 23.242188 -48.421875 22.609375 -48.421875 C 21.972656 -48.421875 21.328125 -48.421875 20.671875 -48.421875 C 17.941406 -48.421875 15.273438 -48.519531 12.671875 -48.71875 C 11.609375 -48.851562 10.5625 -49.035156 9.53125 -49.265625 C 8.5 -49.492188 7.519531 -49.875 6.59375 -50.40625 C 5.925781 -50.875 5.304688 -51.441406 4.734375 -52.109375 C 4.171875 -52.773438 3.722656 -53.507812 3.390625 -54.3125 C 2.390625 -54.84375 1.640625 -55.65625 1.140625 -56.75 C 0.648438 -57.851562 0.535156 -59.003906 0.796875 -60.203125 C 1.128906 -61.191406 1.742188 -62.085938 2.640625 -62.890625 C 3.546875 -63.691406 4.53125 -64.023438 5.59375 -63.890625 C 8.320312 -63.617188 11.050781 -63.398438 13.78125 -63.234375 C 16.507812 -63.066406 19.238281 -62.984375 21.96875 -62.984375 C 21.96875 -63.054688 21.984375 -63.109375 22.015625 -63.140625 C 22.046875 -63.171875 22.0625 -63.222656 22.0625 -63.296875 C 16.664062 -63.628906 11.273438 -64.226562 5.890625 -65.09375 C 5.753906 -65.09375 5.703125 -65.191406 5.734375 -65.390625 C 5.773438 -65.585938 5.859375 -65.65625 5.984375 -65.59375 C 12.972656 -65.1875 19.960938 -65.050781 26.953125 -65.1875 C 33.941406 -65.320312 40.894531 -65.6875 47.8125 -66.28125 C 48.34375 -66.414062 48.875 -66.5 49.40625 -66.53125 C 49.945312 -66.5625 50.445312 -66.613281 50.90625 -66.6875 C 51.175781 -66.6875 51.457031 -66.703125 51.75 -66.734375 C 52.050781 -66.765625 52.335938 -66.75 52.609375 -66.6875 C 53.335938 -66.820312 54.082031 -66.921875 54.84375 -66.984375 C 55.613281 -67.046875 56.367188 -67.113281 57.109375 -67.1875 C 57.566406 -67.25 57.84375 -67 57.9375 -66.4375 C 58.039062 -65.875 57.828125 -65.523438 57.296875 -65.390625 C 56.960938 -65.390625 56.734375 -65.351562 56.609375 -65.28125 C 56.867188 -65.15625 57.066406 -65.023438 57.203125 -64.890625 C 58.335938 -64.222656 58.882812 -63.171875 58.84375 -61.734375 C 58.8125 -60.304688 58.195312 -59.328125 57 -58.796875 Z M 12.671875 -51.109375 C 14.410156 -50.972656 16.175781 -50.972656 17.96875 -51.109375 C 15.96875 -51.304688 13.96875 -51.585938 11.96875 -51.953125 C 9.976562 -52.328125 8.019531 -52.8125 6.09375 -53.40625 C 6.882812 -52.675781 7.878906 -52.128906 9.078125 -51.765625 C 10.273438 -51.398438 11.472656 -51.179688 12.671875 -51.109375 Z M 12.671875 -51.109375 "/></g></g></g><g fill="#ffffff" fill-opacity="1"><g transform="translate(237.977092, 213.83863)"><g><path d="M 37.734375 -42.828125 C 38.265625 -39.765625 38.597656 -36.664062 38.734375 -33.53125 C 38.867188 -30.40625 38.769531 -27.28125 38.4375 -24.15625 C 38.164062 -21.425781 37.726562 -18.613281 37.125 -15.71875 C 36.53125 -12.820312 35.398438 -10.210938 33.734375 -7.890625 C 33.203125 -7.148438 32.632812 -6.429688 32.03125 -5.734375 C 31.4375 -5.035156 30.773438 -4.390625 30.046875 -3.796875 C 29.117188 -2.859375 28.070312 -2.070312 26.90625 -1.4375 C 25.738281 -0.8125 24.457031 -0.398438 23.0625 -0.203125 C 22 -0.128906 20.898438 -0.128906 19.765625 -0.203125 C 18.097656 0.0664062 16.398438 -0.0625 14.671875 -0.59375 C 12.941406 -1.125 11.410156 -1.925781 10.078125 -3 C 7.753906 -4.988281 6.023438 -7.394531 4.890625 -10.21875 C 3.753906 -13.050781 2.921875 -15.9375 2.390625 -18.875 C 1.398438 -25.257812 1.398438 -31.644531 2.390625 -38.03125 C 3.390625 -44.425781 5.554688 -50.414062 8.890625 -56 C 8.890625 -56 8.953125 -56.066406 9.078125 -56.203125 C 10.078125 -58.867188 11.410156 -61.265625 13.078125 -63.390625 C 13.140625 -63.523438 13.203125 -63.570312 13.265625 -63.53125 C 13.335938 -63.5 13.34375 -63.421875 13.28125 -63.296875 C 13.007812 -62.828125 12.722656 -62.34375 12.421875 -61.84375 C 12.128906 -61.34375 11.882812 -60.828125 11.6875 -60.296875 C 11.414062 -59.765625 11.179688 -59.210938 10.984375 -58.640625 C 10.785156 -58.078125 10.582031 -57.53125 10.375 -57 C 10.507812 -57.070312 10.660156 -57.085938 10.828125 -57.046875 C 10.992188 -57.015625 11.113281 -57 11.1875 -57 C 12.050781 -58.863281 13.082031 -60.492188 14.28125 -61.890625 C 15.476562 -63.285156 16.875 -64.148438 18.46875 -64.484375 C 19.132812 -64.753906 19.78125 -64.972656 20.40625 -65.140625 C 21.039062 -65.304688 21.691406 -65.351562 22.359375 -65.28125 C 23.085938 -65.414062 23.832031 -65.46875 24.59375 -65.4375 C 25.363281 -65.40625 26.050781 -65.222656 26.65625 -64.890625 C 27.320312 -64.492188 27.90625 -63.925781 28.40625 -63.1875 C 28.90625 -62.457031 29.320312 -61.757812 29.65625 -61.09375 C 30.050781 -61.226562 30.460938 -61.242188 30.890625 -61.140625 C 31.328125 -61.046875 31.675781 -60.765625 31.9375 -60.296875 C 32.675781 -58.960938 33.378906 -57.597656 34.046875 -56.203125 C 34.710938 -54.804688 35.273438 -53.375 35.734375 -51.90625 C 36.203125 -50.445312 36.582031 -48.953125 36.875 -47.421875 C 37.175781 -45.890625 37.460938 -44.359375 37.734375 -42.828125 Z M 25.25 -13.78125 C 26.113281 -16.101562 26.710938 -18.492188 27.046875 -20.953125 C 27.378906 -23.421875 27.546875 -25.882812 27.546875 -28.34375 C 27.347656 -30.875 27.148438 -33.382812 26.953125 -35.875 C 26.753906 -38.375 26.457031 -40.859375 26.0625 -43.328125 C 25.925781 -44.054688 25.789062 -44.800781 25.65625 -45.5625 C 25.519531 -46.332031 25.382812 -47.050781 25.25 -47.71875 C 24.988281 -48.644531 24.691406 -49.539062 24.359375 -50.40625 C 24.023438 -51.28125 23.691406 -52.148438 23.359375 -53.015625 C 23.222656 -53.347656 23.070312 -53.710938 22.90625 -54.109375 C 22.738281 -54.503906 22.554688 -54.867188 22.359375 -55.203125 C 22.222656 -55.335938 22.09375 -55.40625 21.96875 -55.40625 L 21.46875 -55.40625 C 21.195312 -54.875 20.941406 -54.304688 20.703125 -53.703125 C 20.472656 -53.109375 20.296875 -52.546875 20.171875 -52.015625 C 19.628906 -50.210938 19.140625 -48.394531 18.703125 -46.5625 C 18.273438 -44.738281 17.929688 -42.859375 17.671875 -40.921875 C 17.203125 -37.265625 17 -33.539062 17.0625 -29.75 C 17.132812 -25.957031 17.46875 -22.195312 18.0625 -18.46875 C 18.269531 -17.332031 18.140625 -16.332031 17.671875 -15.46875 C 16.273438 -21.988281 15.722656 -28.726562 16.015625 -35.6875 C 16.316406 -42.644531 17.898438 -49.117188 20.765625 -55.109375 C 20.492188 -54.910156 20.242188 -54.625 20.015625 -54.25 C 19.785156 -53.882812 19.566406 -53.535156 19.359375 -53.203125 C 18.429688 -51.335938 17.632812 -49.40625 16.96875 -47.40625 C 16.300781 -45.414062 15.769531 -43.390625 15.375 -41.328125 C 15.238281 -41.054688 15.171875 -40.921875 15.171875 -40.921875 C 14.972656 -39.796875 14.820312 -38.648438 14.71875 -37.484375 C 14.625 -36.316406 14.507812 -35.171875 14.375 -34.046875 C 14.238281 -30.648438 14.351562 -27.269531 14.71875 -23.90625 C 15.09375 -20.550781 15.644531 -17.238281 16.375 -13.96875 C 16.039062 -13.707031 15.675781 -13.546875 15.28125 -13.484375 C 14.082031 -13.210938 12.914062 -13.410156 11.78125 -14.078125 C 12.3125 -13.015625 13.039062 -11.914062 13.96875 -10.78125 C 14.90625 -9.644531 15.988281 -8.796875 17.21875 -8.234375 C 18.445312 -7.671875 19.757812 -7.585938 21.15625 -7.984375 C 22.289062 -8.378906 23.191406 -9.175781 23.859375 -10.375 C 24.191406 -10.914062 24.472656 -11.46875 24.703125 -12.03125 C 24.941406 -12.59375 25.125 -13.175781 25.25 -13.78125 Z M 25.25 -13.78125 "/></g></g></g><g fill="#ffffff" fill-opacity="1"><g transform="translate(275.609997, 213.83863)"><g><path d="M 50.90625 -3.890625 C 50.84375 -3.828125 50.796875 -3.859375 50.765625 -3.984375 C 50.734375 -4.117188 50.75 -4.222656 50.8125 -4.296875 C 51.613281 -4.628906 52.078125 -5.226562 52.203125 -6.09375 C 52.335938 -6.957031 52.269531 -7.921875 52 -8.984375 C 51.738281 -10.046875 51.425781 -11.0625 51.0625 -12.03125 C 50.695312 -13 50.414062 -13.710938 50.21875 -14.171875 C 48.75 -18.234375 46.914062 -22.046875 44.71875 -25.609375 C 42.519531 -29.171875 39.957031 -32.546875 37.03125 -35.734375 C 37.769531 -34.804688 38.71875 -33.425781 39.875 -31.59375 C 41.039062 -29.757812 42.253906 -27.726562 43.515625 -25.5 C 44.785156 -23.269531 45.984375 -21.007812 47.109375 -18.71875 C 48.242188 -16.425781 49.191406 -14.296875 49.953125 -12.328125 C 50.722656 -10.367188 51.144531 -8.820312 51.21875 -7.6875 C 51.34375 -6.351562 50.972656 -5.132812 50.109375 -4.03125 C 49.242188 -2.9375 48.046875 -2.390625 46.515625 -2.390625 C 44.390625 -2.390625 42.894531 -3.320312 42.03125 -5.1875 C 41.5625 -6.050781 41.328125 -6.984375 41.328125 -7.984375 C 39.460938 -11.710938 37.265625 -15.273438 34.734375 -18.671875 C 32.210938 -22.066406 29.585938 -25.257812 26.859375 -28.25 C 25.660156 -29.582031 24.441406 -30.894531 23.203125 -32.1875 C 21.972656 -33.488281 20.628906 -34.671875 19.171875 -35.734375 L 17.5625 -35.140625 C 17.101562 -34.941406 16.671875 -34.757812 16.265625 -34.59375 C 15.867188 -34.425781 15.503906 -34.273438 15.171875 -34.140625 C 15.703125 -28.546875 16.300781 -22.988281 16.96875 -17.46875 C 17.101562 -16.40625 17.285156 -15.320312 17.515625 -14.21875 C 17.753906 -13.125 17.972656 -12.007812 18.171875 -10.875 C 18.429688 -9.945312 18.742188 -8.929688 19.109375 -7.828125 C 19.484375 -6.734375 19.769531 -5.625 19.96875 -4.5 C 20.101562 -4.09375 20.117188 -3.671875 20.015625 -3.234375 C 19.910156 -2.804688 19.691406 -2.425781 19.359375 -2.09375 C 16.835938 0.03125 14.113281 0.5625 11.1875 -0.5 C 10.050781 -0.363281 8.953125 -0.613281 7.890625 -1.25 C 6.828125 -1.882812 6.023438 -2.734375 5.484375 -3.796875 C 4.890625 -5.191406 4.523438 -6.632812 4.390625 -8.125 C 4.253906 -9.625 4.125 -11.109375 4 -12.578125 C 3.59375 -15.972656 3.207031 -19.367188 2.84375 -22.765625 C 2.476562 -26.160156 2.160156 -29.550781 1.890625 -32.9375 C 1.628906 -36.332031 1.414062 -39.726562 1.25 -43.125 C 1.082031 -46.519531 0.929688 -49.945312 0.796875 -53.40625 C 0.796875 -54.34375 0.78125 -55.257812 0.75 -56.15625 C 0.71875 -57.050781 0.703125 -57.929688 0.703125 -58.796875 C 0.628906 -59.734375 0.707031 -60.679688 0.9375 -61.640625 C 1.175781 -62.609375 1.828125 -63.222656 2.890625 -63.484375 C 2.960938 -63.691406 3.046875 -63.878906 3.140625 -64.046875 C 3.242188 -64.210938 3.328125 -64.394531 3.390625 -64.59375 C 4.054688 -65.789062 4.972656 -66.535156 6.140625 -66.828125 C 7.304688 -67.128906 8.453125 -67.046875 9.578125 -66.578125 C 10.710938 -66.117188 11.578125 -65.375 12.171875 -64.34375 C 12.773438 -63.3125 12.84375 -62.128906 12.375 -60.796875 C 12.113281 -59.796875 11.960938 -58.710938 11.921875 -57.546875 C 11.890625 -56.378906 11.84375 -55.234375 11.78125 -54.109375 L 11.484375 -45.125 C 11.816406 -45.457031 12.082031 -45.65625 12.28125 -45.71875 C 12.476562 -47.851562 12.707031 -49.984375 12.96875 -52.109375 C 13.238281 -54.242188 13.539062 -56.34375 13.875 -58.40625 C 13.875 -58.46875 13.890625 -58.484375 13.921875 -58.453125 C 13.953125 -58.421875 13.96875 -58.40625 13.96875 -58.40625 L 13.96875 -57.703125 C 14.039062 -55.835938 14.109375 -54.003906 14.171875 -52.203125 C 14.242188 -50.410156 14.3125 -48.582031 14.375 -46.71875 C 18.5 -48.519531 22.875 -50.550781 27.5 -52.8125 C 32.125 -55.070312 36.367188 -57.332031 40.234375 -59.59375 C 41.023438 -60.0625 41.9375 -60.609375 42.96875 -61.234375 C 44 -61.867188 45.015625 -62.019531 46.015625 -61.6875 C 46.816406 -61.488281 47.414062 -61.054688 47.8125 -60.390625 C 48.21875 -59.722656 48.421875 -58.992188 48.421875 -58.203125 L 48.71875 -58.5 C 49.25 -58.894531 49.765625 -58.894531 50.265625 -58.5 C 50.765625 -58.101562 50.847656 -57.601562 50.515625 -57 C 48.785156 -53.738281 46.40625 -51.007812 43.375 -48.8125 C 40.34375 -46.613281 37.234375 -44.617188 34.046875 -42.828125 L 31.453125 -41.421875 C 31.710938 -41.222656 31.941406 -41.023438 32.140625 -40.828125 C 32.335938 -40.628906 32.570312 -40.429688 32.84375 -40.234375 C 32.78125 -40.566406 32.945312 -40.863281 33.34375 -41.125 C 33.738281 -41.394531 34.070312 -41.363281 34.34375 -41.03125 C 37.40625 -38.164062 40.132812 -35.050781 42.53125 -31.6875 C 44.925781 -28.332031 46.953125 -24.757812 48.609375 -20.96875 C 49.484375 -19.101562 50.25 -17.222656 50.90625 -15.328125 C 51.570312 -13.429688 52.140625 -11.515625 52.609375 -9.578125 C 52.804688 -8.585938 52.867188 -7.472656 52.796875 -6.234375 C 52.734375 -5.003906 52.101562 -4.222656 50.90625 -3.890625 Z M 50.90625 -3.890625 "/></g></g></g></svg>