<svg xmlns="http://www.w3.org/2000/svg" xmlns:xlink="http://www.w3.org/1999/xlink" width="500" zoomAndPan="magnify" viewBox="0 0 375 374.999991" height="500" preserveAspectRatio="xMidYMid meet" version="1.0"><defs><g/><clipPath id="05063a28a9"><path d="M 37.5 37.5 L 337.5 37.5 L 337.5 337.5 L 37.5 337.5 Z M 37.5 37.5 " clip-rule="nonzero"/></clipPath><clipPath id="fddcf65b31"><path d="M 187.5 37.5 C 104.65625 37.5 37.5 104.65625 37.5 187.5 C 37.5 270.34375 104.65625 337.5 187.5 337.5 C 270.34375 337.5 337.5 270.34375 337.5 187.5 C 337.5 104.65625 270.34375 37.5 187.5 37.5 Z M 187.5 37.5 " clip-rule="nonzero"/></clipPath><clipPath id="177413b219"><path d="M 76.941406 226.71875 L 108.703125 226.71875 L 108.703125 315.21875 L 76.941406 315.21875 Z M 76.941406 226.71875 " clip-rule="nonzero"/></clipPath><clipPath id="d6ec374227"><path d="M 283.59375 213.894531 L 337.5 213.894531 L 337.5 239.515625 L 283.59375 239.515625 Z M 283.59375 213.894531 " clip-rule="nonzero"/></clipPath></defs><g clip-path="url(#05063a28a9)"><g clip-path="url(#fddcf65b31)"><path fill="#272727" d="M 37.5 37.5 L 337.5 37.5 L 337.5 337.5 L 37.5 337.5 Z M 37.5 37.5 " fill-opacity="1" fill-rule="nonzero"/></g></g><g fill="#5dccf5" fill-opacity="1"><g transform="translate(84.994753, 239.400325)"><g><path d="M 73.4375 -80.015625 L 73.4375 0 L 38.90625 0 L 38.90625 -80.015625 L 3.59375 -80.015625 L 3.59375 -107.515625 L 108.609375 -107.515625 L 108.609375 -80.015625 Z M 73.4375 -80.015625 "/></g></g></g><path stroke-linecap="butt" transform="matrix(0.75, 0, 0, 0.75, 119.961465, 78.26212)" fill="none" stroke-linejoin="miter" d="M 154.093057 69.166136 C 165.353475 69.166136 175.103475 70.947386 183.343059 74.504678 C 191.613893 78.03072 198.009727 83.067178 202.520144 89.614054 C 207.061811 96.124471 209.332644 103.686971 209.332644 112.301555 C 209.332644 120.338014 207.317019 127.629681 203.280561 134.171348 C 199.244102 140.681765 194.176393 146.447391 188.072226 151.468224 C 181.968059 156.4526 173.5566 162.556767 162.843058 169.780726 C 156.874307 173.681767 152.025349 177.020309 148.296182 179.80156 L 210.962853 179.80156 L 210.962853 214.999479 L 92.238887 214.999479 L 92.238887 204.978645 C 92.238887 197.619269 93.936803 191.056769 97.327429 185.296352 C 100.718054 179.530726 105.686804 173.728642 112.228471 167.895309 C 118.910763 162.067183 128.488889 154.145308 140.968056 144.140099 C 150.973265 136.239057 157.994099 130.202598 162.030558 126.035931 C 166.061808 121.864056 168.082642 117.759889 168.082642 113.72343 C 168.082642 109.416138 166.58785 105.806763 163.603475 102.890096 C 160.619099 99.973429 156.129516 98.515096 150.124307 98.515096 C 143.884723 98.515096 138.952431 100.327596 135.322223 103.957805 C 131.728472 107.551555 129.931597 112.265097 129.931597 118.09843 L 129.931597 122.270306 L 92.848262 122.270306 C 92.712845 121.186972 92.645137 119.660931 92.645137 117.69218 C 92.645137 102.702596 97.88472 90.869262 108.363888 82.18697 C 118.843055 73.504678 134.087848 69.166136 154.093057 69.166136 Z M 154.093057 69.166136 " stroke="#272727" stroke-width="29.690445" stroke-opacity="1" stroke-miterlimit="4"/><g fill="#964ff6" fill-opacity="1"><g transform="translate(181.473179, 239.51211)"><g><path d="M 54.0625 -109.390625 C 62.5 -109.390625 69.816406 -108.0625 76.015625 -105.40625 C 82.222656 -102.75 87.019531 -98.972656 90.40625 -94.078125 C 93.789062 -89.179688 95.484375 -83.5 95.484375 -77.03125 C 95.484375 -70.988281 93.972656 -65.519531 90.953125 -60.625 C 87.929688 -55.726562 84.125 -51.40625 79.53125 -47.65625 C 74.945312 -43.90625 68.644531 -39.320312 60.625 -33.90625 C 56.144531 -30.988281 52.5 -28.488281 49.6875 -26.40625 L 96.734375 -26.40625 L 96.734375 0 L 7.65625 0 L 7.65625 -7.5 C 7.65625 -13.019531 8.929688 -17.941406 11.484375 -22.265625 C 14.035156 -26.585938 17.757812 -30.9375 22.65625 -35.3125 C 27.65625 -39.6875 34.84375 -45.625 44.21875 -53.125 C 51.71875 -59.0625 56.976562 -63.59375 60 -66.71875 C 63.019531 -69.84375 64.53125 -72.914062 64.53125 -75.9375 C 64.53125 -79.175781 63.410156 -81.890625 61.171875 -84.078125 C 58.929688 -86.265625 55.570312 -87.359375 51.09375 -87.359375 C 46.40625 -87.359375 42.707031 -86.003906 40 -83.296875 C 37.289062 -80.585938 35.9375 -77.039062 35.9375 -72.65625 L 35.9375 -69.53125 L 8.125 -69.53125 C 8.019531 -70.363281 7.96875 -71.507812 7.96875 -72.96875 C 7.96875 -84.226562 11.898438 -93.113281 19.765625 -99.625 C 27.628906 -106.132812 39.0625 -109.390625 54.0625 -109.390625 Z M 54.0625 -109.390625 "/></g></g></g><g clip-path="url(#177413b219)"><path fill="#ffffff" d="M 76.941406 226.71875 L 108.703125 226.71875 L 108.703125 315.171875 L 76.941406 315.171875 Z M 76.941406 226.71875 " fill-opacity="1" fill-rule="nonzero"/></g><g clip-path="url(#d6ec374227)"><path fill="#ffffff" d="M 283.59375 213.894531 L 337.539062 213.894531 L 337.539062 239.515625 L 283.59375 239.515625 Z M 283.59375 213.894531 " fill-opacity="1" fill-rule="nonzero"/></g><path stroke-linecap="butt" transform="matrix(0.75, -0.000000000000000372, 0.000000000000000372, 0.75, 76.942396, 116.714992)" fill="none" stroke-linejoin="miter" d="M -0.00132 1.999802 L 65.186184 1.999802 " stroke="#ffffff" stroke-width="4" stroke-opacity="1" stroke-miterlimit="4"/><g fill="#ffffff" fill-opacity="1"><g transform="translate(170.14284, 265.444142)"><g><path d="M 0.984375 -13.625 L 5.96875 -13.625 C 7.351562 -13.625 8.472656 -13.265625 9.328125 -12.546875 C 10.191406 -11.835938 10.625 -10.796875 10.625 -9.421875 C 10.625 -8.054688 10.1875 -6.984375 9.3125 -6.203125 C 8.445312 -5.429688 7.332031 -5.046875 5.96875 -5.046875 L 4.09375 -5.046875 L 4.09375 0 L 0.984375 0 Z M 4.09375 -7.53125 L 4.96875 -7.53125 C 5.664062 -7.53125 6.234375 -7.671875 6.671875 -7.953125 C 7.117188 -8.234375 7.34375 -8.691406 7.34375 -9.328125 C 7.34375 -9.984375 7.117188 -10.445312 6.671875 -10.71875 C 6.234375 -11 5.664062 -11.140625 4.96875 -11.140625 L 4.09375 -11.140625 Z M 4.09375 -7.53125 "/></g></g></g><g fill="#ffffff" fill-opacity="1"><g transform="translate(182.213651, 265.444142)"><g><path d="M 0.984375 -13.625 L 4.9375 -13.625 C 6.832031 -13.625 8.453125 -12.976562 9.796875 -11.6875 C 11.140625 -10.394531 11.8125 -8.773438 11.8125 -6.828125 C 11.8125 -4.859375 11.140625 -3.226562 9.796875 -1.9375 C 8.460938 -0.644531 6.84375 0 4.9375 0 L 0.984375 0 Z M 4.09375 -2.78125 L 4.578125 -2.78125 C 5.710938 -2.78125 6.640625 -3.160156 7.359375 -3.921875 C 8.078125 -4.691406 8.441406 -5.648438 8.453125 -6.796875 C 8.453125 -7.953125 8.09375 -8.914062 7.375 -9.6875 C 6.65625 -10.457031 5.722656 -10.84375 4.578125 -10.84375 L 4.09375 -10.84375 Z M 4.09375 -2.78125 "/></g></g></g><g fill="#ffffff" fill-opacity="1"><g transform="translate(195.473308, 265.444142)"><g><path d="M 8.875 -13.625 L 8.875 -10.90625 L 4.09375 -10.90625 L 4.09375 -8.1875 L 8.5 -8.1875 L 8.5 -5.46875 L 4.09375 -5.46875 L 4.09375 0 L 0.984375 0 L 0.984375 -13.625 Z M 8.875 -13.625 "/></g></g></g><g fill="#ffffff" fill-opacity="1"><g transform="translate(143.121409, 279.647357)"><g><path d="M 4.453125 -5.71875 L 4.453125 -5.140625 L 2.671875 -5.140625 L 2.671875 0 L 2 0 L 2 -5.140625 L 0.21875 -5.140625 L 0.21875 -5.71875 Z M 4.453125 -5.71875 "/></g></g></g><g fill="#ffffff" fill-opacity="1"><g transform="translate(152.51345, 279.647357)"><g><path d="M 5.140625 0 L 4.421875 0 L 3.890625 -1.5625 L 1.46875 -1.5625 L 0.9375 0 L 0.234375 0 L 2.21875 -5.71875 L 3.15625 -5.71875 Z M 2.625 -5.015625 L 1.65625 -2.125 L 3.703125 -2.125 L 2.734375 -5.015625 Z M 2.625 -5.015625 "/></g></g></g><g fill="#ffffff" fill-opacity="1"><g transform="translate(162.608614, 279.647357)"><g><path d="M 0.859375 0 L 0.859375 -5.71875 L 3.03125 -5.71875 C 3.382812 -5.71875 3.679688 -5.660156 3.921875 -5.546875 C 4.171875 -5.429688 4.351562 -5.269531 4.46875 -5.0625 C 4.59375 -4.851562 4.65625 -4.609375 4.65625 -4.328125 C 4.65625 -4.078125 4.585938 -3.851562 4.453125 -3.65625 C 4.328125 -3.457031 4.140625 -3.300781 3.890625 -3.1875 L 3.890625 -3.109375 C 4.265625 -3.015625 4.550781 -2.84375 4.75 -2.59375 C 4.945312 -2.34375 5.046875 -2.03125 5.046875 -1.65625 C 5.046875 -1.125 4.890625 -0.710938 4.578125 -0.421875 C 4.265625 -0.140625 3.800781 0 3.1875 0 Z M 3 -3.3125 C 3.3125 -3.3125 3.554688 -3.394531 3.734375 -3.5625 C 3.910156 -3.726562 4 -3.957031 4 -4.25 C 4 -4.550781 3.910156 -4.773438 3.734375 -4.921875 C 3.566406 -5.078125 3.320312 -5.15625 3 -5.15625 L 1.53125 -5.15625 L 1.53125 -3.3125 Z M 3.140625 -0.5625 C 3.953125 -0.5625 4.359375 -0.925781 4.359375 -1.65625 C 4.359375 -2.394531 3.953125 -2.765625 3.140625 -2.765625 L 1.53125 -2.765625 L 1.53125 -0.5625 Z M 3.140625 -0.5625 "/></g></g></g><g fill="#ffffff" fill-opacity="1"><g transform="translate(172.832684, 279.647357)"><g/></g></g><g fill="#ffffff" fill-opacity="1"><g transform="translate(179.521606, 279.647357)"><g><path d="M 4.453125 -5.71875 L 4.453125 -5.140625 L 2.671875 -5.140625 L 2.671875 0 L 2 0 L 2 -5.140625 L 0.21875 -5.140625 L 0.21875 -5.71875 Z M 4.453125 -5.71875 "/></g></g></g><g fill="#ffffff" fill-opacity="1"><g transform="translate(188.913646, 279.647357)"><g><path d="M 3.140625 0.078125 C 2.640625 0.078125 2.195312 -0.0234375 1.8125 -0.234375 C 1.425781 -0.453125 1.125 -0.78125 0.90625 -1.21875 C 0.6875 -1.65625 0.578125 -2.203125 0.578125 -2.859375 C 0.578125 -3.515625 0.6875 -4.0625 0.90625 -4.5 C 1.125 -4.9375 1.425781 -5.257812 1.8125 -5.46875 C 2.195312 -5.6875 2.640625 -5.796875 3.140625 -5.796875 C 3.628906 -5.796875 4.066406 -5.6875 4.453125 -5.46875 C 4.835938 -5.257812 5.140625 -4.9375 5.359375 -4.5 C 5.585938 -4.0625 5.703125 -3.515625 5.703125 -2.859375 C 5.703125 -2.203125 5.585938 -1.65625 5.359375 -1.21875 C 5.140625 -0.78125 4.835938 -0.453125 4.453125 -0.234375 C 4.066406 -0.0234375 3.628906 0.078125 3.140625 0.078125 Z M 3.140625 -0.546875 C 3.734375 -0.546875 4.1875 -0.726562 4.5 -1.09375 C 4.820312 -1.46875 4.984375 -2.054688 4.984375 -2.859375 C 4.984375 -3.660156 4.820312 -4.242188 4.5 -4.609375 C 4.1875 -4.984375 3.734375 -5.171875 3.140625 -5.171875 C 1.910156 -5.171875 1.296875 -4.398438 1.296875 -2.859375 C 1.296875 -1.316406 1.910156 -0.546875 3.140625 -0.546875 Z M 3.140625 -0.546875 "/></g></g></g><g fill="#ffffff" fill-opacity="1"><g transform="translate(199.907247, 279.647357)"><g/></g></g><g fill="#ffffff" fill-opacity="1"><g transform="translate(206.596171, 279.647357)"><g><path d="M 2.90625 -5.71875 C 3.300781 -5.71875 3.640625 -5.644531 3.921875 -5.5 C 4.203125 -5.363281 4.414062 -5.160156 4.5625 -4.890625 C 4.707031 -4.628906 4.78125 -4.320312 4.78125 -3.96875 C 4.78125 -3.613281 4.707031 -3.304688 4.5625 -3.046875 C 4.414062 -2.785156 4.203125 -2.582031 3.921875 -2.4375 C 3.640625 -2.300781 3.300781 -2.234375 2.90625 -2.234375 L 1.53125 -2.234375 L 1.53125 0 L 0.859375 0 L 0.859375 -5.71875 Z M 2.890625 -2.8125 C 3.679688 -2.8125 4.078125 -3.195312 4.078125 -3.96875 C 4.078125 -4.75 3.679688 -5.140625 2.890625 -5.140625 L 1.53125 -5.140625 L 1.53125 -2.8125 Z M 2.890625 -2.8125 "/></g></g></g><g fill="#ffffff" fill-opacity="1"><g transform="translate(216.531181, 279.647357)"><g><path d="M 2.71875 -5.71875 C 3.289062 -5.71875 3.785156 -5.613281 4.203125 -5.40625 C 4.617188 -5.195312 4.9375 -4.878906 5.15625 -4.453125 C 5.382812 -4.023438 5.5 -3.492188 5.5 -2.859375 C 5.5 -2.210938 5.382812 -1.675781 5.15625 -1.25 C 4.9375 -0.832031 4.617188 -0.519531 4.203125 -0.3125 C 3.785156 -0.101562 3.289062 0 2.71875 0 L 0.859375 0 L 0.859375 -5.71875 Z M 2.640625 -0.578125 C 3.117188 -0.578125 3.515625 -0.648438 3.828125 -0.796875 C 4.140625 -0.941406 4.375 -1.179688 4.53125 -1.515625 C 4.695312 -1.859375 4.78125 -2.304688 4.78125 -2.859375 C 4.78125 -3.410156 4.695312 -3.851562 4.53125 -4.1875 C 4.375 -4.53125 4.140625 -4.773438 3.828125 -4.921875 C 3.515625 -5.066406 3.117188 -5.140625 2.640625 -5.140625 L 1.53125 -5.140625 L 1.53125 -0.578125 Z M 2.640625 -0.578125 "/></g></g></g><g fill="#ffffff" fill-opacity="1"><g transform="translate(227.329465, 279.647357)"><g><path d="M 4.21875 -5.71875 L 4.21875 -5.15625 L 1.53125 -5.15625 L 1.53125 -3.078125 L 3.953125 -3.078125 L 3.953125 -2.515625 L 1.53125 -2.515625 L 1.53125 0 L 0.859375 0 L 0.859375 -5.71875 Z M 4.21875 -5.71875 "/></g></g></g></svg>