<svg xmlns="http://www.w3.org/2000/svg" xmlns:xlink="http://www.w3.org/1999/xlink" width="500" zoomAndPan="magnify" viewBox="0 0 375 374.999991" height="500" preserveAspectRatio="xMidYMid meet" version="1.0"><defs><g/><clipPath id="ef8c07e55e"><path d="M 37.5 37.5 L 337.5 37.5 L 337.5 337.5 L 37.5 337.5 Z M 37.5 37.5 " clip-rule="nonzero"/></clipPath><clipPath id="55e63775e3"><path d="M 187.5 37.5 C 104.65625 37.5 37.5 104.65625 37.5 187.5 C 37.5 270.34375 104.65625 337.5 187.5 337.5 C 270.34375 337.5 337.5 270.34375 337.5 187.5 C 337.5 104.65625 270.34375 37.5 187.5 37.5 Z M 187.5 37.5 " clip-rule="nonzero"/></clipPath></defs><g clip-path="url(#ef8c07e55e)"><g clip-path="url(#55e63775e3)"><path fill="#272727" d="M 37.5 37.5 L 337.5 37.5 L 337.5 337.5 L 37.5 337.5 Z M 37.5 37.5 " fill-opacity="1" fill-rule="nonzero"/></g></g><g fill="#5dcbf5" fill-opacity="1"><g transform="translate(84.994753, 239.400325)"><g><path d="M 73.4375 -80.015625 L 73.4375 0 L 38.90625 0 L 38.90625 -80.015625 L 3.59375 -80.015625 L 3.59375 -107.515625 L 108.609375 -107.515625 L 108.609375 -80.015625 Z M 73.4375 -80.015625 "/></g></g></g><path stroke-linecap="butt" transform="matrix(0.494289, 0, 0, 0.494289, 119.961465, 78.262113)" fill="none" stroke-linejoin="miter" d="M 233.802252 104.718748 C 250.888031 104.718748 265.682008 107.421494 278.184183 112.819082 C 290.741677 118.169255 300.43837 125.811229 307.282165 135.745005 C 314.18128 145.623462 317.626885 157.098278 317.626885 170.169452 C 317.626885 182.363419 314.560612 193.427291 308.443872 203.353164 C 302.319229 213.239524 294.621935 221.979983 285.359894 229.598249 C 276.097853 237.161195 263.342789 246.423236 247.078898 257.384372 C 238.022328 263.303544 230.664854 268.369216 225.006474 272.589293 L 320.092548 272.589293 L 320.092548 325.996182 L 139.949008 325.996182 L 139.949008 310.791262 C 139.949008 299.632557 142.52531 289.675072 147.67001 280.926711 C 152.81471 272.178349 160.353949 263.382571 170.287725 254.531474 C 180.41907 245.680376 194.960159 233.66027 213.895185 218.48696 C 229.068495 206.498465 239.721423 197.33916 245.846066 191.009045 C 251.970709 184.678929 255.02908 178.45155 255.02908 172.326907 C 255.02908 165.79132 252.768889 160.314703 248.240604 155.889155 C 243.712319 151.463606 236.892233 149.250832 227.788247 149.250832 C 218.320734 149.250832 210.828912 152.000994 205.328587 157.509221 C 199.867776 162.96213 197.141322 170.114132 197.141322 178.96523 L 197.141322 185.295345 L 140.873632 185.295345 C 140.66816 183.65157 140.565424 181.33606 140.565424 178.348814 C 140.565424 155.604655 148.515606 137.649572 164.41597 124.475662 C 180.316334 111.301751 203.447729 104.718748 233.802252 104.718748 Z M 233.802252 104.718748 " stroke="#272727" stroke-width="45.050236" stroke-opacity="1" stroke-miterlimit="4"/><g fill="#964ff5" fill-opacity="1"><g transform="translate(181.469551, 239.400325)"><g><path d="M 54.0625 -109.390625 C 62.5 -109.390625 69.816406 -108.0625 76.015625 -105.40625 C 82.222656 -102.75 87.019531 -98.972656 90.40625 -94.078125 C 93.789062 -89.179688 95.484375 -83.5 95.484375 -77.03125 C 95.484375 -70.988281 93.972656 -65.519531 90.953125 -60.625 C 87.929688 -55.726562 84.125 -51.40625 79.53125 -47.65625 C 74.945312 -43.90625 68.644531 -39.320312 60.625 -33.90625 C 56.144531 -30.988281 52.5 -28.488281 49.6875 -26.40625 L 96.734375 -26.40625 L 96.734375 0 L 7.65625 0 L 7.65625 -7.5 C 7.65625 -13.019531 8.929688 -17.941406 11.484375 -22.265625 C 14.035156 -26.585938 17.757812 -30.9375 22.65625 -35.3125 C 27.65625 -39.6875 34.84375 -45.625 44.21875 -53.125 C 51.71875 -59.0625 56.976562 -63.59375 60 -66.71875 C 63.019531 -69.84375 64.53125 -72.914062 64.53125 -75.9375 C 64.53125 -79.175781 63.410156 -81.890625 61.171875 -84.078125 C 58.929688 -86.265625 55.570312 -87.359375 51.09375 -87.359375 C 46.40625 -87.359375 42.707031 -86.003906 40 -83.296875 C 37.289062 -80.585938 35.9375 -77.039062 35.9375 -72.65625 L 35.9375 -69.53125 L 8.125 -69.53125 C 8.019531 -70.363281 7.96875 -71.507812 7.96875 -72.96875 C 7.96875 -84.226562 11.898438 -93.113281 19.765625 -99.625 C 27.628906 -106.132812 39.0625 -109.390625 54.0625 -109.390625 Z M 54.0625 -109.390625 "/></g></g></g><g fill="#ffffff" fill-opacity="1"><g transform="translate(170.14284, 265.444142)"><g><path d="M 0.984375 -13.625 L 5.96875 -13.625 C 7.351562 -13.625 8.472656 -13.265625 9.328125 -12.546875 C 10.191406 -11.835938 10.625 -10.796875 10.625 -9.421875 C 10.625 -8.054688 10.1875 -6.984375 9.3125 -6.203125 C 8.445312 -5.429688 7.332031 -5.046875 5.96875 -5.046875 L 4.09375 -5.046875 L 4.09375 0 L 0.984375 0 Z M 4.09375 -7.53125 L 4.96875 -7.53125 C 5.664062 -7.53125 6.234375 -7.671875 6.671875 -7.953125 C 7.117188 -8.234375 7.34375 -8.691406 7.34375 -9.328125 C 7.34375 -9.984375 7.117188 -10.445312 6.671875 -10.71875 C 6.234375 -11 5.664062 -11.140625 4.96875 -11.140625 L 4.09375 -11.140625 Z M 4.09375 -7.53125 "/></g></g></g><g fill="#ffffff" fill-opacity="1"><g transform="translate(182.213651, 265.444142)"><g><path d="M 0.984375 -13.625 L 4.9375 -13.625 C 6.832031 -13.625 8.453125 -12.976562 9.796875 -11.6875 C 11.140625 -10.394531 11.8125 -8.773438 11.8125 -6.828125 C 11.8125 -4.859375 11.140625 -3.226562 9.796875 -1.9375 C 8.460938 -0.644531 6.84375 0 4.9375 0 L 0.984375 0 Z M 4.09375 -2.78125 L 4.578125 -2.78125 C 5.710938 -2.78125 6.640625 -3.160156 7.359375 -3.921875 C 8.078125 -4.691406 8.441406 -5.648438 8.453125 -6.796875 C 8.453125 -7.953125 8.09375 -8.914062 7.375 -9.6875 C 6.65625 -10.457031 5.722656 -10.84375 4.578125 -10.84375 L 4.09375 -10.84375 Z M 4.09375 -2.78125 "/></g></g></g><g fill="#ffffff" fill-opacity="1"><g transform="translate(195.473308, 265.444142)"><g><path d="M 8.875 -13.625 L 8.875 -10.90625 L 4.09375 -10.90625 L 4.09375 -8.1875 L 8.5 -8.1875 L 8.5 -5.46875 L 4.09375 -5.46875 L 4.09375 0 L 0.984375 0 L 0.984375 -13.625 Z M 8.875 -13.625 "/></g></g></g></svg>