<svg xmlns="http://www.w3.org/2000/svg" xmlns:xlink="http://www.w3.org/1999/xlink" width="500" zoomAndPan="magnify" viewBox="0 0 375 374.999991" height="500" preserveAspectRatio="xMidYMid meet" version="1.0"><defs><g/></defs><g fill="#100a09" fill-opacity="1"><g transform="translate(74.01116, 263.259556)"><g><path d="M 128.515625 -132.578125 C 128.210938 -131.671875 127.914062 -130.914062 127.625 -130.3125 C 127.46875 -128.363281 127.085938 -126.414062 126.484375 -124.46875 C 125.890625 -122.519531 124.691406 -120.941406 122.890625 -119.734375 C 122.140625 -119.140625 121.015625 -118.691406 119.515625 -118.390625 C 118.910156 -117.785156 118.382812 -117.484375 117.9375 -117.484375 C 112.238281 -116.441406 106.535156 -115.394531 100.828125 -114.34375 C 95.128906 -113.289062 89.429688 -112.390625 83.734375 -111.640625 C 83.734375 -106.691406 83.691406 -101.738281 83.609375 -96.78125 C 83.535156 -91.832031 83.5 -86.878906 83.5 -81.921875 C 83.5 -75.023438 83.535156 -68.160156 83.609375 -61.328125 C 83.691406 -54.503906 83.734375 -47.640625 83.734375 -40.734375 C 83.878906 -36.835938 84.023438 -32.898438 84.171875 -28.921875 C 84.328125 -24.941406 84.476562 -21.003906 84.625 -17.109375 C 84.476562 -14.398438 84.066406 -11.804688 83.390625 -9.328125 C 82.710938 -6.859375 81.328125 -4.800781 79.234375 -3.15625 L 79.234375 -3.59375 C 79.378906 -5.25 79.453125 -6.863281 79.453125 -8.4375 C 79.453125 -10.007812 79.523438 -11.546875 79.671875 -13.046875 L 79.671875 -21.609375 C 79.222656 -19.660156 78.847656 -17.257812 78.546875 -14.40625 C 78.253906 -11.550781 77.734375 -9 76.984375 -6.75 C 76.222656 -4.351562 74.644531 -2.550781 72.25 -1.34375 C 69.851562 -0.144531 67.453125 0.148438 65.046875 -0.453125 C 60.390625 -1.953125 57.3125 -4.914062 55.8125 -9.34375 C 54.3125 -13.769531 53.414062 -18.15625 53.125 -22.5 C 52.820312 -28.207031 52.707031 -33.984375 52.78125 -39.828125 C 52.851562 -45.679688 52.96875 -51.460938 53.125 -57.171875 C 53.414062 -62.867188 53.75 -68.644531 54.125 -74.5 C 54.5 -80.351562 54.765625 -86.207031 54.921875 -92.0625 L 55.375 -101.953125 L 55.375 -109.15625 C 53.875 -109.15625 52.410156 -109.15625 50.984375 -109.15625 C 49.554688 -109.15625 48.09375 -109.15625 46.59375 -109.15625 C 40.4375 -109.15625 34.429688 -109.382812 28.578125 -109.84375 C 26.179688 -110.132812 23.816406 -110.539062 21.484375 -111.0625 C 19.160156 -111.59375 16.953125 -112.460938 14.859375 -113.671875 C 13.359375 -114.710938 11.96875 -115.984375 10.6875 -117.484375 C 9.414062 -118.984375 8.40625 -120.632812 7.65625 -122.4375 C 5.40625 -123.644531 3.71875 -125.484375 2.59375 -127.953125 C 1.46875 -130.429688 1.203125 -133.019531 1.796875 -135.71875 C 2.546875 -137.96875 3.929688 -139.992188 5.953125 -141.796875 C 7.984375 -143.597656 10.203125 -144.347656 12.609375 -144.046875 C 18.753906 -143.453125 24.898438 -142.96875 31.046875 -142.59375 C 37.203125 -142.21875 43.359375 -142.03125 49.515625 -142.03125 C 49.515625 -142.175781 49.550781 -142.285156 49.625 -142.359375 C 49.707031 -142.429688 49.75 -142.546875 49.75 -142.703125 C 37.59375 -143.453125 25.4375 -144.800781 13.28125 -146.75 C 12.976562 -146.75 12.863281 -146.972656 12.9375 -147.421875 C 13.007812 -147.867188 13.195312 -148.019531 13.5 -147.875 C 29.257812 -146.976562 45.015625 -146.675781 60.765625 -146.96875 C 76.523438 -147.269531 92.207031 -148.097656 107.8125 -149.453125 C 109.007812 -149.753906 110.207031 -149.941406 111.40625 -150.015625 C 112.613281 -150.085938 113.742188 -150.203125 114.796875 -150.359375 C 115.390625 -150.359375 116.023438 -150.394531 116.703125 -150.46875 C 117.378906 -150.539062 118.015625 -150.503906 118.609375 -150.359375 C 120.265625 -150.648438 121.953125 -150.867188 123.671875 -151.015625 C 125.398438 -151.171875 127.09375 -151.328125 128.75 -151.484375 C 129.789062 -151.628906 130.425781 -151.0625 130.65625 -149.78125 C 130.882812 -148.507812 130.394531 -147.722656 129.1875 -147.421875 C 128.4375 -147.421875 127.914062 -147.347656 127.625 -147.203125 C 128.21875 -146.898438 128.664062 -146.597656 128.96875 -146.296875 C 131.519531 -144.796875 132.757812 -142.429688 132.6875 -139.203125 C 132.613281 -135.984375 131.222656 -133.773438 128.515625 -132.578125 Z M 28.578125 -115.234375 C 32.484375 -114.941406 36.460938 -114.941406 40.515625 -115.234375 C 36.015625 -115.691406 31.507812 -116.332031 27 -117.15625 C 22.5 -117.976562 18.078125 -119.066406 13.734375 -120.421875 C 15.535156 -118.765625 17.785156 -117.523438 20.484375 -116.703125 C 23.179688 -115.878906 25.878906 -115.390625 28.578125 -115.234375 Z M 28.578125 -115.234375 "/></g></g></g><g fill="#100a09" fill-opacity="1"><g transform="translate(194.861699, 263.259556)"><g><path d="M 128.515625 -132.578125 C 128.210938 -131.671875 127.914062 -130.914062 127.625 -130.3125 C 127.46875 -128.363281 127.085938 -126.414062 126.484375 -124.46875 C 125.890625 -122.519531 124.691406 -120.941406 122.890625 -119.734375 C 122.140625 -119.140625 121.015625 -118.691406 119.515625 -118.390625 C 118.910156 -117.785156 118.382812 -117.484375 117.9375 -117.484375 C 112.238281 -116.441406 106.535156 -115.394531 100.828125 -114.34375 C 95.128906 -113.289062 89.429688 -112.390625 83.734375 -111.640625 C 83.734375 -106.691406 83.691406 -101.738281 83.609375 -96.78125 C 83.535156 -91.832031 83.5 -86.878906 83.5 -81.921875 C 83.5 -75.023438 83.535156 -68.160156 83.609375 -61.328125 C 83.691406 -54.503906 83.734375 -47.640625 83.734375 -40.734375 C 83.878906 -36.835938 84.023438 -32.898438 84.171875 -28.921875 C 84.328125 -24.941406 84.476562 -21.003906 84.625 -17.109375 C 84.476562 -14.398438 84.066406 -11.804688 83.390625 -9.328125 C 82.710938 -6.859375 81.328125 -4.800781 79.234375 -3.15625 L 79.234375 -3.59375 C 79.378906 -5.25 79.453125 -6.863281 79.453125 -8.4375 C 79.453125 -10.007812 79.523438 -11.546875 79.671875 -13.046875 L 79.671875 -21.609375 C 79.222656 -19.660156 78.847656 -17.257812 78.546875 -14.40625 C 78.253906 -11.550781 77.734375 -9 76.984375 -6.75 C 76.222656 -4.351562 74.644531 -2.550781 72.25 -1.34375 C 69.851562 -0.144531 67.453125 0.148438 65.046875 -0.453125 C 60.390625 -1.953125 57.3125 -4.914062 55.8125 -9.34375 C 54.3125 -13.769531 53.414062 -18.15625 53.125 -22.5 C 52.820312 -28.207031 52.707031 -33.984375 52.78125 -39.828125 C 52.851562 -45.679688 52.96875 -51.460938 53.125 -57.171875 C 53.414062 -62.867188 53.75 -68.644531 54.125 -74.5 C 54.5 -80.351562 54.765625 -86.207031 54.921875 -92.0625 L 55.375 -101.953125 L 55.375 -109.15625 C 53.875 -109.15625 52.410156 -109.15625 50.984375 -109.15625 C 49.554688 -109.15625 48.09375 -109.15625 46.59375 -109.15625 C 40.4375 -109.15625 34.429688 -109.382812 28.578125 -109.84375 C 26.179688 -110.132812 23.816406 -110.539062 21.484375 -111.0625 C 19.160156 -111.59375 16.953125 -112.460938 14.859375 -113.671875 C 13.359375 -114.710938 11.96875 -115.984375 10.6875 -117.484375 C 9.414062 -118.984375 8.40625 -120.632812 7.65625 -122.4375 C 5.40625 -123.644531 3.71875 -125.484375 2.59375 -127.953125 C 1.46875 -130.429688 1.203125 -133.019531 1.796875 -135.71875 C 2.546875 -137.96875 3.929688 -139.992188 5.953125 -141.796875 C 7.984375 -143.597656 10.203125 -144.347656 12.609375 -144.046875 C 18.753906 -143.453125 24.898438 -142.96875 31.046875 -142.59375 C 37.203125 -142.21875 43.359375 -142.03125 49.515625 -142.03125 C 49.515625 -142.175781 49.550781 -142.285156 49.625 -142.359375 C 49.707031 -142.429688 49.75 -142.546875 49.75 -142.703125 C 37.59375 -143.453125 25.4375 -144.800781 13.28125 -146.75 C 12.976562 -146.75 12.863281 -146.972656 12.9375 -147.421875 C 13.007812 -147.867188 13.195312 -148.019531 13.5 -147.875 C 29.257812 -146.976562 45.015625 -146.675781 60.765625 -146.96875 C 76.523438 -147.269531 92.207031 -148.097656 107.8125 -149.453125 C 109.007812 -149.753906 110.207031 -149.941406 111.40625 -150.015625 C 112.613281 -150.085938 113.742188 -150.203125 114.796875 -150.359375 C 115.390625 -150.359375 116.023438 -150.394531 116.703125 -150.46875 C 117.378906 -150.539062 118.015625 -150.503906 118.609375 -150.359375 C 120.265625 -150.648438 121.953125 -150.867188 123.671875 -151.015625 C 125.398438 -151.171875 127.09375 -151.328125 128.75 -151.484375 C 129.789062 -151.628906 130.425781 -151.0625 130.65625 -149.78125 C 130.882812 -148.507812 130.394531 -147.722656 129.1875 -147.421875 C 128.4375 -147.421875 127.914062 -147.347656 127.625 -147.203125 C 128.21875 -146.898438 128.664062 -146.597656 128.96875 -146.296875 C 131.519531 -144.796875 132.757812 -142.429688 132.6875 -139.203125 C 132.613281 -135.984375 131.222656 -133.773438 128.515625 -132.578125 Z M 28.578125 -115.234375 C 32.484375 -114.941406 36.460938 -114.941406 40.515625 -115.234375 C 36.015625 -115.691406 31.507812 -116.332031 27 -117.15625 C 22.5 -117.976562 18.078125 -119.066406 13.734375 -120.421875 C 15.535156 -118.765625 17.785156 -117.523438 20.484375 -116.703125 C 23.179688 -115.878906 25.878906 -115.390625 28.578125 -115.234375 Z M 28.578125 -115.234375 "/></g></g></g><path stroke-linecap="butt" transform="matrix(2.179667, 0, 0, 2.179667, -155.510611, 22.374051)" fill="none" stroke-linejoin="miter" d="M 153.06004 42.16749 C 152.92563 42.588641 152.782259 42.93273 152.63172 43.201549 C 152.563619 44.11016 152.395159 45.008018 152.126339 45.898707 C 151.85752 46.789396 151.303751 47.513417 150.463241 48.067186 C 150.126321 48.336005 149.613771 48.545685 148.925593 48.698016 C 148.656773 48.966836 148.413043 49.101245 148.194403 49.101245 C 145.588645 49.588705 142.975717 50.076165 140.353829 50.563624 C 137.731942 51.033163 135.119014 51.436392 132.513256 51.773313 C 132.513256 54.05828 132.497126 56.336079 132.463076 58.604917 C 132.429025 60.873755 132.412896 63.142593 132.412896 65.411431 C 132.412896 68.570958 132.429025 71.723317 132.463076 74.864923 C 132.497126 77.992192 132.513256 81.142759 132.513256 84.320207 C 132.581357 86.101586 132.647665 87.908054 132.715766 89.739612 C 132.782075 91.555041 132.850176 93.361509 132.916485 95.159017 C 132.850176 96.386627 132.656626 97.571225 132.337627 98.714605 C 132.034757 99.857985 131.403926 100.806022 130.446928 101.562301 L 130.446928 101.336493 C 130.513237 100.580214 130.547288 99.840063 130.547288 99.117834 C 130.547288 98.395606 130.581338 97.689506 130.647647 96.999535 L 130.647647 93.092689 C 130.446928 93.983379 130.269507 95.083747 130.118968 96.395587 C 129.984558 97.705635 129.749789 98.874105 129.412869 99.899204 C 129.059819 101.008533 128.328629 101.840082 127.2193 102.395642 C 126.127892 102.933282 125.034692 103.067692 123.941492 102.798872 C 121.807064 102.108901 120.396657 100.748674 119.706686 98.714605 C 119.018508 96.680536 118.606318 94.664388 118.471908 92.66437 C 118.321369 90.058611 118.262228 87.411634 118.294487 84.723437 C 118.346459 82.033448 118.403807 79.38647 118.471908 76.782504 C 118.606318 74.160616 118.756857 71.504677 118.925317 68.814688 C 119.093777 66.126492 119.212058 63.445463 119.278367 60.773396 L 119.505967 56.23572 L 119.505967 52.907732 C 118.815997 52.907732 118.143948 52.907732 117.488028 52.907732 C 116.8339 52.907732 116.160059 52.907732 115.47188 52.907732 C 112.647481 52.907732 109.891184 52.807373 107.202987 52.604862 C 106.109787 52.470452 105.02734 52.285862 103.950269 52.051093 C 102.892911 51.798403 101.874981 51.404134 100.900061 50.866495 C 100.211883 50.379035 99.572092 49.789424 98.984273 49.101245 C 98.412583 48.411275 97.950214 47.654995 97.597164 46.832407 C 96.572065 46.276847 95.799656 45.438129 95.278146 44.310879 C 94.758428 43.167499 94.640147 41.975732 94.925096 40.731993 C 95.262017 39.706894 95.892847 38.782154 96.815795 37.957774 C 97.758456 37.117264 98.774594 36.773175 99.866002 36.925506 C 102.690401 37.194326 105.513007 37.412966 108.337406 37.579634 C 111.160013 37.748094 113.984411 37.832324 116.80881 37.832324 C 116.80881 37.764223 116.824939 37.714044 116.85899 37.681785 C 116.891248 37.647735 116.909169 37.597555 116.909169 37.529454 C 111.328473 37.194326 105.756737 36.572456 100.193962 35.663846 C 100.043423 35.663846 99.984282 35.563486 100.018333 35.360976 C 100.068513 35.160257 100.161703 35.092156 100.296113 35.160257 C 107.521986 35.579616 114.749651 35.722986 121.975524 35.588576 C 129.203189 35.438037 136.396804 35.050937 143.556368 34.429067 C 144.110136 34.294658 144.656736 34.210427 145.194376 34.176377 C 145.748144 34.142326 146.269654 34.092147 146.757114 34.025838 C 147.025934 34.025838 147.312675 34.007917 147.613753 33.975658 C 147.934544 33.941608 148.235622 33.957737 148.522363 34.025838 C 149.278643 33.891428 150.051051 33.791069 150.841381 33.722968 C 151.631711 33.638738 152.40412 33.563468 153.160399 33.495367 C 153.647859 33.429058 153.941768 33.688917 154.04392 34.278528 C 154.144279 34.866347 153.916678 35.226566 153.36291 35.360976 C 153.025989 35.360976 152.782259 35.395026 152.63172 35.463127 C 152.916669 35.597537 153.126348 35.739115 153.260758 35.891446 C 154.438188 36.579625 155.009878 37.663864 154.975828 39.142372 C 154.941777 40.622673 154.303779 41.62985 153.06004 42.16749 Z M 107.202987 50.135305 C 109.000494 50.269715 110.824884 50.269715 112.674363 50.135305 C 110.606244 49.932794 108.539917 49.647845 106.471797 49.276874 C 104.421599 48.891566 102.396491 48.386185 100.396473 47.764315 C 101.219061 48.520595 102.24416 49.092285 103.47177 49.479385 C 104.715509 49.848564 105.959248 50.067204 107.202987 50.135305 Z M 208.504994 42.16749 C 208.370584 42.588641 208.227214 42.93273 208.076675 43.201549 C 208.008574 44.11016 207.840113 45.008018 207.571294 45.898707 C 207.302474 46.789396 206.748705 47.513417 205.908196 48.067186 C 205.571275 48.336005 205.058726 48.545685 204.370547 48.698016 C 204.101728 48.966836 203.857998 49.101245 203.639358 49.101245 C 201.033599 49.588705 198.420672 50.076165 195.798784 50.563624 C 193.176896 51.033163 190.563969 51.436392 187.95821 51.773313 C 187.95821 54.05828 187.942081 56.336079 187.90803 58.604917 C 187.87398 60.873755 187.857851 63.142593 187.857851 65.411431 C 187.857851 68.570958 187.87398 71.723317 187.90803 74.864923 C 187.942081 77.992192 187.95821 81.142759 187.95821 84.320207 C 188.026311 86.101586 188.09262 87.908054 188.160721 89.739612 C 188.22703 91.555041 188.295131 93.361509 188.36144 95.159017 C 188.295131 96.386627 188.101581 97.571225 187.782581 98.714605 C 187.479711 99.857985 186.848881 100.806022 185.891883 101.562301 L 185.891883 101.336493 C 185.958192 100.580214 185.992242 99.840063 185.992242 99.117834 C 185.992242 98.395606 186.026293 97.689506 186.092601 96.999535 L 186.092601 93.092689 C 185.891883 93.983379 185.714462 95.083747 185.563923 96.395587 C 185.429513 97.705635 185.192952 98.874105 184.857823 99.899204 C 184.504773 101.008533 183.773584 101.840082 182.664255 102.395642 C 181.571054 102.933282 180.479647 103.067692 179.386447 102.798872 C 177.252018 102.108901 175.839819 100.748674 175.151641 98.714605 C 174.46167 96.680536 174.051272 94.664388 173.916862 92.66437 C 173.764531 90.058611 173.705391 87.411634 173.739441 84.723437 C 173.789621 82.033448 173.848761 79.38647 173.916862 76.782504 C 174.051272 74.160616 174.201811 71.504677 174.370271 68.814688 C 174.538732 66.126492 174.65522 63.445463 174.723321 60.773396 L 174.94913 56.23572 L 174.94913 52.907732 C 174.260951 52.907732 173.588902 52.907732 172.932982 52.907732 C 172.277062 52.907732 171.605013 52.907732 170.916835 52.907732 C 168.092436 52.907732 165.336138 52.807373 162.647941 52.604862 C 161.554741 52.470452 160.470502 52.285862 159.395223 52.051093 C 158.336074 51.798403 157.319935 51.404134 156.345016 50.866495 C 155.655045 50.379035 155.017047 49.789424 154.429228 49.101245 C 153.857538 48.411275 153.395168 47.654995 153.042118 46.832407 C 152.017019 46.276847 151.244611 45.438129 150.7231 44.310879 C 150.20159 43.167499 150.085102 41.975732 150.370051 40.731993 C 150.706971 39.706894 151.336009 38.782154 152.260749 37.957774 C 153.201618 37.117264 154.219548 36.773175 155.310956 36.925506 C 158.135355 37.194326 160.957962 37.412966 163.78236 37.579634 C 166.604967 37.748094 169.429366 37.832324 172.251972 37.832324 C 172.251972 37.764223 172.269894 37.714044 172.302152 37.681785 C 172.336203 37.647735 172.354124 37.597555 172.354124 37.529454 C 166.773427 37.194326 161.201691 36.572456 155.638916 35.663846 C 155.488377 35.663846 155.429237 35.563486 155.463287 35.360976 C 155.513467 35.160257 155.604866 35.092156 155.739276 35.160257 C 162.966941 35.579616 170.192814 35.722986 177.420479 35.588576 C 184.648144 35.438037 191.839966 35.050937 198.99953 34.429067 C 199.555091 34.294658 200.101691 34.210427 200.63933 34.176377 C 201.193099 34.142326 201.714609 34.092147 202.202069 34.025838 C 202.470888 34.025838 202.755837 34.007917 203.058707 33.975658 C 203.377707 33.941608 203.680577 33.957737 203.967318 34.025838 C 204.723597 33.891428 205.496006 33.791069 206.286336 33.722968 C 207.076665 33.638738 207.849074 33.563468 208.605353 33.495367 C 209.092813 33.429058 209.386723 33.688917 209.487082 34.278528 C 209.589233 34.866347 209.361633 35.226566 208.806072 35.360976 C 208.470944 35.360976 208.227214 35.395026 208.076675 35.463127 C 208.361624 35.597537 208.571303 35.739115 208.705713 35.891446 C 209.883143 36.579625 210.453041 37.663864 210.420782 39.142372 C 210.386732 40.622673 209.748733 41.62985 208.504994 42.16749 Z M 162.647941 50.135305 C 164.445449 50.269715 166.269838 50.269715 168.117526 50.135305 C 166.051198 49.932794 163.983079 49.647845 161.916752 49.276874 C 159.866554 48.891566 157.841446 48.386185 155.841427 47.764315 C 156.664015 48.520595 157.689114 49.092285 158.916724 49.479385 C 160.160463 49.848564 161.404202 50.067204 162.647941 50.135305 Z M 162.647941 50.135305 " stroke="#303030" stroke-width="8.26144" stroke-opacity="1" stroke-miterlimit="4"/><g fill="#ffffff" fill-opacity="1"><g transform="translate(49.582473, 246.879799)"><g><path d="M 128.515625 -132.578125 C 128.210938 -131.671875 127.914062 -130.914062 127.625 -130.3125 C 127.46875 -128.363281 127.085938 -126.414062 126.484375 -124.46875 C 125.890625 -122.519531 124.691406 -120.941406 122.890625 -119.734375 C 122.140625 -119.140625 121.015625 -118.691406 119.515625 -118.390625 C 118.910156 -117.785156 118.382812 -117.484375 117.9375 -117.484375 C 112.238281 -116.441406 106.535156 -115.394531 100.828125 -114.34375 C 95.128906 -113.289062 89.429688 -112.390625 83.734375 -111.640625 C 83.734375 -106.691406 83.691406 -101.738281 83.609375 -96.78125 C 83.535156 -91.832031 83.5 -86.878906 83.5 -81.921875 C 83.5 -75.023438 83.535156 -68.160156 83.609375 -61.328125 C 83.691406 -54.503906 83.734375 -47.640625 83.734375 -40.734375 C 83.878906 -36.835938 84.023438 -32.898438 84.171875 -28.921875 C 84.328125 -24.941406 84.476562 -21.003906 84.625 -17.109375 C 84.476562 -14.398438 84.066406 -11.804688 83.390625 -9.328125 C 82.710938 -6.859375 81.328125 -4.800781 79.234375 -3.15625 L 79.234375 -3.59375 C 79.378906 -5.25 79.453125 -6.863281 79.453125 -8.4375 C 79.453125 -10.007812 79.523438 -11.546875 79.671875 -13.046875 L 79.671875 -21.609375 C 79.222656 -19.660156 78.847656 -17.257812 78.546875 -14.40625 C 78.253906 -11.550781 77.734375 -9 76.984375 -6.75 C 76.222656 -4.351562 74.644531 -2.550781 72.25 -1.34375 C 69.851562 -0.144531 67.453125 0.148438 65.046875 -0.453125 C 60.390625 -1.953125 57.3125 -4.914062 55.8125 -9.34375 C 54.3125 -13.769531 53.414062 -18.15625 53.125 -22.5 C 52.820312 -28.207031 52.707031 -33.984375 52.78125 -39.828125 C 52.851562 -45.679688 52.96875 -51.460938 53.125 -57.171875 C 53.414062 -62.867188 53.75 -68.644531 54.125 -74.5 C 54.5 -80.351562 54.765625 -86.207031 54.921875 -92.0625 L 55.375 -101.953125 L 55.375 -109.15625 C 53.875 -109.15625 52.410156 -109.15625 50.984375 -109.15625 C 49.554688 -109.15625 48.09375 -109.15625 46.59375 -109.15625 C 40.4375 -109.15625 34.429688 -109.382812 28.578125 -109.84375 C 26.179688 -110.132812 23.816406 -110.539062 21.484375 -111.0625 C 19.160156 -111.59375 16.953125 -112.460938 14.859375 -113.671875 C 13.359375 -114.710938 11.96875 -115.984375 10.6875 -117.484375 C 9.414062 -118.984375 8.40625 -120.632812 7.65625 -122.4375 C 5.40625 -123.644531 3.71875 -125.484375 2.59375 -127.953125 C 1.46875 -130.429688 1.203125 -133.019531 1.796875 -135.71875 C 2.546875 -137.96875 3.929688 -139.992188 5.953125 -141.796875 C 7.984375 -143.597656 10.203125 -144.347656 12.609375 -144.046875 C 18.753906 -143.453125 24.898438 -142.96875 31.046875 -142.59375 C 37.203125 -142.21875 43.359375 -142.03125 49.515625 -142.03125 C 49.515625 -142.175781 49.550781 -142.285156 49.625 -142.359375 C 49.707031 -142.429688 49.75 -142.546875 49.75 -142.703125 C 37.59375 -143.453125 25.4375 -144.800781 13.28125 -146.75 C 12.976562 -146.75 12.863281 -146.972656 12.9375 -147.421875 C 13.007812 -147.867188 13.195312 -148.019531 13.5 -147.875 C 29.257812 -146.976562 45.015625 -146.675781 60.765625 -146.96875 C 76.523438 -147.269531 92.207031 -148.097656 107.8125 -149.453125 C 109.007812 -149.753906 110.207031 -149.941406 111.40625 -150.015625 C 112.613281 -150.085938 113.742188 -150.203125 114.796875 -150.359375 C 115.390625 -150.359375 116.023438 -150.394531 116.703125 -150.46875 C 117.378906 -150.539062 118.015625 -150.503906 118.609375 -150.359375 C 120.265625 -150.648438 121.953125 -150.867188 123.671875 -151.015625 C 125.398438 -151.171875 127.09375 -151.328125 128.75 -151.484375 C 129.789062 -151.628906 130.425781 -151.0625 130.65625 -149.78125 C 130.882812 -148.507812 130.394531 -147.722656 129.1875 -147.421875 C 128.4375 -147.421875 127.914062 -147.347656 127.625 -147.203125 C 128.21875 -146.898438 128.664062 -146.597656 128.96875 -146.296875 C 131.519531 -144.796875 132.757812 -142.429688 132.6875 -139.203125 C 132.613281 -135.984375 131.222656 -133.773438 128.515625 -132.578125 Z M 28.578125 -115.234375 C 32.484375 -114.941406 36.460938 -114.941406 40.515625 -115.234375 C 36.015625 -115.691406 31.507812 -116.332031 27 -117.15625 C 22.5 -117.976562 18.078125 -119.066406 13.734375 -120.421875 C 15.535156 -118.765625 17.785156 -117.523438 20.484375 -116.703125 C 23.179688 -115.878906 25.878906 -115.390625 28.578125 -115.234375 Z M 28.578125 -115.234375 "/></g></g></g><g fill="#ffffff" fill-opacity="1"><g transform="translate(170.433012, 246.879799)"><g><path d="M 128.515625 -132.578125 C 128.210938 -131.671875 127.914062 -130.914062 127.625 -130.3125 C 127.46875 -128.363281 127.085938 -126.414062 126.484375 -124.46875 C 125.890625 -122.519531 124.691406 -120.941406 122.890625 -119.734375 C 122.140625 -119.140625 121.015625 -118.691406 119.515625 -118.390625 C 118.910156 -117.785156 118.382812 -117.484375 117.9375 -117.484375 C 112.238281 -116.441406 106.535156 -115.394531 100.828125 -114.34375 C 95.128906 -113.289062 89.429688 -112.390625 83.734375 -111.640625 C 83.734375 -106.691406 83.691406 -101.738281 83.609375 -96.78125 C 83.535156 -91.832031 83.5 -86.878906 83.5 -81.921875 C 83.5 -75.023438 83.535156 -68.160156 83.609375 -61.328125 C 83.691406 -54.503906 83.734375 -47.640625 83.734375 -40.734375 C 83.878906 -36.835938 84.023438 -32.898438 84.171875 -28.921875 C 84.328125 -24.941406 84.476562 -21.003906 84.625 -17.109375 C 84.476562 -14.398438 84.066406 -11.804688 83.390625 -9.328125 C 82.710938 -6.859375 81.328125 -4.800781 79.234375 -3.15625 L 79.234375 -3.59375 C 79.378906 -5.25 79.453125 -6.863281 79.453125 -8.4375 C 79.453125 -10.007812 79.523438 -11.546875 79.671875 -13.046875 L 79.671875 -21.609375 C 79.222656 -19.660156 78.847656 -17.257812 78.546875 -14.40625 C 78.253906 -11.550781 77.734375 -9 76.984375 -6.75 C 76.222656 -4.351562 74.644531 -2.550781 72.25 -1.34375 C 69.851562 -0.144531 67.453125 0.148438 65.046875 -0.453125 C 60.390625 -1.953125 57.3125 -4.914062 55.8125 -9.34375 C 54.3125 -13.769531 53.414062 -18.15625 53.125 -22.5 C 52.820312 -28.207031 52.707031 -33.984375 52.78125 -39.828125 C 52.851562 -45.679688 52.96875 -51.460938 53.125 -57.171875 C 53.414062 -62.867188 53.75 -68.644531 54.125 -74.5 C 54.5 -80.351562 54.765625 -86.207031 54.921875 -92.0625 L 55.375 -101.953125 L 55.375 -109.15625 C 53.875 -109.15625 52.410156 -109.15625 50.984375 -109.15625 C 49.554688 -109.15625 48.09375 -109.15625 46.59375 -109.15625 C 40.4375 -109.15625 34.429688 -109.382812 28.578125 -109.84375 C 26.179688 -110.132812 23.816406 -110.539062 21.484375 -111.0625 C 19.160156 -111.59375 16.953125 -112.460938 14.859375 -113.671875 C 13.359375 -114.710938 11.96875 -115.984375 10.6875 -117.484375 C 9.414062 -118.984375 8.40625 -120.632812 7.65625 -122.4375 C 5.40625 -123.644531 3.71875 -125.484375 2.59375 -127.953125 C 1.46875 -130.429688 1.203125 -133.019531 1.796875 -135.71875 C 2.546875 -137.96875 3.929688 -139.992188 5.953125 -141.796875 C 7.984375 -143.597656 10.203125 -144.347656 12.609375 -144.046875 C 18.753906 -143.453125 24.898438 -142.96875 31.046875 -142.59375 C 37.203125 -142.21875 43.359375 -142.03125 49.515625 -142.03125 C 49.515625 -142.175781 49.550781 -142.285156 49.625 -142.359375 C 49.707031 -142.429688 49.75 -142.546875 49.75 -142.703125 C 37.59375 -143.453125 25.4375 -144.800781 13.28125 -146.75 C 12.976562 -146.75 12.863281 -146.972656 12.9375 -147.421875 C 13.007812 -147.867188 13.195312 -148.019531 13.5 -147.875 C 29.257812 -146.976562 45.015625 -146.675781 60.765625 -146.96875 C 76.523438 -147.269531 92.207031 -148.097656 107.8125 -149.453125 C 109.007812 -149.753906 110.207031 -149.941406 111.40625 -150.015625 C 112.613281 -150.085938 113.742188 -150.203125 114.796875 -150.359375 C 115.390625 -150.359375 116.023438 -150.394531 116.703125 -150.46875 C 117.378906 -150.539062 118.015625 -150.503906 118.609375 -150.359375 C 120.265625 -150.648438 121.953125 -150.867188 123.671875 -151.015625 C 125.398438 -151.171875 127.09375 -151.328125 128.75 -151.484375 C 129.789062 -151.628906 130.425781 -151.0625 130.65625 -149.78125 C 130.882812 -148.507812 130.394531 -147.722656 129.1875 -147.421875 C 128.4375 -147.421875 127.914062 -147.347656 127.625 -147.203125 C 128.21875 -146.898438 128.664062 -146.597656 128.96875 -146.296875 C 131.519531 -144.796875 132.757812 -142.429688 132.6875 -139.203125 C 132.613281 -135.984375 131.222656 -133.773438 128.515625 -132.578125 Z M 28.578125 -115.234375 C 32.484375 -114.941406 36.460938 -114.941406 40.515625 -115.234375 C 36.015625 -115.691406 31.507812 -116.332031 27 -117.15625 C 22.5 -117.976562 18.078125 -119.066406 13.734375 -120.421875 C 15.535156 -118.765625 17.785156 -117.523438 20.484375 -116.703125 C 23.179688 -115.878906 25.878906 -115.390625 28.578125 -115.234375 Z M 28.578125 -115.234375 "/></g></g></g></svg>